<svg width="300" height="144" viewBox="0 0 300 144" fill="none" xmlns="http://www.w3.org/2000/svg">
<rect y="0.285645" width="300" height="143.327" rx="20" fill="white"/>
<path d="M19.18 25.5856V29.0856H23.88V31.3056H19.18V35.0056H24.48V37.2856H16.38V23.3056H24.48V25.5856H19.18ZM36.5245 23.3256V25.5856H32.8045V37.2856H30.0045V25.5856H26.2845V23.3256H36.5245ZM50.1475 23.3256V37.2856H47.3475V31.3456H41.3675V37.2856H38.5675V23.3256H41.3675V29.0656H47.3475V23.3256H50.1475Z" fill="#545C81"/>
<path d="M16.44 65.2856V60.1256H26.08V89.2856H20.32V65.2856H16.44ZM31.6122 74.3256C31.6122 69.7123 32.4389 66.099 34.0922 63.4856C35.7722 60.8723 38.5455 59.5656 42.4122 59.5656C46.2789 59.5656 49.0389 60.8723 50.6922 63.4856C52.3722 66.099 53.2122 69.7123 53.2122 74.3256C53.2122 78.9656 52.3722 82.6056 50.6922 85.2456C49.0389 87.8856 46.2789 89.2056 42.4122 89.2056C38.5455 89.2056 35.7722 87.8856 34.0922 85.2456C32.4389 82.6056 31.6122 78.9656 31.6122 74.3256ZM47.6922 74.3256C47.6922 72.3523 47.5589 70.699 47.2922 69.3656C47.0522 68.0056 46.5455 66.899 45.7722 66.0456C45.0255 65.1923 43.9055 64.7656 42.4122 64.7656C40.9189 64.7656 39.7855 65.1923 39.0122 66.0456C38.2655 66.899 37.7589 68.0056 37.4922 69.3656C37.2522 70.699 37.1322 72.3523 37.1322 74.3256C37.1322 76.3523 37.2522 78.059 37.4922 79.4456C37.7322 80.8056 38.2389 81.9123 39.0122 82.7656C39.7855 83.5923 40.9189 84.0056 42.4122 84.0056C43.9055 84.0056 45.0389 83.5923 45.8122 82.7656C46.5855 81.9123 47.0922 80.8056 47.3322 79.4456C47.5722 78.059 47.6922 76.3523 47.6922 74.3256ZM57.2316 83.6056V79.2056L70.3116 60.4856H76.8316V78.7256H80.3516V83.6056H76.8316V89.2856H71.2316V83.6056H57.2316ZM71.5916 66.4856L63.3916 78.7256H71.5916V66.4856Z" fill="#545C81"/>
<path d="M94 96.0719L120.396 59.6948L129.458 78.5466L140.827 83.443L174.792 50.047L195.305 69.37L219.962 15.2856L230.807 69.8652L241.571 78.5466L254.389 59.6948L264.88 73.0595L285 83.443" stroke="#5BCD88" stroke-width="1.5" stroke-linecap="round" stroke-linejoin="round"/>
<path fill-rule="evenodd" clip-rule="evenodd" d="M94 95.9394L120.396 59.6219L129.458 78.4429L140.827 83.3312L175.845 50.1051L195.305 69.2813L219.962 15.2856L230.807 69.7756L241.571 78.4429L254.389 59.6219L264.88 72.9647L285 83.3312V107.613H94L94 95.9394Z" fill="url(#paint0_linear_418_12298)"/>
<path d="M23.358 118.035H20.376V121.059H19.186V118.035H16.218V116.957H19.186V113.919H20.376V116.957H23.358V118.035ZM25.2706 121.591C26.456 120.639 27.3846 119.859 28.0566 119.253C28.7286 118.637 29.2933 117.997 29.7506 117.335C30.2173 116.663 30.4506 116.005 30.4506 115.361C30.4506 114.754 30.3013 114.278 30.0026 113.933C29.7133 113.578 29.242 113.401 28.5886 113.401C27.954 113.401 27.4593 113.601 27.1046 114.003C26.7593 114.395 26.5726 114.922 26.5446 115.585H25.3126C25.35 114.539 25.6673 113.732 26.2646 113.163C26.862 112.593 27.632 112.309 28.5746 112.309C29.536 112.309 30.2966 112.575 30.8566 113.107C31.426 113.639 31.7106 114.371 31.7106 115.305C31.7106 116.079 31.4773 116.835 31.0106 117.573C30.5533 118.301 30.0306 118.945 29.4426 119.505C28.8546 120.055 28.1033 120.699 27.1886 121.437H32.0046V122.501H25.2706V121.591ZM33.1974 114.773C33.1974 114.138 33.3887 113.634 33.7714 113.261C34.154 112.878 34.644 112.687 35.2414 112.687C35.8387 112.687 36.3287 112.878 36.7114 113.261C37.094 113.634 37.2854 114.138 37.2854 114.773C37.2854 115.417 37.094 115.93 36.7114 116.313C36.3287 116.686 35.8387 116.873 35.2414 116.873C34.644 116.873 34.154 116.686 33.7714 116.313C33.3887 115.93 33.1974 115.417 33.1974 114.773ZM41.3734 112.841L35.7034 122.613H34.4434L40.1134 112.841H41.3734ZM35.2414 113.471C34.924 113.471 34.672 113.583 34.4854 113.807C34.308 114.021 34.2194 114.343 34.2194 114.773C34.2194 115.202 34.308 115.529 34.4854 115.753C34.672 115.977 34.924 116.089 35.2414 116.089C35.5587 116.089 35.8107 115.977 35.9974 115.753C36.184 115.519 36.2774 115.193 36.2774 114.773C36.2774 114.343 36.184 114.021 35.9974 113.807C35.8107 113.583 35.5587 113.471 35.2414 113.471ZM38.5594 120.681C38.5594 120.037 38.7507 119.528 39.1334 119.155C39.516 118.772 40.006 118.581 40.6034 118.581C41.2007 118.581 41.686 118.772 42.0594 119.155C42.442 119.528 42.6334 120.037 42.6334 120.681C42.6334 121.315 42.442 121.824 42.0594 122.207C41.686 122.589 41.2007 122.781 40.6034 122.781C40.006 122.781 39.516 122.594 39.1334 122.221C38.7507 121.838 38.5594 121.325 38.5594 120.681ZM40.5894 119.379C40.272 119.379 40.02 119.491 39.8334 119.715C39.6467 119.929 39.5534 120.251 39.5534 120.681C39.5534 121.101 39.6467 121.423 39.8334 121.647C40.02 121.861 40.272 121.969 40.5894 121.969C40.9067 121.969 41.1587 121.861 41.3454 121.647C41.532 121.423 41.6254 121.101 41.6254 120.681C41.6254 120.251 41.532 119.929 41.3454 119.715C41.1587 119.491 40.9067 119.379 40.5894 119.379Z" fill="#5BCD88"/>
<defs>
<linearGradient id="paint0_linear_418_12298" x1="516.582" y1="103.096" x2="516.582" y2="-213.119" gradientUnits="userSpaceOnUse">
<stop stop-color="#369AFE" stop-opacity="0.01"/>
<stop offset="0.0001" stop-color="#5BCD88" stop-opacity="0"/>
<stop offset="1" stop-color="#5BCD88"/>
</linearGradient>
</defs>
</svg>
