<svg width="334" height="39" viewBox="0 0 334 39" fill="none" xmlns="http://www.w3.org/2000/svg">
<path d="M19.704 13.848C20.92 13.848 21.9707 14.0773 22.856 14.536C23.752 14.984 24.4347 15.6293 24.904 16.472C25.384 17.3147 25.624 18.3067 25.624 19.448C25.624 20.5893 25.384 21.5813 24.904 22.424C24.4347 23.256 23.752 23.896 22.856 24.344C21.9707 24.7813 20.92 25 19.704 25H16.232V13.848H19.704ZM19.704 23.8C21.144 23.8 22.2427 23.4213 23 22.664C23.7573 21.896 24.136 20.824 24.136 19.448C24.136 18.0613 23.752 16.9787 22.984 16.2C22.2267 15.4213 21.1333 15.032 19.704 15.032H17.688V23.8H19.704ZM27.0005 20.584C27.0005 19.688 27.1818 18.904 27.5445 18.232C27.9072 17.5493 28.4032 17.0213 29.0325 16.648C29.6725 16.2747 30.3818 16.088 31.1605 16.088C31.9285 16.088 32.5952 16.2533 33.1605 16.584C33.7258 16.9147 34.1472 17.3307 34.4245 17.832V16.232H35.8965V25H34.4245V23.368C34.1365 23.88 33.7045 24.3067 33.1285 24.648C32.5632 24.9787 31.9018 25.144 31.1445 25.144C30.3658 25.144 29.6618 24.952 29.0325 24.568C28.4032 24.184 27.9072 23.6453 27.5445 22.952C27.1818 22.2587 27.0005 21.4693 27.0005 20.584ZM34.4245 20.6C34.4245 19.9387 34.2912 19.3627 34.0245 18.872C33.7578 18.3813 33.3952 18.008 32.9365 17.752C32.4885 17.4853 31.9925 17.352 31.4485 17.352C30.9045 17.352 30.4085 17.48 29.9605 17.736C29.5125 17.992 29.1552 18.3653 28.8885 18.856C28.6218 19.3467 28.4885 19.9227 28.4885 20.584C28.4885 21.256 28.6218 21.8427 28.8885 22.344C29.1552 22.8347 29.5125 23.2133 29.9605 23.48C30.4085 23.736 30.9045 23.864 31.4485 23.864C31.9925 23.864 32.4885 23.736 32.9365 23.48C33.3952 23.2133 33.7578 22.8347 34.0245 22.344C34.2912 21.8427 34.4245 21.2613 34.4245 20.6ZM40.133 17.432V22.6C40.133 23.0267 40.2237 23.3307 40.405 23.512C40.5863 23.6827 40.901 23.768 41.349 23.768H42.421V25H41.109C40.2983 25 39.6903 24.8133 39.285 24.44C38.8797 24.0667 38.677 23.4533 38.677 22.6V17.432H37.541V16.232H38.677V14.024H40.133V16.232H42.421V17.432H40.133ZM43.6411 20.584C43.6411 19.688 43.8225 18.904 44.1851 18.232C44.5478 17.5493 45.0438 17.0213 45.6731 16.648C46.3131 16.2747 47.0225 16.088 47.8011 16.088C48.5691 16.088 49.2358 16.2533 49.8011 16.584C50.3665 16.9147 50.7878 17.3307 51.0651 17.832V16.232H52.5371V25H51.0651V23.368C50.7771 23.88 50.3451 24.3067 49.7691 24.648C49.2038 24.9787 48.5425 25.144 47.7851 25.144C47.0065 25.144 46.3025 24.952 45.6731 24.568C45.0438 24.184 44.5478 23.6453 44.1851 22.952C43.8225 22.2587 43.6411 21.4693 43.6411 20.584ZM51.0651 20.6C51.0651 19.9387 50.9318 19.3627 50.6651 18.872C50.3985 18.3813 50.0358 18.008 49.5771 17.752C49.1291 17.4853 48.6331 17.352 48.0891 17.352C47.5451 17.352 47.0491 17.48 46.6011 17.736C46.1531 17.992 45.7958 18.3653 45.5291 18.856C45.2625 19.3467 45.1291 19.9227 45.1291 20.584C45.1291 21.256 45.2625 21.8427 45.5291 22.344C45.7958 22.8347 46.1531 23.2133 46.6011 23.48C47.0491 23.736 47.5451 23.864 48.0891 23.864C48.6331 23.864 49.1291 23.736 49.5771 23.48C50.0358 23.2133 50.3985 22.8347 50.6651 22.344C50.9318 21.8427 51.0651 21.2613 51.0651 20.6ZM66.1273 13.848V15.032H63.0873V25H61.6313V15.032H58.5753V13.848H66.1273ZM75.4715 16.232L70.1915 29.128H68.6875L70.4155 24.904L66.8795 16.232H68.4955L71.2475 23.336L73.9675 16.232H75.4715ZM78.3911 17.848C78.6791 17.3467 79.1058 16.9307 79.6711 16.6C80.2471 16.2587 80.9138 16.088 81.6711 16.088C82.4498 16.088 83.1538 16.2747 83.7831 16.648C84.4231 17.0213 84.9245 17.5493 85.2871 18.232C85.6498 18.904 85.8311 19.688 85.8311 20.584C85.8311 21.4693 85.6498 22.2587 85.2871 22.952C84.9245 23.6453 84.4231 24.184 83.7831 24.568C83.1538 24.952 82.4498 25.144 81.6711 25.144C80.9245 25.144 80.2631 24.9787 79.6871 24.648C79.1218 24.3067 78.6898 23.8853 78.3911 23.384V29.16H76.9351V16.232H78.3911V17.848ZM84.3431 20.584C84.3431 19.9227 84.2098 19.3467 83.9431 18.856C83.6765 18.3653 83.3138 17.992 82.8551 17.736C82.4071 17.48 81.9111 17.352 81.3671 17.352C80.8338 17.352 80.3378 17.4853 79.8791 17.752C79.4311 18.008 79.0685 18.3867 78.7911 18.888C78.5245 19.3787 78.3911 19.9493 78.3911 20.6C78.3911 21.2613 78.5245 21.8427 78.7911 22.344C79.0685 22.8347 79.4311 23.2133 79.8791 23.48C80.3378 23.736 80.8338 23.864 81.3671 23.864C81.9111 23.864 82.4071 23.736 82.8551 23.48C83.3138 23.2133 83.6765 22.8347 83.9431 22.344C84.2098 21.8427 84.3431 21.256 84.3431 20.584ZM95.7476 20.28C95.7476 20.5573 95.7316 20.8507 95.6996 21.16H88.6916C88.745 22.024 89.0383 22.7013 89.5716 23.192C90.1156 23.672 90.7716 23.912 91.5396 23.912C92.169 23.912 92.6916 23.768 93.1076 23.48C93.5343 23.1813 93.833 22.7867 94.0036 22.296H95.5716C95.337 23.1387 94.8676 23.8267 94.1636 24.36C93.4596 24.8827 92.585 25.144 91.5396 25.144C90.7076 25.144 89.961 24.9573 89.2996 24.584C88.649 24.2107 88.137 23.6827 87.7636 23C87.3903 22.3067 87.2036 21.5067 87.2036 20.6C87.2036 19.6933 87.385 18.8987 87.7476 18.216C88.1103 17.5333 88.617 17.0107 89.2676 16.648C89.929 16.2747 90.6863 16.088 91.5396 16.088C92.3716 16.088 93.1076 16.2693 93.7476 16.632C94.3876 16.9947 94.8783 17.496 95.2196 18.136C95.5716 18.7653 95.7476 19.48 95.7476 20.28ZM94.2436 19.976C94.2436 19.4213 94.121 18.9467 93.8756 18.552C93.6303 18.1467 93.2943 17.8427 92.8676 17.64C92.4516 17.4267 91.9876 17.32 91.4756 17.32C90.7396 17.32 90.1103 17.5547 89.5876 18.024C89.0756 18.4933 88.7823 19.144 88.7076 19.976H94.2436Z" fill="#545C81"/>
<path d="M305.261 17.9478L309.232 21.4065L313.261 17.9478" stroke="#545C81" stroke-linecap="round" stroke-linejoin="round"/>
<rect x="0.5" y="0.5" width="332.19" height="38" rx="19" stroke="#545C81"/>
</svg>
