<svg width="1440" height="100" viewBox="0 0 1440 100" fill="none" xmlns="http://www.w3.org/2000/svg">
<g filter="url(#filter0_b_502_28672)">
<path d="M76.5023 68.5791C76.1485 68.5791 75.7908 68.4924 75.4688 68.3113C72.4042 66.6184 68.9342 64.4649 66.438 61.3704C64.7685 59.2995 63.2382 56.8231 63.3376 52.7365C63.4012 50.2049 65.3489 44.9766 70.9773 44.9766C73.6245 44.9766 75.3575 46.2089 76.5023 47.6774C77.647 46.2128 79.3801 44.9766 82.0273 44.9766C87.6557 44.9766 89.6034 50.2049 89.667 52.7365C89.7664 56.8231 88.236 59.2995 86.5666 61.3704C84.0704 64.4649 80.6004 66.6145 77.5358 68.3113C77.2138 68.4885 76.8561 68.5791 76.5023 68.5791ZM70.9773 49.1734C67.9087 49.1734 67.5748 52.8309 67.5708 52.8664C67.4993 55.7207 68.5605 57.2798 69.745 58.7522C71.5337 60.9688 73.9981 62.6302 76.4983 64.0672C78.9985 62.6302 81.4629 60.9688 83.2516 58.7522C84.4361 57.2837 85.4974 55.7247 85.4258 52.8388C85.4258 52.8309 85.088 49.1734 82.0234 49.1734C80.3817 49.1734 78.3983 52.2207 76.4983 52.2207C74.332 52.2207 72.6189 49.1734 70.9773 49.1734Z" fill="#6D64FF"/>
<path d="M120.158 55.2328H112.975V62.9612H108.356V44.1895H112.975V51.5438H120.158V44.1895H124.777V62.9652H120.158V55.2328Z" fill="#545C81"/>
<path d="M134.797 63.1786C130.369 63.1786 127.182 60.2377 127.182 55.5014C127.182 50.7691 130.314 47.8242 134.797 47.8242C139.198 47.8242 142.306 50.714 142.306 55.2573C142.306 55.6865 142.278 56.1392 142.226 56.5959H131.777C131.94 58.5487 133.152 59.4581 134.638 59.4581C135.934 59.4581 136.666 58.8164 137.043 58.0133H141.956C141.221 60.9306 138.55 63.1786 134.797 63.1786ZM131.8 54.0605H137.58C137.58 52.4305 136.284 51.4935 134.746 51.4935C133.231 51.4935 132.067 52.399 131.8 54.0605Z" fill="#545C81"/>
<path d="M150.458 47.8281C152.7 47.8281 154.294 48.8439 155.101 50.1549V48.0407H159.72V62.966H155.101V60.8518C154.262 62.1629 152.672 63.1786 150.431 63.1786C146.758 63.1786 143.816 60.1825 143.816 55.4778C143.816 50.773 146.762 47.8281 150.458 47.8281ZM151.81 51.8124C150.081 51.8124 148.515 53.0959 148.515 55.4778C148.515 57.8597 150.081 59.1943 151.81 59.1943C153.567 59.1943 155.105 57.8833 155.105 55.5014C155.105 53.1234 153.563 51.8124 151.81 51.8124Z" fill="#545C81"/>
<path d="M163.07 43.1738H167.689V62.9653H163.07V43.1738Z" fill="#545C81"/>
<path d="M171.767 51.8394H169.931V48.0402H171.767V44.4023H176.386V48.0402H179.411V51.8394H176.386V57.8316C176.386 58.7135 176.763 59.0875 177.789 59.0875H179.435V62.9654H177.085C173.953 62.9654 171.767 61.6544 171.767 57.7764V51.8394V51.8394Z" fill="#545C81"/>
<path d="M182.002 43.1738H186.621V50.0479C187.539 48.7644 189.185 47.8825 191.263 47.8825C194.694 47.8825 196.987 50.2369 196.987 54.2487V62.9692H192.396V54.8668C192.396 52.8353 191.263 51.7093 189.507 51.7093C187.75 51.7093 186.617 52.8314 186.617 54.8668V62.9692H181.998V43.1738H182.002Z" fill="#545C81"/>
<path d="M216.862 53.6865C216.862 59.4621 213.055 62.9661 206.87 62.9661H201.011V44.3242H206.87C213.055 44.3242 216.862 47.9069 216.862 53.6865ZM206.87 60.9582C211.783 60.9582 214.35 58.2298 214.35 53.6825C214.35 49.1353 211.783 46.3006 206.87 46.3006H203.467V60.9582H206.87V60.9582Z" fill="#545C81"/>
<path d="M231.228 58.8195H223.02L221.51 62.9652H218.918L225.723 44.4297H228.557L235.334 62.9652H232.742L231.228 58.8195ZM227.126 47.4258L223.724 56.8392H230.528L227.126 47.4258Z" fill="#545C81"/>
<path d="M246.837 63.1508C241.542 63.1508 237.385 59.2177 237.385 53.6272C237.385 48.0366 241.542 44.1074 246.837 44.1074C252.155 44.1074 256.289 48.0405 256.289 53.6272C256.289 59.2138 252.159 63.1508 246.837 63.1508ZM246.837 61.0406C250.808 61.0406 253.777 58.1784 253.777 53.6311C253.777 49.0563 250.808 46.2216 246.837 46.2216C242.866 46.2216 239.897 49.0563 239.897 53.6311C239.897 58.1784 242.87 61.0406 246.837 61.0406Z" fill="#545C81"/>
<path d="M59.3704 62.2592V48.2709C59.3704 47.9048 59.1716 47.5662 58.8536 47.3812L56.4846 46.0268C55.6976 45.578 54.7158 46.141 54.7158 47.0386V66.8537C54.7158 67.712 55.1769 68.5073 55.9281 68.9364L73.2545 78.842C74.0415 79.2908 75.0233 78.7278 75.0233 77.8301V75.1175C75.0233 74.7514 74.8246 74.4128 74.5066 74.2278L62.272 67.2395C60.4754 66.212 59.3704 64.3143 59.3704 62.2592Z" fill="#6D64FF"/>
<path d="M90.7316 67.2408L78.505 74.233C78.1831 74.418 77.9883 74.7566 77.9883 75.1228V77.8354C77.9883 78.737 78.9701 79.296 79.7571 78.8472L97.0835 68.9416C97.8347 68.5125 98.2958 67.7172 98.2958 66.8589V47.2407C98.2958 46.3785 97.3816 45.8116 96.5985 46.1895L94.2176 47.3391C93.8599 47.5124 93.6373 47.8706 93.6373 48.2604V62.2605C93.6333 64.3156 92.5283 66.2133 90.7316 67.2408Z" fill="#25CCDE"/>
<path d="M57.9633 43.4844L60.3324 44.8387C60.6543 45.0238 61.0478 45.0238 61.3698 44.8387L73.5964 37.8466C75.3931 36.819 77.607 36.819 79.4037 37.8466L91.6065 44.823C91.9046 44.9923 92.2703 45.008 92.5803 44.8584L95.1401 43.6222C95.629 43.386 95.8397 42.8938 95.784 42.4332H95.7999V39.2599H92.5962V40.067V42.4332H89.3925V39.2599H91.1851H92.5962V36.0867V32.9135H89.3925V36.0867H86.1887V36.4017V39.2599H82.985V36.0867H86.1887V32.9135H82.985V34.5709V36.0867H79.7813V32.9135H76.5776V31.2363V29.7441H73.3738V32.6418V32.9174H70.1701V34.4725V36.0867V39.2599H66.9664V36.3032V36.0867H63.7785V38.134V39.2599H60.5748H57.3711V42.4332H57.3751C57.3631 42.8387 57.5539 43.2521 57.9633 43.4844Z" fill="#6D64FF"/>
<path d="M63.7789 32.918H60.5752V36.0912H63.7789V32.918Z" fill="#25CCDE"/>
<path d="M70.1861 29.7441H66.9824V32.9174H70.1861V29.7441Z" fill="#6D64FF"/>
<path d="M82.5751 26.9844H80.2061V29.3308H82.5751V26.9844Z" fill="#6D64FF"/>
<path d="M79.0138 27.3418H77.3682V28.9717H79.0138V27.3418Z" fill="#25CCDE"/>
<path d="M76.1475 23.8379H73.8262V26.1371H76.1475V23.8379Z" fill="#6D64FF"/>
<path d="M79.0138 21H77.3682V22.6299H79.0138V21Z" fill="#25CCDE"/>
<path d="M1034.14 41.945C1033.49 41.571 1033.09 40.875 1033.1 40.125V40.122C1033.1 38.95 1032.16 38 1031 38C1029.84 38 1028.9 38.95 1028.9 40.122V40.125C1028.9 40.876 1028.51 41.571 1027.86 41.945C1023.2 44.657 1025.88 53.66 1021 55.251V57H1041V55.251C1036.12 53.66 1038.81 44.657 1034.14 41.945V41.945ZM1031 39C1031.55 39 1032 39.449 1032 40C1032 40.552 1031.55 41 1031 41C1030.45 41 1030 40.552 1030 40C1030 39.449 1030.45 39 1031 39ZM1034 59C1034 60.598 1032.61 62 1031.03 62C1029.45 62 1028 60.598 1028 59H1034Z" fill="#F2AC44"/>
<circle cx="1040.5" cy="40.5" r="2.5" fill="#EB5757"/>
<circle cx="1081.5" cy="50" r="20.5" fill="#545C81"/>
<path d="M1081.5 40.7734C1080.41 40.7734 1079.37 41.2054 1078.6 41.9743C1077.83 42.7432 1077.4 43.786 1077.4 44.8734C1077.4 45.9608 1077.83 47.0037 1078.6 47.7726C1079.37 48.5415 1080.41 48.9734 1081.5 48.9734C1082.59 48.9734 1083.63 48.5415 1084.4 47.7726C1085.17 47.0037 1085.6 45.9608 1085.6 44.8734C1085.6 43.786 1085.17 42.7432 1084.4 41.9743C1083.63 41.2054 1082.59 40.7734 1081.5 40.7734ZM1081.5 52.0484C1078.42 52.0484 1072.28 53.5941 1072.28 56.6609V58.1984C1072.28 58.7642 1072.73 59.2234 1073.3 59.2234H1089.7C1090.27 59.2234 1090.73 58.7642 1090.73 58.1984V56.6609C1090.73 53.5941 1084.58 52.0484 1081.5 52.0484Z" fill="#545C81"/>
<path d="M1117.31 34.832V41.744C1117.31 42.5013 1117.51 43.0827 1117.9 43.488C1118.3 43.8827 1118.85 44.08 1119.57 44.08C1120.29 44.08 1120.85 43.8827 1121.25 43.488C1121.64 43.0827 1121.84 42.5013 1121.84 41.744V34.832H1124.1V41.728C1124.1 42.6773 1123.89 43.4827 1123.47 44.144C1123.07 44.7947 1122.52 45.2853 1121.82 45.616C1121.14 45.9467 1120.38 46.112 1119.54 46.112C1118.7 46.112 1117.95 45.9467 1117.26 45.616C1116.59 45.2853 1116.06 44.7947 1115.66 44.144C1115.27 43.4827 1115.07 42.6773 1115.07 41.728V34.832H1117.31ZM1129.65 46.144C1128.93 46.144 1128.28 46.016 1127.7 45.76C1127.12 45.4933 1126.67 45.136 1126.32 44.688C1125.99 44.24 1125.81 43.744 1125.78 43.2H1128.04C1128.08 43.5413 1128.24 43.824 1128.53 44.048C1128.83 44.272 1129.2 44.384 1129.64 44.384C1130.06 44.384 1130.39 44.2987 1130.63 44.128C1130.87 43.9573 1131 43.7387 1131 43.472C1131 43.184 1130.85 42.9707 1130.55 42.832C1130.26 42.6827 1129.8 42.5227 1129.16 42.352C1128.49 42.192 1127.95 42.0267 1127.52 41.856C1127.11 41.6853 1126.75 41.424 1126.44 41.072C1126.14 40.72 1125.99 40.2453 1125.99 39.648C1125.99 39.1573 1126.13 38.7093 1126.4 38.304C1126.69 37.8987 1127.1 37.5787 1127.62 37.344C1128.15 37.1093 1128.78 36.992 1129.49 36.992C1130.55 36.992 1131.39 37.2587 1132.02 37.792C1132.65 38.3147 1133 39.024 1133.06 39.92H1130.92C1130.88 39.568 1130.73 39.2907 1130.47 39.088C1130.21 38.8747 1129.87 38.768 1129.43 38.768C1129.02 38.768 1128.71 38.8427 1128.48 38.992C1128.27 39.1413 1128.16 39.3493 1128.16 39.616C1128.16 39.9147 1128.31 40.144 1128.61 40.304C1128.91 40.4533 1129.37 40.608 1130 40.768C1130.64 40.928 1131.17 41.0933 1131.59 41.264C1132 41.4347 1132.36 41.7013 1132.66 42.064C1132.97 42.416 1133.13 42.8853 1133.14 43.472C1133.14 43.984 1133 44.4427 1132.71 44.848C1132.43 45.2533 1132.03 45.5733 1131.49 45.808C1130.97 46.032 1130.36 46.144 1129.65 46.144ZM1143.22 41.376C1143.22 41.696 1143.2 41.984 1143.16 42.24H1136.68C1136.73 42.88 1136.95 43.3813 1137.35 43.744C1137.74 44.1067 1138.23 44.288 1138.8 44.288C1139.64 44.288 1140.23 43.9307 1140.58 43.216H1143C1142.74 44.0693 1142.25 44.7733 1141.52 45.328C1140.8 45.872 1139.91 46.144 1138.85 46.144C1138 46.144 1137.23 45.9573 1136.55 45.584C1135.88 45.2 1135.35 44.6613 1134.96 43.968C1134.59 43.2747 1134.4 42.4747 1134.4 41.568C1134.4 40.6507 1134.59 39.8453 1134.96 39.152C1135.34 38.4587 1135.86 37.9253 1136.53 37.552C1137.2 37.1787 1137.98 36.992 1138.85 36.992C1139.69 36.992 1140.45 37.1733 1141.11 37.536C1141.78 37.8987 1142.3 38.416 1142.66 39.088C1143.03 39.7493 1143.22 40.512 1143.22 41.376ZM1140.9 40.736C1140.89 40.16 1140.68 39.7013 1140.28 39.36C1139.87 39.008 1139.37 38.832 1138.79 38.832C1138.23 38.832 1137.76 39.0027 1137.38 39.344C1137.01 39.6747 1136.78 40.1387 1136.69 40.736H1140.9ZM1147.09 38.512C1147.38 38.0427 1147.76 37.6747 1148.21 37.408C1148.68 37.1413 1149.22 37.008 1149.81 37.008V39.36H1149.22C1148.52 39.36 1147.98 39.5253 1147.62 39.856C1147.27 40.1867 1147.09 40.7627 1147.09 41.584V46H1144.85V37.136H1147.09V38.512ZM1156.23 37.008C1157.29 37.008 1158.14 37.344 1158.79 38.016C1159.45 38.6773 1159.77 39.6053 1159.77 40.8V46H1157.53V41.104C1157.53 40.4 1157.35 39.8613 1157 39.488C1156.65 39.104 1156.17 38.912 1155.56 38.912C1154.94 38.912 1154.45 39.104 1154.09 39.488C1153.74 39.8613 1153.56 40.4 1153.56 41.104V46H1151.32V37.136H1153.56V38.24C1153.86 37.856 1154.24 37.5573 1154.7 37.344C1155.17 37.12 1155.68 37.008 1156.23 37.008ZM1161.32 41.536C1161.32 40.64 1161.5 39.8453 1161.85 39.152C1162.22 38.4587 1162.7 37.9253 1163.31 37.552C1163.93 37.1787 1164.62 36.992 1165.37 36.992C1166.03 36.992 1166.61 37.1253 1167.1 37.392C1167.6 37.6587 1168 37.9947 1168.3 38.4V37.136H1170.56V46H1168.3V44.704C1168.01 45.12 1167.61 45.4667 1167.1 45.744C1166.6 46.0107 1166.02 46.144 1165.36 46.144C1164.61 46.144 1163.93 45.952 1163.31 45.568C1162.7 45.184 1162.22 44.6453 1161.85 43.952C1161.5 43.248 1161.32 42.4427 1161.32 41.536ZM1168.3 41.568C1168.3 41.024 1168.19 40.56 1167.98 40.176C1167.77 39.7813 1167.48 39.4827 1167.12 39.28C1166.75 39.0667 1166.36 38.96 1165.95 38.96C1165.53 38.96 1165.15 39.0613 1164.8 39.264C1164.44 39.4667 1164.16 39.7653 1163.93 40.16C1163.72 40.544 1163.61 41.0027 1163.61 41.536C1163.61 42.0693 1163.72 42.5387 1163.93 42.944C1164.16 43.3387 1164.44 43.6427 1164.8 43.856C1165.16 44.0693 1165.54 44.176 1165.95 44.176C1166.36 44.176 1166.75 44.0747 1167.12 43.872C1167.48 43.6587 1167.77 43.36 1167.98 42.976C1168.19 42.5813 1168.3 42.112 1168.3 41.568ZM1183.75 37.008C1184.84 37.008 1185.72 37.344 1186.38 38.016C1187.05 38.6773 1187.38 39.6053 1187.38 40.8V46H1185.14V41.104C1185.14 40.4107 1184.97 39.8827 1184.62 39.52C1184.26 39.1467 1183.78 38.96 1183.18 38.96C1182.57 38.96 1182.08 39.1467 1181.72 39.52C1181.37 39.8827 1181.19 40.4107 1181.19 41.104V46H1178.95V41.104C1178.95 40.4107 1178.78 39.8827 1178.42 39.52C1178.07 39.1467 1177.59 38.96 1176.98 38.96C1176.37 38.96 1175.88 39.1467 1175.51 39.52C1175.16 39.8827 1174.98 40.4107 1174.98 41.104V46H1172.74V37.136H1174.98V38.208C1175.27 37.8347 1175.64 37.5413 1176.09 37.328C1176.55 37.1147 1177.05 37.008 1177.59 37.008C1178.29 37.008 1178.9 37.1573 1179.45 37.456C1179.99 37.744 1180.41 38.16 1180.71 38.704C1181 38.192 1181.42 37.7813 1181.96 37.472C1182.52 37.1627 1183.11 37.008 1183.75 37.008ZM1197.75 41.376C1197.75 41.696 1197.73 41.984 1197.69 42.24H1191.21C1191.26 42.88 1191.48 43.3813 1191.88 43.744C1192.27 44.1067 1192.76 44.288 1193.33 44.288C1194.17 44.288 1194.76 43.9307 1195.11 43.216H1197.53C1197.27 44.0693 1196.78 44.7733 1196.05 45.328C1195.33 45.872 1194.44 46.144 1193.38 46.144C1192.53 46.144 1191.76 45.9573 1191.08 45.584C1190.41 45.2 1189.88 44.6613 1189.49 43.968C1189.12 43.2747 1188.93 42.4747 1188.93 41.568C1188.93 40.6507 1189.12 39.8453 1189.49 39.152C1189.87 38.4587 1190.39 37.9253 1191.06 37.552C1191.73 37.1787 1192.51 36.992 1193.38 36.992C1194.22 36.992 1194.98 37.1733 1195.64 37.536C1196.31 37.8987 1196.83 38.416 1197.19 39.088C1197.56 39.7493 1197.75 40.512 1197.75 41.376ZM1195.43 40.736C1195.42 40.16 1195.21 39.7013 1194.81 39.36C1194.4 39.008 1193.9 38.832 1193.32 38.832C1192.76 38.832 1192.29 39.0027 1191.91 39.344C1191.54 39.6747 1191.31 40.1387 1191.22 40.736H1195.43Z" fill="#545C81"/>
<path d="M1122.94 64C1122.9 63.9782 1122.83 63.9491 1122.77 63.9127C1121.57 63.2074 1120.39 62.5021 1119.19 61.7968C1118.99 61.6805 1118.94 61.5714 1119.07 61.3605C1120.34 59.2955 1121.59 57.216 1122.84 55.1364C1122.95 54.9473 1123.02 54.9619 1123.13 55.1364C1123.62 55.958 1124.12 56.7724 1124.62 57.5868C1125.37 58.8302 1126.12 60.0663 1126.87 61.3097C1127.06 61.6223 1127.06 61.6296 1126.74 61.8186C1125.58 62.5094 1124.42 63.1929 1123.26 63.8837C1123.17 63.9346 1123.09 64 1122.95 64H1122.94Z" fill="#545C81"/>
<path d="M1126.99 63.0394C1127.02 63.1656 1126.93 63.2366 1126.88 63.3154C1125.68 65.1056 1124.49 66.8878 1123.3 68.6779C1123.24 68.7489 1123.19 68.8199 1123.14 68.8988C1123.04 69.0486 1122.96 69.0249 1122.86 68.8751C1121.58 66.9746 1120.31 65.074 1119.04 63.1735C1119.01 63.1341 1118.99 63.0867 1119 63C1119.14 63.0789 1119.29 63.1577 1119.44 63.2445C1120.54 63.9384 1121.66 64.6324 1122.76 65.3343C1122.94 65.4526 1123.08 65.4447 1123.25 65.3343C1124.4 64.6088 1125.55 63.8911 1126.7 63.1735C1126.79 63.1183 1126.87 63.0394 1126.99 63.0473L1126.99 63.0394Z" fill="#545C81"/>
<path d="M1137.69 62.138C1137.69 60.6387 1137.96 59.4643 1138.5 58.615C1139.04 57.7657 1139.94 57.341 1141.2 57.341C1142.46 57.341 1143.35 57.7657 1143.89 58.615C1144.44 59.4643 1144.71 60.6387 1144.71 62.138C1144.71 63.646 1144.44 64.829 1143.89 65.687C1143.35 66.545 1142.46 66.974 1141.2 66.974C1139.94 66.974 1139.04 66.545 1138.5 65.687C1137.96 64.829 1137.69 63.646 1137.69 62.138ZM1142.92 62.138C1142.92 61.4967 1142.87 60.9593 1142.79 60.526C1142.71 60.084 1142.54 59.7243 1142.29 59.447C1142.05 59.1697 1141.68 59.031 1141.2 59.031C1140.71 59.031 1140.35 59.1697 1140.09 59.447C1139.85 59.7243 1139.69 60.084 1139.6 60.526C1139.52 60.9593 1139.48 61.4967 1139.48 62.138C1139.48 62.7967 1139.52 63.3513 1139.6 63.802C1139.68 64.244 1139.84 64.6037 1140.09 64.881C1140.35 65.1497 1140.71 65.284 1141.2 65.284C1141.68 65.284 1142.05 65.1497 1142.3 64.881C1142.56 64.6037 1142.72 64.244 1142.8 63.802C1142.88 63.3513 1142.92 62.7967 1142.92 62.138ZM1148.29 65.089L1146.77 68.742H1145.6L1146.44 65.089H1148.29ZM1149.39 62.138C1149.39 60.6387 1149.66 59.4643 1150.2 58.615C1150.75 57.7657 1151.65 57.341 1152.9 57.341C1154.16 57.341 1155.06 57.7657 1155.6 58.615C1156.14 59.4643 1156.41 60.6387 1156.41 62.138C1156.41 63.646 1156.14 64.829 1155.6 65.687C1155.06 66.545 1154.16 66.974 1152.9 66.974C1151.65 66.974 1150.75 66.545 1150.2 65.687C1149.66 64.829 1149.39 63.646 1149.39 62.138ZM1154.62 62.138C1154.62 61.4967 1154.58 60.9593 1154.49 60.526C1154.41 60.084 1154.25 59.7243 1154 59.447C1153.75 59.1697 1153.39 59.031 1152.9 59.031C1152.42 59.031 1152.05 59.1697 1151.8 59.447C1151.56 59.7243 1151.39 60.084 1151.31 60.526C1151.23 60.9593 1151.19 61.4967 1151.19 62.138C1151.19 62.7967 1151.23 63.3513 1151.31 63.802C1151.38 64.244 1151.55 64.6037 1151.8 64.881C1152.05 65.1497 1152.42 65.284 1152.9 65.284C1153.39 65.284 1153.76 65.1497 1154.01 64.881C1154.26 64.6037 1154.43 64.244 1154.5 63.802C1154.58 63.3513 1154.62 62.7967 1154.62 62.138Z" fill="#545C81"/>
<path d="M1172.41 64.1406L1172.04 66.9706H1170.38L1172.08 56.3906H1174.39L1176.16 66.9706H1174.45L1174.03 64.1406H1172.4H1172.41ZM1173.85 62.6406C1173.61 60.8406 1173.38 59.1406 1173.26 57.9406H1173.2C1173.15 58.8106 1172.84 61.0806 1172.63 62.6406H1173.86H1173.85Z" fill="#545C81"/>
<path d="M1176.94 56.3906H1178.57V60.5706H1180.33V56.3906H1181.96V66.9706H1180.33V62.0706H1178.57V66.9706H1176.94V56.3906V56.3906Z" fill="#545C81"/>
<path d="M1184.38 57.9104H1182.68V56.4004H1187.72V57.9104H1186.01V66.9704H1184.38V57.9104V57.9104Z" fill="#545C81"/>
<path d="M1193.69 62.138C1193.69 60.6387 1193.96 59.4643 1194.5 58.615C1195.04 57.7657 1195.94 57.341 1197.2 57.341C1198.46 57.341 1199.35 57.7657 1199.89 58.615C1200.44 59.4643 1200.71 60.6387 1200.71 62.138C1200.71 63.646 1200.44 64.829 1199.89 65.687C1199.35 66.545 1198.46 66.974 1197.2 66.974C1195.94 66.974 1195.04 66.545 1194.5 65.687C1193.96 64.829 1193.69 63.646 1193.69 62.138ZM1198.92 62.138C1198.92 61.4967 1198.87 60.9593 1198.79 60.526C1198.71 60.084 1198.54 59.7243 1198.29 59.447C1198.05 59.1697 1197.68 59.031 1197.2 59.031C1196.71 59.031 1196.35 59.1697 1196.09 59.447C1195.85 59.7243 1195.69 60.084 1195.6 60.526C1195.52 60.9593 1195.48 61.4967 1195.48 62.138C1195.48 62.7967 1195.52 63.3513 1195.6 63.802C1195.68 64.244 1195.84 64.6037 1196.09 64.881C1196.35 65.1497 1196.71 65.284 1197.2 65.284C1197.68 65.284 1198.05 65.1497 1198.3 64.881C1198.56 64.6037 1198.72 64.244 1198.8 63.802C1198.88 63.3513 1198.92 62.7967 1198.92 62.138ZM1204.29 65.089L1202.77 68.742H1201.6L1202.44 65.089H1204.29ZM1205.39 62.138C1205.39 60.6387 1205.66 59.4643 1206.2 58.615C1206.75 57.7657 1207.65 57.341 1208.9 57.341C1210.16 57.341 1211.06 57.7657 1211.6 58.615C1212.14 59.4643 1212.41 60.6387 1212.41 62.138C1212.41 63.646 1212.14 64.829 1211.6 65.687C1211.06 66.545 1210.16 66.974 1208.9 66.974C1207.65 66.974 1206.75 66.545 1206.2 65.687C1205.66 64.829 1205.39 63.646 1205.39 62.138ZM1210.62 62.138C1210.62 61.4967 1210.58 60.9593 1210.49 60.526C1210.41 60.084 1210.25 59.7243 1210 59.447C1209.75 59.1697 1209.39 59.031 1208.9 59.031C1208.42 59.031 1208.05 59.1697 1207.8 59.447C1207.56 59.7243 1207.39 60.084 1207.31 60.526C1207.23 60.9593 1207.19 61.4967 1207.19 62.138C1207.19 62.7967 1207.23 63.3513 1207.31 63.802C1207.38 64.244 1207.55 64.6037 1207.8 64.881C1208.05 65.1497 1208.42 65.284 1208.9 65.284C1209.39 65.284 1209.76 65.1497 1210.01 64.881C1210.26 64.6037 1210.43 64.244 1210.5 63.802C1210.58 63.3513 1210.62 62.7967 1210.62 62.138Z" fill="#545C81"/>
<rect x="1276" y="27" width="132" height="46" rx="20" fill="#6D64FF"/>
<path d="M1315.95 44.348V51.404C1315.95 52.396 1316.19 53.132 1316.67 53.612C1317.16 54.092 1317.84 54.332 1318.7 54.332C1319.56 54.332 1320.22 54.092 1320.7 53.612C1321.2 53.132 1321.44 52.396 1321.44 51.404V44.348H1322.9V51.388C1322.9 52.316 1322.71 53.1 1322.34 53.74C1321.96 54.3693 1321.46 54.8387 1320.82 55.148C1320.19 55.4573 1319.48 55.612 1318.69 55.612C1317.9 55.612 1317.18 55.4573 1316.54 55.148C1315.92 54.8387 1315.41 54.3693 1315.04 53.74C1314.68 53.1 1314.5 52.316 1314.5 51.388V44.348H1315.95ZM1326.78 48.348C1327.07 47.8467 1327.5 47.4307 1328.06 47.1C1328.64 46.7587 1329.3 46.588 1330.06 46.588C1330.84 46.588 1331.54 46.7747 1332.17 47.148C1332.81 47.5213 1333.32 48.0493 1333.68 48.732C1334.04 49.404 1334.22 50.188 1334.22 51.084C1334.22 51.9693 1334.04 52.7587 1333.68 53.452C1333.32 54.1453 1332.81 54.684 1332.17 55.068C1331.54 55.452 1330.84 55.644 1330.06 55.644C1329.32 55.644 1328.65 55.4787 1328.08 55.148C1327.51 54.8067 1327.08 54.3853 1326.78 53.884V59.66H1325.33V46.732H1326.78V48.348ZM1332.73 51.084C1332.73 50.4227 1332.6 49.8467 1332.33 49.356C1332.07 48.8653 1331.7 48.492 1331.25 48.236C1330.8 47.98 1330.3 47.852 1329.76 47.852C1329.22 47.852 1328.73 47.9853 1328.27 48.252C1327.82 48.508 1327.46 48.8867 1327.18 49.388C1326.92 49.8787 1326.78 50.4493 1326.78 51.1C1326.78 51.7613 1326.92 52.3427 1327.18 52.844C1327.46 53.3347 1327.82 53.7133 1328.27 53.98C1328.73 54.236 1329.22 54.364 1329.76 54.364C1330.3 54.364 1330.8 54.236 1331.25 53.98C1331.7 53.7133 1332.07 53.3347 1332.33 52.844C1332.6 52.3427 1332.73 51.756 1332.73 51.084ZM1337.59 43.66V55.5H1336.14V43.66H1337.59ZM1343.9 55.644C1343.08 55.644 1342.33 55.4573 1341.66 55.084C1341 54.7107 1340.48 54.1827 1340.09 53.5C1339.72 52.8067 1339.53 52.0067 1339.53 51.1C1339.53 50.204 1339.72 49.4147 1340.11 48.732C1340.5 48.0387 1341.04 47.5107 1341.71 47.148C1342.38 46.7747 1343.13 46.588 1343.96 46.588C1344.8 46.588 1345.55 46.7747 1346.22 47.148C1346.89 47.5107 1347.42 48.0333 1347.8 48.716C1348.2 49.3987 1348.4 50.1933 1348.4 51.1C1348.4 52.0067 1348.19 52.8067 1347.79 53.5C1347.39 54.1827 1346.85 54.7107 1346.17 55.084C1345.49 55.4573 1344.73 55.644 1343.9 55.644ZM1343.9 54.364C1344.42 54.364 1344.91 54.2413 1345.37 53.996C1345.83 53.7507 1346.2 53.3827 1346.48 52.892C1346.76 52.4013 1346.91 51.804 1346.91 51.1C1346.91 50.396 1346.77 49.7987 1346.49 49.308C1346.21 48.8173 1345.85 48.4547 1345.4 48.22C1344.96 47.9747 1344.47 47.852 1343.95 47.852C1343.41 47.852 1342.92 47.9747 1342.48 48.22C1342.04 48.4547 1341.69 48.8173 1341.42 49.308C1341.15 49.7987 1341.02 50.396 1341.02 51.1C1341.02 51.8147 1341.15 52.4173 1341.4 52.908C1341.67 53.3987 1342.02 53.7667 1342.46 54.012C1342.9 54.2467 1343.38 54.364 1343.9 54.364ZM1349.77 51.084C1349.77 50.188 1349.95 49.404 1350.31 48.732C1350.67 48.0493 1351.17 47.5213 1351.8 47.148C1352.44 46.7747 1353.15 46.588 1353.93 46.588C1354.69 46.588 1355.36 46.7533 1355.93 47.084C1356.49 47.4147 1356.91 47.8307 1357.19 48.332V46.732H1358.66V55.5H1357.19V53.868C1356.9 54.38 1356.47 54.8067 1355.89 55.148C1355.33 55.4787 1354.67 55.644 1353.91 55.644C1353.13 55.644 1352.43 55.452 1351.8 55.068C1351.17 54.684 1350.67 54.1453 1350.31 53.452C1349.95 52.7587 1349.77 51.9693 1349.77 51.084ZM1357.19 51.1C1357.19 50.4387 1357.06 49.8627 1356.79 49.372C1356.52 48.8813 1356.16 48.508 1355.7 48.252C1355.25 47.9853 1354.76 47.852 1354.21 47.852C1353.67 47.852 1353.17 47.98 1352.73 48.236C1352.28 48.492 1351.92 48.8653 1351.65 49.356C1351.39 49.8467 1351.25 50.4227 1351.25 51.084C1351.25 51.756 1351.39 52.3427 1351.65 52.844C1351.92 53.3347 1352.28 53.7133 1352.73 53.98C1353.17 54.236 1353.67 54.364 1354.21 54.364C1354.76 54.364 1355.25 54.236 1355.7 53.98C1356.16 53.7133 1356.52 53.3347 1356.79 52.844C1357.06 52.3427 1357.19 51.7613 1357.19 51.1ZM1360.58 51.084C1360.58 50.188 1360.76 49.404 1361.12 48.732C1361.49 48.0493 1361.98 47.5213 1362.61 47.148C1363.25 46.7747 1363.97 46.588 1364.75 46.588C1365.44 46.588 1366.07 46.748 1366.66 47.068C1367.25 47.3773 1367.69 47.788 1368 48.3V43.66H1369.47V55.5H1368V53.852C1367.71 54.3747 1367.29 54.8067 1366.72 55.148C1366.16 55.4787 1365.5 55.644 1364.74 55.644C1363.96 55.644 1363.25 55.452 1362.61 55.068C1361.98 54.684 1361.49 54.1453 1361.12 53.452C1360.76 52.7587 1360.58 51.9693 1360.58 51.084ZM1368 51.1C1368 50.4387 1367.87 49.8627 1367.6 49.372C1367.34 48.8813 1366.97 48.508 1366.51 48.252C1366.07 47.9853 1365.57 47.852 1365.03 47.852C1364.48 47.852 1363.99 47.98 1363.54 48.236C1363.09 48.492 1362.73 48.8653 1362.47 49.356C1362.2 49.8467 1362.07 50.4227 1362.07 51.084C1362.07 51.756 1362.2 52.3427 1362.47 52.844C1362.73 53.3347 1363.09 53.7133 1363.54 53.98C1363.99 54.236 1364.48 54.364 1365.03 54.364C1365.57 54.364 1366.07 54.236 1366.51 53.98C1366.97 53.7133 1367.34 53.3347 1367.6 52.844C1367.87 52.3427 1368 51.7613 1368 51.1Z" fill="white"/>
</g>
<defs>
<filter id="filter0_b_502_28672" x="-10" y="-10" width="1460" height="120" filterUnits="userSpaceOnUse" color-interpolation-filters="sRGB">
<feFlood flood-opacity="0" result="BackgroundImageFix"/>
<feGaussianBlur in="BackgroundImageFix" stdDeviation="5"/>
<feComposite in2="SourceAlpha" operator="in" result="effect1_backgroundBlur_502_28672"/>
<feBlend mode="normal" in="SourceGraphic" in2="effect1_backgroundBlur_502_28672" result="shape"/>
</filter>
</defs>
</svg>
