<svg width="300" height="1464" viewBox="0 0 300 1464" fill="none" xmlns="http://www.w3.org/2000/svg">
<path d="M0 0H280C291.046 0 300 8.95431 300 20V1464H0V0Z" fill="white"/>
<path d="M38 45C32.477 45 28 49.477 28 55C28 60.523 32.477 65 38 65C43.523 65 48 60.523 48 55C48 49.477 43.523 45 38 45ZM42.916 49.5332C43.2805 49.4908 43.5942 49.8721 43.4219 50.2422L40.498 56.5273C40.299 56.9553 39.9553 57.299 39.5273 57.498L33.2422 60.4219C32.8192 60.6189 32.3811 60.1808 32.5781 59.7578L35.502 53.4727C35.701 53.0457 36.0447 52.701 36.4727 52.502L42.7578 49.5781C42.8107 49.5535 42.8639 49.5393 42.916 49.5332ZM38 53.9004C37.39 53.9004 36.9004 54.39 36.9004 55C36.9004 55.61 37.39 56.0996 38 56.0996C38.61 56.0996 39.0996 55.61 39.0996 55C39.0996 54.39 38.61 53.9004 38 53.9004Z" fill="#808080"/>
<path d="M62.228 51.27C63.264 51.27 64.1693 51.4707 64.944 51.872C65.728 52.264 66.33 52.8333 66.75 53.58C67.1793 54.3173 67.394 55.1807 67.394 56.17C67.394 57.1593 67.1793 58.018 66.75 58.746C66.33 59.474 65.728 60.034 64.944 60.426C64.1693 60.8087 63.264 61 62.228 61H59.05V51.27H62.228ZM62.228 59.698C63.3667 59.698 64.2393 59.39 64.846 58.774C65.4527 58.158 65.756 57.29 65.756 56.17C65.756 55.0407 65.4527 54.1587 64.846 53.524C64.2393 52.8893 63.3667 52.572 62.228 52.572H60.646V59.698H62.228ZM69.7878 52.264C69.4984 52.264 69.2558 52.166 69.0598 51.97C68.8638 51.774 68.7658 51.5313 68.7658 51.242C68.7658 50.9527 68.8638 50.71 69.0598 50.514C69.2558 50.318 69.4984 50.22 69.7878 50.22C70.0678 50.22 70.3058 50.318 70.5018 50.514C70.6978 50.71 70.7958 50.9527 70.7958 51.242C70.7958 51.5313 70.6978 51.774 70.5018 51.97C70.3058 52.166 70.0678 52.264 69.7878 52.264ZM70.5718 53.286V61H68.9758V53.286H70.5718ZM75.4672 61.126C74.8605 61.126 74.3145 61.0187 73.8292 60.804C73.3532 60.58 72.9752 60.2813 72.6952 59.908C72.4152 59.5253 72.2659 59.1007 72.2472 58.634H73.8992C73.9272 58.9607 74.0812 59.236 74.3612 59.46C74.6505 59.6747 75.0099 59.782 75.4392 59.782C75.8872 59.782 76.2325 59.698 76.4752 59.53C76.7272 59.3527 76.8532 59.1287 76.8532 58.858C76.8532 58.5687 76.7132 58.354 76.4332 58.214C76.1625 58.074 75.7285 57.92 75.1312 57.752C74.5525 57.5933 74.0812 57.4393 73.7172 57.29C73.3532 57.1407 73.0359 56.912 72.7652 56.604C72.5039 56.296 72.3732 55.89 72.3732 55.386C72.3732 54.9753 72.4945 54.602 72.7372 54.266C72.9799 53.9207 73.3252 53.65 73.7732 53.454C74.2305 53.258 74.7532 53.16 75.3412 53.16C76.2185 53.16 76.9232 53.384 77.4552 53.832C77.9965 54.2707 78.2859 54.8727 78.3232 55.638H76.7272C76.6992 55.2927 76.5592 55.0173 76.3072 54.812C76.0552 54.6067 75.7145 54.504 75.2852 54.504C74.8652 54.504 74.5432 54.5833 74.3192 54.742C74.0952 54.9007 73.9832 55.1107 73.9832 55.372C73.9832 55.5773 74.0579 55.75 74.2072 55.89C74.3565 56.03 74.5385 56.142 74.7532 56.226C74.9679 56.3007 75.2852 56.3987 75.7052 56.52C76.2652 56.6693 76.7225 56.8233 77.0772 56.982C77.4412 57.1313 77.7539 57.3553 78.0152 57.654C78.2765 57.9527 78.4119 58.3493 78.4212 58.844C78.4212 59.2827 78.2999 59.6747 78.0572 60.02C77.8145 60.3653 77.4692 60.636 77.0212 60.832C76.5825 61.028 76.0645 61.126 75.4672 61.126ZM79.6137 57.136C79.6137 56.3427 79.7724 55.6473 80.0897 55.05C80.4164 54.4433 80.8644 53.9767 81.4337 53.65C82.003 53.3233 82.6564 53.16 83.3937 53.16C84.327 53.16 85.097 53.384 85.7037 53.832C86.3197 54.2707 86.735 54.9007 86.9497 55.722H85.2277C85.0877 55.3393 84.8637 55.0407 84.5557 54.826C84.2477 54.6113 83.8604 54.504 83.3937 54.504C82.7404 54.504 82.2177 54.7373 81.8257 55.204C81.443 55.6613 81.2517 56.3053 81.2517 57.136C81.2517 57.9667 81.443 58.6153 81.8257 59.082C82.2177 59.5487 82.7404 59.782 83.3937 59.782C84.3177 59.782 84.929 59.376 85.2277 58.564H86.9497C86.7257 59.348 86.3057 59.9733 85.6897 60.44C85.0737 60.8973 84.3084 61.126 83.3937 61.126C82.6564 61.126 82.003 60.9627 81.4337 60.636C80.8644 60.3 80.4164 59.8333 80.0897 59.236C79.7724 58.6293 79.6137 57.9293 79.6137 57.136ZM91.8862 61.126C91.1582 61.126 90.5002 60.9627 89.9122 60.636C89.3242 60.3 88.8622 59.8333 88.5262 59.236C88.1902 58.6293 88.0222 57.9293 88.0222 57.136C88.0222 56.352 88.1949 55.6567 88.5402 55.05C88.8856 54.4433 89.3569 53.9767 89.9542 53.65C90.5516 53.3233 91.2189 53.16 91.9562 53.16C92.6936 53.16 93.3609 53.3233 93.9582 53.65C94.5556 53.9767 95.0269 54.4433 95.3722 55.05C95.7176 55.6567 95.8902 56.352 95.8902 57.136C95.8902 57.92 95.7129 58.6153 95.3582 59.222C95.0036 59.8287 94.5182 60.3 93.9022 60.636C93.2956 60.9627 92.6236 61.126 91.8862 61.126ZM91.8862 59.74C92.2969 59.74 92.6796 59.642 93.0342 59.446C93.3982 59.25 93.6922 58.956 93.9162 58.564C94.1402 58.172 94.2522 57.696 94.2522 57.136C94.2522 56.576 94.1449 56.1047 93.9302 55.722C93.7156 55.33 93.4309 55.036 93.0762 54.84C92.7216 54.644 92.3389 54.546 91.9282 54.546C91.5176 54.546 91.1349 54.644 90.7802 54.84C90.4349 55.036 90.1596 55.33 89.9542 55.722C89.7489 56.1047 89.6462 56.576 89.6462 57.136C89.6462 57.9667 89.8562 58.6107 90.2762 59.068C90.7056 59.516 91.2422 59.74 91.8862 59.74ZM100.45 59.572L102.634 53.286H104.328L101.388 61H99.484L96.558 53.286H98.266L100.45 59.572ZM112.604 56.954C112.604 57.2433 112.586 57.5047 112.548 57.738H106.654C106.701 58.354 106.93 58.8487 107.34 59.222C107.751 59.5953 108.255 59.782 108.852 59.782C109.711 59.782 110.318 59.4227 110.672 58.704H112.394C112.161 59.4133 111.736 59.9967 111.12 60.454C110.514 60.902 109.758 61.126 108.852 61.126C108.115 61.126 107.452 60.9627 106.864 60.636C106.286 60.3 105.828 59.8333 105.492 59.236C105.166 58.6293 105.002 57.9293 105.002 57.136C105.002 56.3427 105.161 55.6473 105.478 55.05C105.805 54.4433 106.258 53.9767 106.836 53.65C107.424 53.3233 108.096 53.16 108.852 53.16C109.58 53.16 110.229 53.3187 110.798 53.636C111.368 53.9533 111.811 54.4013 112.128 54.98C112.446 55.5493 112.604 56.2073 112.604 56.954ZM110.938 56.45C110.929 55.862 110.719 55.3907 110.308 55.036C109.898 54.6813 109.389 54.504 108.782 54.504C108.232 54.504 107.76 54.6813 107.368 55.036C106.976 55.3813 106.743 55.8527 106.668 56.45H110.938ZM115.771 54.406C116.004 54.014 116.312 53.7107 116.695 53.496C117.087 53.272 117.549 53.16 118.081 53.16V54.812H117.675C117.05 54.812 116.574 54.9707 116.247 55.288C115.93 55.6053 115.771 56.156 115.771 56.94V61H114.175V53.286H115.771V54.406Z" fill="#808080"/>
<path d="M261.071 53.4478L265.043 56.9065L269.071 53.4478" stroke="#808080" stroke-linecap="round" stroke-linejoin="round"/>
<path d="M14 90H286" stroke="#D2D5E1" stroke-miterlimit="10"/>
<rect x="14" y="102" width="272" height="46" rx="20" fill="#6D64FF" fill-opacity="0.2"/>
<path d="M40.2997 116.1H35.8297C35.1946 116.1 34.6797 116.615 34.6797 117.25V121.72C34.6797 122.355 35.1946 122.87 35.8297 122.87H40.2997C40.9348 122.87 41.4497 122.355 41.4497 121.72V117.25C41.4497 116.615 40.9348 116.1 40.2997 116.1Z" stroke="#6D64FF" stroke-miterlimit="10"/>
<path d="M51.33 116.1H46.86C46.2248 116.1 45.71 116.615 45.71 117.25V121.72C45.71 122.355 46.2248 122.87 46.86 122.87H51.33C51.9651 122.87 52.48 122.355 52.48 121.72V117.25C52.48 116.615 51.9651 116.1 51.33 116.1Z" stroke="#6D64FF" stroke-miterlimit="10"/>
<path d="M40.2997 127.13H35.8297C35.1946 127.13 34.6797 127.645 34.6797 128.28V132.75C34.6797 133.385 35.1946 133.9 35.8297 133.9H40.2997C40.9348 133.9 41.4497 133.385 41.4497 132.75V128.28C41.4497 127.645 40.9348 127.13 40.2997 127.13Z" stroke="#6D64FF" stroke-miterlimit="10"/>
<path d="M51.33 127.13H46.86C46.2248 127.13 45.71 127.645 45.71 128.28V132.75C45.71 133.385 46.2248 133.9 46.86 133.9H51.33C51.9651 133.9 52.48 133.385 52.48 132.75V128.28C52.48 127.645 51.9651 127.13 51.33 127.13Z" stroke="#6D64FF" stroke-miterlimit="10"/>
<path d="M67.228 121.27C68.264 121.27 69.1693 121.471 69.944 121.872C70.728 122.264 71.33 122.833 71.75 123.58C72.1793 124.317 72.394 125.181 72.394 126.17C72.394 127.159 72.1793 128.018 71.75 128.746C71.33 129.474 70.728 130.034 69.944 130.426C69.1693 130.809 68.264 131 67.228 131H64.05V121.27H67.228ZM67.228 129.698C68.3667 129.698 69.2393 129.39 69.846 128.774C70.4527 128.158 70.756 127.29 70.756 126.17C70.756 125.041 70.4527 124.159 69.846 123.524C69.2393 122.889 68.3667 122.572 67.228 122.572H65.646V129.698H67.228ZM73.4438 127.108C73.4438 126.333 73.6024 125.647 73.9198 125.05C74.2464 124.453 74.6851 123.991 75.2358 123.664C75.7958 123.328 76.4118 123.16 77.0838 123.16C77.6904 123.16 78.2178 123.281 78.6658 123.524C79.1231 123.757 79.4871 124.051 79.7578 124.406V123.286H81.3678V131H79.7578V129.852C79.4871 130.216 79.1184 130.519 78.6518 130.762C78.1851 131.005 77.6531 131.126 77.0558 131.126C76.3931 131.126 75.7864 130.958 75.2358 130.622C74.6851 130.277 74.2464 129.801 73.9198 129.194C73.6024 128.578 73.4438 127.883 73.4438 127.108ZM79.7578 127.136C79.7578 126.604 79.6458 126.142 79.4218 125.75C79.2071 125.358 78.9224 125.059 78.5678 124.854C78.2131 124.649 77.8304 124.546 77.4198 124.546C77.0091 124.546 76.6264 124.649 76.2718 124.854C75.9171 125.05 75.6278 125.344 75.4038 125.736C75.1891 126.119 75.0818 126.576 75.0818 127.108C75.0818 127.64 75.1891 128.107 75.4038 128.508C75.6278 128.909 75.9171 129.217 76.2718 129.432C76.6358 129.637 77.0184 129.74 77.4198 129.74C77.8304 129.74 78.2131 129.637 78.5678 129.432C78.9224 129.227 79.2071 128.928 79.4218 128.536C79.6458 128.135 79.7578 127.668 79.7578 127.136ZM86.2641 131.126C85.6574 131.126 85.1114 131.019 84.6261 130.804C84.1501 130.58 83.7721 130.281 83.4921 129.908C83.2121 129.525 83.0627 129.101 83.0441 128.634H84.6961C84.7241 128.961 84.8781 129.236 85.1581 129.46C85.4474 129.675 85.8067 129.782 86.2361 129.782C86.6841 129.782 87.0294 129.698 87.2721 129.53C87.5241 129.353 87.6501 129.129 87.6501 128.858C87.6501 128.569 87.5101 128.354 87.2301 128.214C86.9594 128.074 86.5254 127.92 85.9281 127.752C85.3494 127.593 84.8781 127.439 84.5141 127.29C84.1501 127.141 83.8327 126.912 83.5621 126.604C83.3007 126.296 83.1701 125.89 83.1701 125.386C83.1701 124.975 83.2914 124.602 83.5341 124.266C83.7767 123.921 84.1221 123.65 84.5701 123.454C85.0274 123.258 85.5501 123.16 86.1381 123.16C87.0154 123.16 87.7201 123.384 88.2521 123.832C88.7934 124.271 89.0827 124.873 89.1201 125.638H87.5241C87.4961 125.293 87.3561 125.017 87.1041 124.812C86.8521 124.607 86.5114 124.504 86.0821 124.504C85.6621 124.504 85.3401 124.583 85.1161 124.742C84.8921 124.901 84.7801 125.111 84.7801 125.372C84.7801 125.577 84.8547 125.75 85.0041 125.89C85.1534 126.03 85.3354 126.142 85.5501 126.226C85.7647 126.301 86.0821 126.399 86.5021 126.52C87.0621 126.669 87.5194 126.823 87.8741 126.982C88.2381 127.131 88.5507 127.355 88.8121 127.654C89.0734 127.953 89.2087 128.349 89.2181 128.844C89.2181 129.283 89.0967 129.675 88.8541 130.02C88.6114 130.365 88.2661 130.636 87.8181 130.832C87.3794 131.028 86.8614 131.126 86.2641 131.126ZM94.9326 123.16C95.5206 123.16 96.0432 123.286 96.5006 123.538C96.9672 123.79 97.3312 124.163 97.5926 124.658C97.8632 125.153 97.9986 125.75 97.9986 126.45V131H96.4166V126.688C96.4166 125.997 96.2439 125.47 95.8986 125.106C95.5532 124.733 95.0819 124.546 94.4846 124.546C93.8872 124.546 93.4112 124.733 93.0566 125.106C92.7112 125.47 92.5386 125.997 92.5386 126.688V131H90.9426V120.64H92.5386V124.182C92.8092 123.855 93.1499 123.603 93.5606 123.426C93.9806 123.249 94.4379 123.16 94.9326 123.16ZM101.63 124.434C101.901 124.061 102.27 123.757 102.736 123.524C103.212 123.281 103.74 123.16 104.318 123.16C105 123.16 105.616 123.323 106.166 123.65C106.717 123.977 107.151 124.443 107.468 125.05C107.786 125.647 107.944 126.333 107.944 127.108C107.944 127.883 107.786 128.578 107.468 129.194C107.151 129.801 106.712 130.277 106.152 130.622C105.602 130.958 104.99 131.126 104.318 131.126C103.721 131.126 103.189 131.009 102.722 130.776C102.265 130.543 101.901 130.244 101.63 129.88V131H100.034V120.64H101.63V124.434ZM106.32 127.108C106.32 126.576 106.208 126.119 105.984 125.736C105.77 125.344 105.48 125.05 105.116 124.854C104.762 124.649 104.379 124.546 103.968 124.546C103.567 124.546 103.184 124.649 102.82 124.854C102.466 125.059 102.176 125.358 101.952 125.75C101.738 126.142 101.63 126.604 101.63 127.136C101.63 127.668 101.738 128.135 101.952 128.536C102.176 128.928 102.466 129.227 102.82 129.432C103.184 129.637 103.567 129.74 103.968 129.74C104.379 129.74 104.762 129.637 105.116 129.432C105.48 129.217 105.77 128.909 105.984 128.508C106.208 128.107 106.32 127.64 106.32 127.108ZM112.869 131.126C112.141 131.126 111.483 130.963 110.895 130.636C110.307 130.3 109.845 129.833 109.509 129.236C109.173 128.629 109.005 127.929 109.005 127.136C109.005 126.352 109.177 125.657 109.523 125.05C109.868 124.443 110.339 123.977 110.937 123.65C111.534 123.323 112.201 123.16 112.939 123.16C113.676 123.16 114.343 123.323 114.941 123.65C115.538 123.977 116.009 124.443 116.355 125.05C116.7 125.657 116.873 126.352 116.873 127.136C116.873 127.92 116.695 128.615 116.341 129.222C115.986 129.829 115.501 130.3 114.885 130.636C114.278 130.963 113.606 131.126 112.869 131.126ZM112.869 129.74C113.279 129.74 113.662 129.642 114.017 129.446C114.381 129.25 114.675 128.956 114.899 128.564C115.123 128.172 115.235 127.696 115.235 127.136C115.235 126.576 115.127 126.105 114.913 125.722C114.698 125.33 114.413 125.036 114.059 124.84C113.704 124.644 113.321 124.546 112.911 124.546C112.5 124.546 112.117 124.644 111.763 124.84C111.417 125.036 111.142 125.33 110.937 125.722C110.731 126.105 110.629 126.576 110.629 127.136C110.629 127.967 110.839 128.611 111.259 129.068C111.688 129.516 112.225 129.74 112.869 129.74ZM117.918 127.108C117.918 126.333 118.077 125.647 118.394 125.05C118.721 124.453 119.16 123.991 119.71 123.664C120.27 123.328 120.886 123.16 121.558 123.16C122.165 123.16 122.692 123.281 123.14 123.524C123.598 123.757 123.962 124.051 124.232 124.406V123.286H125.842V131H124.232V129.852C123.962 130.216 123.593 130.519 123.126 130.762C122.66 131.005 122.128 131.126 121.53 131.126C120.868 131.126 120.261 130.958 119.71 130.622C119.16 130.277 118.721 129.801 118.394 129.194C118.077 128.578 117.918 127.883 117.918 127.108ZM124.232 127.136C124.232 126.604 124.12 126.142 123.896 125.75C123.682 125.358 123.397 125.059 123.042 124.854C122.688 124.649 122.305 124.546 121.894 124.546C121.484 124.546 121.101 124.649 120.746 124.854C120.392 125.05 120.102 125.344 119.878 125.736C119.664 126.119 119.556 126.576 119.556 127.108C119.556 127.64 119.664 128.107 119.878 128.508C120.102 128.909 120.392 129.217 120.746 129.432C121.11 129.637 121.493 129.74 121.894 129.74C122.305 129.74 122.688 129.637 123.042 129.432C123.397 129.227 123.682 128.928 123.896 128.536C124.12 128.135 124.232 127.668 124.232 127.136ZM129.535 124.406C129.768 124.014 130.076 123.711 130.459 123.496C130.851 123.272 131.313 123.16 131.845 123.16V124.812H131.439C130.813 124.812 130.337 124.971 130.011 125.288C129.693 125.605 129.535 126.156 129.535 126.94V131H127.939V123.286H129.535V124.406ZM132.78 127.108C132.78 126.333 132.938 125.647 133.256 125.05C133.582 124.453 134.021 123.991 134.572 123.664C135.132 123.328 135.752 123.16 136.434 123.16C136.938 123.16 137.432 123.272 137.918 123.496C138.412 123.711 138.804 124 139.094 124.364V120.64H140.704V131H139.094V129.838C138.832 130.211 138.468 130.519 138.002 130.762C137.544 131.005 137.017 131.126 136.42 131.126C135.748 131.126 135.132 130.958 134.572 130.622C134.021 130.277 133.582 129.801 133.256 129.194C132.938 128.578 132.78 127.883 132.78 127.108ZM139.094 127.136C139.094 126.604 138.982 126.142 138.758 125.75C138.543 125.358 138.258 125.059 137.904 124.854C137.549 124.649 137.166 124.546 136.756 124.546C136.345 124.546 135.962 124.649 135.608 124.854C135.253 125.05 134.964 125.344 134.74 125.736C134.525 126.119 134.418 126.576 134.418 127.108C134.418 127.64 134.525 128.107 134.74 128.508C134.964 128.909 135.253 129.217 135.608 129.432C135.972 129.637 136.354 129.74 136.756 129.74C137.166 129.74 137.549 129.637 137.904 129.432C138.258 129.227 138.543 128.928 138.758 128.536C138.982 128.135 139.094 127.668 139.094 127.136Z" fill="#6D64FF"/>
<path d="M34 176C33.2044 176 32.4413 176.316 31.8787 176.879C31.3161 177.441 31 178.204 31 179C31 179.796 31.3161 180.559 31.8787 181.121C32.4413 181.684 33.2044 182 34 182C34.7956 182 35.5587 181.684 36.1213 181.121C36.6839 180.559 37 179.796 37 179C37 178.204 36.6839 177.441 36.1213 176.879C35.5587 176.316 34.7956 176 34 176ZM42 176C41.2044 176 40.4413 176.316 39.8787 176.879C39.3161 177.441 39 178.204 39 179C39 179.796 39.3161 180.559 39.8787 181.121C40.4413 181.684 41.2044 182 42 182C42.7956 182 43.5587 181.684 44.1213 181.121C44.6839 180.559 45 179.796 45 179C45 178.204 44.6839 177.441 44.1213 176.879C43.5587 176.316 42.7956 176 42 176ZM29.7637 180.002C29.3255 180.019 28.3722 180.132 27.752 180.752C26.925 181.579 27.002 182.998 27.002 182.998C27.002 182.998 28.421 183.075 29.248 182.248C30.075 181.421 29.998 180.002 29.998 180.002C29.998 180.002 29.9097 179.996 29.7637 180.002ZM34 184C31 184 27 185.464 27 187.5V189C27 189.552 27.448 190 28 190H40C40.552 190 41 189.552 41 189V187.5C41 185.464 37 184 34 184ZM42 184C41.683 184 41.3535 184.02 41.0215 184.051C42.2035 184.916 43 186.059 43 187.5V189C43 189.552 43.448 190 44 190H48C48.552 190 49 189.552 49 189V187.5C49 185.464 45 184 42 184Z" fill="#808080"/>
<path d="M58.518 182.614C58.518 181.662 58.7373 180.808 59.176 180.052C59.624 179.296 60.226 178.708 60.982 178.288C61.7473 177.859 62.5827 177.644 63.488 177.644C64.524 177.644 65.4433 177.901 66.246 178.414C67.058 178.918 67.646 179.637 68.01 180.57H66.092C65.84 180.057 65.49 179.674 65.042 179.422C64.594 179.17 64.076 179.044 63.488 179.044C62.844 179.044 62.27 179.189 61.766 179.478C61.262 179.767 60.8653 180.183 60.576 180.724C60.296 181.265 60.156 181.895 60.156 182.614C60.156 183.333 60.296 183.963 60.576 184.504C60.8653 185.045 61.262 185.465 61.766 185.764C62.27 186.053 62.844 186.198 63.488 186.198C64.076 186.198 64.594 186.072 65.042 185.82C65.49 185.568 65.84 185.185 66.092 184.672H68.01C67.646 185.605 67.058 186.324 66.246 186.828C65.4433 187.332 64.524 187.584 63.488 187.584C62.5733 187.584 61.738 187.374 60.982 186.954C60.226 186.525 59.624 185.932 59.176 185.176C58.7373 184.42 58.518 183.566 58.518 182.614ZM73.2241 187.626C72.4961 187.626 71.8381 187.463 71.2501 187.136C70.6621 186.8 70.2001 186.333 69.8641 185.736C69.5281 185.129 69.3601 184.429 69.3601 183.636C69.3601 182.852 69.5328 182.157 69.8781 181.55C70.2235 180.943 70.6948 180.477 71.2921 180.15C71.8895 179.823 72.5568 179.66 73.2941 179.66C74.0315 179.66 74.6988 179.823 75.2961 180.15C75.8935 180.477 76.3648 180.943 76.7101 181.55C77.0555 182.157 77.2281 182.852 77.2281 183.636C77.2281 184.42 77.0508 185.115 76.6961 185.722C76.3415 186.329 75.8561 186.8 75.2401 187.136C74.6335 187.463 73.9615 187.626 73.2241 187.626ZM73.2241 186.24C73.6348 186.24 74.0175 186.142 74.3721 185.946C74.7361 185.75 75.0301 185.456 75.2541 185.064C75.4781 184.672 75.5901 184.196 75.5901 183.636C75.5901 183.076 75.4828 182.605 75.2681 182.222C75.0535 181.83 74.7688 181.536 74.4141 181.34C74.0595 181.144 73.6768 181.046 73.2661 181.046C72.8555 181.046 72.4728 181.144 72.1181 181.34C71.7728 181.536 71.4975 181.83 71.2921 182.222C71.0868 182.605 70.9841 183.076 70.9841 183.636C70.9841 184.467 71.1941 185.111 71.6141 185.568C72.0435 186.016 72.5801 186.24 73.2241 186.24ZM88.1439 179.66C88.7505 179.66 89.2919 179.786 89.7679 180.038C90.2532 180.29 90.6312 180.663 90.9019 181.158C91.1819 181.653 91.3219 182.25 91.3219 182.95V187.5H89.7399V183.188C89.7399 182.497 89.5672 181.97 89.2219 181.606C88.8765 181.233 88.4052 181.046 87.8079 181.046C87.2105 181.046 86.7345 181.233 86.3799 181.606C86.0345 181.97 85.8619 182.497 85.8619 183.188V187.5H84.2799V183.188C84.2799 182.497 84.1072 181.97 83.7619 181.606C83.4165 181.233 82.9452 181.046 82.3479 181.046C81.7505 181.046 81.2745 181.233 80.9199 181.606C80.5745 181.97 80.4019 182.497 80.4019 183.188V187.5H78.8059V179.786H80.4019V180.668C80.6632 180.351 80.9945 180.103 81.3959 179.926C81.7972 179.749 82.2265 179.66 82.6839 179.66C83.2999 179.66 83.8505 179.791 84.3359 180.052C84.8212 180.313 85.1945 180.691 85.4559 181.186C85.6892 180.719 86.0532 180.351 86.5479 180.08C87.0425 179.8 87.5745 179.66 88.1439 179.66ZM102.691 179.66C103.297 179.66 103.839 179.786 104.315 180.038C104.8 180.29 105.178 180.663 105.449 181.158C105.729 181.653 105.869 182.25 105.869 182.95V187.5H104.287V183.188C104.287 182.497 104.114 181.97 103.769 181.606C103.423 181.233 102.952 181.046 102.355 181.046C101.757 181.046 101.281 181.233 100.927 181.606C100.581 181.97 100.409 182.497 100.409 183.188V187.5H98.8267V183.188C98.8267 182.497 98.6541 181.97 98.3087 181.606C97.9634 181.233 97.4921 181.046 96.8947 181.046C96.2974 181.046 95.8214 181.233 95.4667 181.606C95.1214 181.97 94.9487 182.497 94.9487 183.188V187.5H93.3527V179.786H94.9487V180.668C95.2101 180.351 95.5414 180.103 95.9427 179.926C96.3441 179.749 96.7734 179.66 97.2307 179.66C97.8467 179.66 98.3974 179.791 98.8827 180.052C99.3681 180.313 99.7414 180.691 100.003 181.186C100.236 180.719 100.6 180.351 101.095 180.08C101.589 179.8 102.121 179.66 102.691 179.66ZM114.886 179.786V187.5H113.29V186.59C113.038 186.907 112.706 187.159 112.296 187.346C111.894 187.523 111.465 187.612 111.008 187.612C110.401 187.612 109.855 187.486 109.37 187.234C108.894 186.982 108.516 186.609 108.236 186.114C107.965 185.619 107.83 185.022 107.83 184.322V179.786H109.412V184.084C109.412 184.775 109.584 185.307 109.93 185.68C110.275 186.044 110.746 186.226 111.344 186.226C111.941 186.226 112.412 186.044 112.758 185.68C113.112 185.307 113.29 184.775 113.29 184.084V179.786H114.886ZM120.883 179.66C121.49 179.66 122.031 179.786 122.507 180.038C122.993 180.29 123.371 180.663 123.641 181.158C123.912 181.653 124.047 182.25 124.047 182.95V187.5H122.465V183.188C122.465 182.497 122.293 181.97 121.947 181.606C121.602 181.233 121.131 181.046 120.533 181.046C119.936 181.046 119.46 181.233 119.105 181.606C118.76 181.97 118.587 182.497 118.587 183.188V187.5H116.991V179.786H118.587V180.668C118.849 180.351 119.18 180.103 119.581 179.926C119.992 179.749 120.426 179.66 120.883 179.66ZM126.895 178.764C126.606 178.764 126.363 178.666 126.167 178.47C125.971 178.274 125.873 178.031 125.873 177.742C125.873 177.453 125.971 177.21 126.167 177.014C126.363 176.818 126.606 176.72 126.895 176.72C127.175 176.72 127.413 176.818 127.609 177.014C127.805 177.21 127.903 177.453 127.903 177.742C127.903 178.031 127.805 178.274 127.609 178.47C127.413 178.666 127.175 178.764 126.895 178.764ZM127.679 179.786V187.5H126.083V179.786H127.679ZM131.637 181.088V185.358C131.637 185.647 131.702 185.857 131.833 185.988C131.973 186.109 132.206 186.17 132.533 186.17H133.513V187.5H132.253C131.534 187.5 130.983 187.332 130.601 186.996C130.218 186.66 130.027 186.114 130.027 185.358V181.088H129.117V179.786H130.027V177.868H131.637V179.786H133.513V181.088H131.637ZM141.928 179.786L137.196 191.126H135.544L137.112 187.374L134.074 179.786H135.852L138.022 185.666L140.276 179.786H141.928Z" fill="#808080"/>
<path d="M14 218H286" stroke="#D2D5E1" stroke-miterlimit="10"/>
<path d="M47 246H34V245C34 244.448 33.552 244 33 244H31C29.343 244 28 245.343 28 247V259C28 260.657 29.343 262 31 262H47C47.552 262 48 261.552 48 261V247C48 246.448 47.552 246 47 246ZM32 257H31C30.649 257 30.312 257.061 30 257.171V247C30 246.449 30.448 246 31 246H32V257ZM45 254.614C45 254.914 44.64 255.066 44.425 254.857L43.479 253.936L40.707 256.708L40.699 256.7C40.283 257.07 39.65 257.065 39.252 256.667L38 255.414L36.992 256.422C36.601 256.812 35.968 256.812 35.578 256.422C35.187 256.031 35.187 255.398 35.578 255.008L37.251 253.335C37.665 252.922 38.335 252.922 38.748 253.335L40 254.586L42.053 252.533L41.11 251.576C40.899 251.362 41.05 251 41.351 251H44.48C44.767 251 45 251.233 45 251.52V254.614Z" fill="#808080"/>
<path d="M58.518 253.614C58.518 252.662 58.7373 251.808 59.176 251.052C59.624 250.296 60.226 249.708 60.982 249.288C61.7473 248.859 62.5827 248.644 63.488 248.644C64.524 248.644 65.4433 248.901 66.246 249.414C67.058 249.918 67.646 250.637 68.01 251.57H66.092C65.84 251.057 65.49 250.674 65.042 250.422C64.594 250.17 64.076 250.044 63.488 250.044C62.844 250.044 62.27 250.189 61.766 250.478C61.262 250.767 60.8653 251.183 60.576 251.724C60.296 252.265 60.156 252.895 60.156 253.614C60.156 254.333 60.296 254.963 60.576 255.504C60.8653 256.045 61.262 256.465 61.766 256.764C62.27 257.053 62.844 257.198 63.488 257.198C64.076 257.198 64.594 257.072 65.042 256.82C65.49 256.568 65.84 256.185 66.092 255.672H68.01C67.646 256.605 67.058 257.324 66.246 257.828C65.4433 258.332 64.524 258.584 63.488 258.584C62.5733 258.584 61.738 258.374 60.982 257.954C60.226 257.525 59.624 256.932 59.176 256.176C58.7373 255.42 58.518 254.566 58.518 253.614ZM71.4741 251.906C71.7075 251.514 72.0155 251.211 72.3981 250.996C72.7901 250.772 73.2521 250.66 73.7841 250.66V252.312H73.3781C72.7528 252.312 72.2768 252.471 71.9501 252.788C71.6328 253.105 71.4741 253.656 71.4741 254.44V258.5H69.8781V250.786H71.4741V251.906ZM82.3212 254.454C82.3212 254.743 82.3025 255.005 82.2652 255.238H76.3712C76.4178 255.854 76.6465 256.349 77.0572 256.722C77.4678 257.095 77.9718 257.282 78.5692 257.282C79.4278 257.282 80.0345 256.923 80.3892 256.204H82.1112C81.8778 256.913 81.4532 257.497 80.8372 257.954C80.2305 258.402 79.4745 258.626 78.5692 258.626C77.8318 258.626 77.1692 258.463 76.5812 258.136C76.0025 257.8 75.5452 257.333 75.2092 256.736C74.8825 256.129 74.7192 255.429 74.7192 254.636C74.7192 253.843 74.8778 253.147 75.1952 252.55C75.5218 251.943 75.9745 251.477 76.5532 251.15C77.1412 250.823 77.8132 250.66 78.5692 250.66C79.2972 250.66 79.9458 250.819 80.5152 251.136C81.0845 251.453 81.5278 251.901 81.8452 252.48C82.1625 253.049 82.3212 253.707 82.3212 254.454ZM80.6552 253.95C80.6458 253.362 80.4358 252.891 80.0252 252.536C79.6145 252.181 79.1058 252.004 78.4992 252.004C77.9485 252.004 77.4772 252.181 77.0852 252.536C76.6932 252.881 76.4598 253.353 76.3852 253.95H80.6552ZM83.3598 254.608C83.3598 253.833 83.5185 253.147 83.8358 252.55C84.1625 251.953 84.6011 251.491 85.1518 251.164C85.7118 250.828 86.3278 250.66 86.9998 250.66C87.6065 250.66 88.1338 250.781 88.5818 251.024C89.0391 251.257 89.4031 251.551 89.6738 251.906V250.786H91.2838V258.5H89.6738V257.352C89.4031 257.716 89.0345 258.019 88.5678 258.262C88.1011 258.505 87.5691 258.626 86.9718 258.626C86.3091 258.626 85.7025 258.458 85.1518 258.122C84.6011 257.777 84.1625 257.301 83.8358 256.694C83.5185 256.078 83.3598 255.383 83.3598 254.608ZM89.6738 254.636C89.6738 254.104 89.5618 253.642 89.3378 253.25C89.1231 252.858 88.8385 252.559 88.4838 252.354C88.1291 252.149 87.7465 252.046 87.3358 252.046C86.9251 252.046 86.5425 252.149 86.1878 252.354C85.8331 252.55 85.5438 252.844 85.3198 253.236C85.1051 253.619 84.9978 254.076 84.9978 254.608C84.9978 255.14 85.1051 255.607 85.3198 256.008C85.5438 256.409 85.8331 256.717 86.1878 256.932C86.5518 257.137 86.9345 257.24 87.3358 257.24C87.7465 257.24 88.1291 257.137 88.4838 256.932C88.8385 256.727 89.1231 256.428 89.3378 256.036C89.5618 255.635 89.6738 255.168 89.6738 254.636ZM95.2421 252.088V256.358C95.2421 256.647 95.3074 256.857 95.4381 256.988C95.5781 257.109 95.8114 257.17 96.1381 257.17H97.1181V258.5H95.8581C95.1394 258.5 94.5887 258.332 94.2061 257.996C93.8234 257.66 93.6321 257.114 93.6321 256.358V252.088H92.7221V250.786H93.6321V248.868H95.2421V250.786H97.1181V252.088H95.2421ZM105.659 254.454C105.659 254.743 105.64 255.005 105.603 255.238H99.7091C99.7557 255.854 99.9844 256.349 100.395 256.722C100.806 257.095 101.31 257.282 101.907 257.282C102.766 257.282 103.372 256.923 103.727 256.204H105.449C105.216 256.913 104.791 257.497 104.175 257.954C103.568 258.402 102.812 258.626 101.907 258.626C101.17 258.626 100.507 258.463 99.9191 258.136C99.3404 257.8 98.8831 257.333 98.5471 256.736C98.2204 256.129 98.0571 255.429 98.0571 254.636C98.0571 253.843 98.2157 253.147 98.5331 252.55C98.8597 251.943 99.3124 251.477 99.8911 251.15C100.479 250.823 101.151 250.66 101.907 250.66C102.635 250.66 103.284 250.819 103.853 251.136C104.422 251.453 104.866 251.901 105.183 252.48C105.5 253.049 105.659 253.707 105.659 254.454ZM103.993 253.95C103.984 253.362 103.774 252.891 103.363 252.536C102.952 252.181 102.444 252.004 101.837 252.004C101.286 252.004 100.815 252.181 100.423 252.536C100.031 252.881 99.7977 253.353 99.7231 253.95H103.993ZM106.698 254.608C106.698 253.833 106.856 253.147 107.174 252.55C107.5 251.953 107.939 251.491 108.49 251.164C109.05 250.828 109.67 250.66 110.352 250.66C110.856 250.66 111.35 250.772 111.836 250.996C112.33 251.211 112.722 251.5 113.012 251.864V248.14H114.622V258.5H113.012V257.338C112.75 257.711 112.386 258.019 111.92 258.262C111.462 258.505 110.935 258.626 110.338 258.626C109.666 258.626 109.05 258.458 108.49 258.122C107.939 257.777 107.5 257.301 107.174 256.694C106.856 256.078 106.698 255.383 106.698 254.608ZM113.012 254.636C113.012 254.104 112.9 253.642 112.676 253.25C112.461 252.858 112.176 252.559 111.822 252.354C111.467 252.149 111.084 252.046 110.674 252.046C110.263 252.046 109.88 252.149 109.526 252.354C109.171 252.55 108.882 252.844 108.658 253.236C108.443 253.619 108.336 254.076 108.336 254.608C108.336 255.14 108.443 255.607 108.658 256.008C108.882 256.409 109.171 256.717 109.526 256.932C109.89 257.137 110.272 257.24 110.674 257.24C111.084 257.24 111.467 257.137 111.822 256.932C112.176 256.727 112.461 256.428 112.676 256.036C112.9 255.635 113.012 255.168 113.012 254.636ZM127.159 251.668C127.159 252.163 127.042 252.629 126.809 253.068C126.575 253.507 126.202 253.866 125.689 254.146C125.175 254.417 124.517 254.552 123.715 254.552H121.951V258.5H120.355V248.77H123.715C124.461 248.77 125.091 248.901 125.605 249.162C126.127 249.414 126.515 249.759 126.767 250.198C127.028 250.637 127.159 251.127 127.159 251.668ZM123.715 253.25C124.321 253.25 124.774 253.115 125.073 252.844C125.371 252.564 125.521 252.172 125.521 251.668C125.521 250.604 124.919 250.072 123.715 250.072H121.951V253.25H123.715ZM130.277 251.906C130.51 251.514 130.818 251.211 131.201 250.996C131.593 250.772 132.055 250.66 132.587 250.66V252.312H132.181C131.556 252.312 131.08 252.471 130.753 252.788C130.436 253.105 130.277 253.656 130.277 254.44V258.5H128.681V250.786H130.277V251.906ZM137.4 258.626C136.672 258.626 136.014 258.463 135.426 258.136C134.838 257.8 134.376 257.333 134.04 256.736C133.704 256.129 133.536 255.429 133.536 254.636C133.536 253.852 133.709 253.157 134.054 252.55C134.399 251.943 134.871 251.477 135.468 251.15C136.065 250.823 136.733 250.66 137.47 250.66C138.207 250.66 138.875 250.823 139.472 251.15C140.069 251.477 140.541 251.943 140.886 252.55C141.231 253.157 141.404 253.852 141.404 254.636C141.404 255.42 141.227 256.115 140.872 256.722C140.517 257.329 140.032 257.8 139.416 258.136C138.809 258.463 138.137 258.626 137.4 258.626ZM137.4 257.24C137.811 257.24 138.193 257.142 138.548 256.946C138.912 256.75 139.206 256.456 139.43 256.064C139.654 255.672 139.766 255.196 139.766 254.636C139.766 254.076 139.659 253.605 139.444 253.222C139.229 252.83 138.945 252.536 138.59 252.34C138.235 252.144 137.853 252.046 137.442 252.046C137.031 252.046 136.649 252.144 136.294 252.34C135.949 252.536 135.673 252.83 135.468 253.222C135.263 253.605 135.16 254.076 135.16 254.636C135.16 255.467 135.37 256.111 135.79 256.568C136.219 257.016 136.756 257.24 137.4 257.24ZM143.794 249.764C143.504 249.764 143.262 249.666 143.066 249.47C142.87 249.274 142.772 249.031 142.772 248.742C142.772 248.453 142.87 248.21 143.066 248.014C143.262 247.818 143.504 247.72 143.794 247.72C144.074 247.72 144.312 247.818 144.508 248.014C144.704 248.21 144.802 248.453 144.802 248.742C144.802 249.031 144.704 249.274 144.508 249.47C144.312 249.666 144.074 249.764 143.794 249.764ZM144.578 260.012C144.578 260.768 144.386 261.314 144.004 261.65C143.63 261.995 143.084 262.168 142.366 262.168H141.54V260.824H142.086C142.412 260.824 142.641 260.759 142.772 260.628C142.912 260.507 142.982 260.301 142.982 260.012V250.786H144.578V260.012ZM153.743 254.454C153.743 254.743 153.724 255.005 153.687 255.238H147.793C147.84 255.854 148.068 256.349 148.479 256.722C148.89 257.095 149.394 257.282 149.991 257.282C150.85 257.282 151.456 256.923 151.811 256.204H153.533C153.3 256.913 152.875 257.497 152.259 257.954C151.652 258.402 150.896 258.626 149.991 258.626C149.254 258.626 148.591 258.463 148.003 258.136C147.424 257.8 146.967 257.333 146.631 256.736C146.304 256.129 146.141 255.429 146.141 254.636C146.141 253.843 146.3 253.147 146.617 252.55C146.944 251.943 147.396 251.477 147.975 251.15C148.563 250.823 149.235 250.66 149.991 250.66C150.719 250.66 151.368 250.819 151.937 251.136C152.506 251.453 152.95 251.901 153.267 252.48C153.584 253.049 153.743 253.707 153.743 254.454ZM152.077 253.95C152.068 253.362 151.858 252.891 151.447 252.536C151.036 252.181 150.528 252.004 149.921 252.004C149.37 252.004 148.899 252.181 148.507 252.536C148.115 252.881 147.882 253.353 147.807 253.95H152.077ZM154.782 254.636C154.782 253.843 154.94 253.147 155.258 252.55C155.584 251.943 156.032 251.477 156.602 251.15C157.171 250.823 157.824 250.66 158.562 250.66C159.495 250.66 160.265 250.884 160.872 251.332C161.488 251.771 161.903 252.401 162.118 253.222H160.396C160.256 252.839 160.032 252.541 159.724 252.326C159.416 252.111 159.028 252.004 158.562 252.004C157.908 252.004 157.386 252.237 156.994 252.704C156.611 253.161 156.42 253.805 156.42 254.636C156.42 255.467 156.611 256.115 156.994 256.582C157.386 257.049 157.908 257.282 158.562 257.282C159.486 257.282 160.097 256.876 160.396 256.064H162.118C161.894 256.848 161.474 257.473 160.858 257.94C160.242 258.397 159.476 258.626 158.562 258.626C157.824 258.626 157.171 258.463 156.602 258.136C156.032 257.8 155.584 257.333 155.258 256.736C154.94 256.129 154.782 255.429 154.782 254.636ZM165.57 252.088V256.358C165.57 256.647 165.636 256.857 165.766 256.988C165.906 257.109 166.14 257.17 166.466 257.17H167.446V258.5H166.186C165.468 258.5 164.917 258.332 164.534 257.996C164.152 257.66 163.96 257.114 163.96 256.358V252.088H163.05V250.786H163.96V248.868H165.57V250.786H167.446V252.088H165.57ZM171.717 258.626C171.111 258.626 170.565 258.519 170.079 258.304C169.603 258.08 169.225 257.781 168.945 257.408C168.665 257.025 168.516 256.601 168.497 256.134H170.149C170.177 256.461 170.331 256.736 170.611 256.96C170.901 257.175 171.26 257.282 171.689 257.282C172.137 257.282 172.483 257.198 172.725 257.03C172.977 256.853 173.103 256.629 173.103 256.358C173.103 256.069 172.963 255.854 172.683 255.714C172.413 255.574 171.979 255.42 171.381 255.252C170.803 255.093 170.331 254.939 169.967 254.79C169.603 254.641 169.286 254.412 169.015 254.104C168.754 253.796 168.623 253.39 168.623 252.886C168.623 252.475 168.745 252.102 168.987 251.766C169.23 251.421 169.575 251.15 170.023 250.954C170.481 250.758 171.003 250.66 171.591 250.66C172.469 250.66 173.173 250.884 173.705 251.332C174.247 251.771 174.536 252.373 174.573 253.138H172.977C172.949 252.793 172.809 252.517 172.557 252.312C172.305 252.107 171.965 252.004 171.535 252.004C171.115 252.004 170.793 252.083 170.569 252.242C170.345 252.401 170.233 252.611 170.233 252.872C170.233 253.077 170.308 253.25 170.457 253.39C170.607 253.53 170.789 253.642 171.003 253.726C171.218 253.801 171.535 253.899 171.955 254.02C172.515 254.169 172.973 254.323 173.327 254.482C173.691 254.631 174.004 254.855 174.265 255.154C174.527 255.453 174.662 255.849 174.671 256.344C174.671 256.783 174.55 257.175 174.307 257.52C174.065 257.865 173.719 258.136 173.271 258.332C172.833 258.528 172.315 258.626 171.717 258.626Z" fill="#808080"/>
<path d="M45 305H40.816C40.403 303.837 39.304 303 38 303C36.696 303 35.597 303.837 35.184 305H31C29.895 305 29 305.895 29 307V321C29 322.105 29.895 323 31 323H45C46.105 323 47 322.105 47 321V307C47 305.895 46.105 305 45 305ZM37 319H33C32.448 319 32 318.552 32 318C32 317.448 32.448 317 33 317H37C37.552 317 38 317.448 38 318C38 318.552 37.552 319 37 319ZM37 313H33C32.448 313 32 312.552 32 312C32 311.448 32.448 311 33 311H37C37.552 311 38 311.448 38 312C38 312.552 37.552 313 37 313ZM38 307C37.448 307 37 306.552 37 306C37 305.448 37.448 305 38 305C38.552 305 39 305.448 39 306C39 306.552 38.552 307 38 307ZM42.707 318.707C42.52 318.895 42.265 319 42 319H41C40.448 319 40 318.552 40 318C40 317.448 40.448 317 41 317H41.586L42.879 315.707C43.27 315.316 43.903 315.316 44.293 315.707C44.684 316.098 44.684 316.731 44.293 317.121L42.707 318.707ZM42 313H41C40.448 313 40 312.552 40 312C40 311.448 40.448 311 41 311H41.586L42.879 309.707C43.27 309.316 43.903 309.316 44.293 309.707C44.684 310.098 44.684 310.731 44.293 311.121L42.707 312.707C42.52 312.895 42.265 313 42 313Z" fill="#808080"/>
<path d="M69.298 307.77V317.5H67.702V310.836L64.734 317.5H63.628L60.646 310.836V317.5H59.05V307.77H60.772L64.188 315.4L67.59 307.77H69.298ZM78.3397 309.786L73.6077 321.126H71.9557L73.5237 317.374L70.4857 309.786H72.2637L74.4337 315.666L76.6877 309.786H78.3397ZM86.3869 317.598C85.7335 317.598 85.1455 317.486 84.6229 317.262C84.1002 317.029 83.6895 316.702 83.3909 316.282C83.0922 315.862 82.9429 315.372 82.9429 314.812H84.6509C84.6882 315.232 84.8515 315.577 85.1409 315.848C85.4395 316.119 85.8549 316.254 86.3869 316.254C86.9375 316.254 87.3669 316.123 87.6749 315.862C87.9829 315.591 88.1369 315.246 88.1369 314.826C88.1369 314.499 88.0389 314.233 87.8429 314.028C87.6562 313.823 87.4182 313.664 87.1289 313.552C86.8489 313.44 86.4569 313.319 85.9529 313.188C85.3182 313.02 84.8002 312.852 84.3989 312.684C84.0069 312.507 83.6709 312.236 83.3909 311.872C83.1109 311.508 82.9709 311.023 82.9709 310.416C82.9709 309.856 83.1109 309.366 83.3909 308.946C83.6709 308.526 84.0629 308.204 84.5669 307.98C85.0709 307.756 85.6542 307.644 86.3169 307.644C87.2595 307.644 88.0295 307.882 88.6269 308.358C89.2335 308.825 89.5695 309.469 89.6349 310.29H87.8709C87.8429 309.935 87.6749 309.632 87.3669 309.38C87.0589 309.128 86.6529 309.002 86.1489 309.002C85.6915 309.002 85.3182 309.119 85.0289 309.352C84.7395 309.585 84.5949 309.921 84.5949 310.36C84.5949 310.659 84.6835 310.906 84.8609 311.102C85.0475 311.289 85.2809 311.438 85.5609 311.55C85.8409 311.662 86.2235 311.783 86.7089 311.914C87.3529 312.091 87.8755 312.269 88.2769 312.446C88.6875 312.623 89.0329 312.899 89.3129 313.272C89.6022 313.636 89.7469 314.126 89.7469 314.742C89.7469 315.237 89.6115 315.703 89.3409 316.142C89.0795 316.581 88.6922 316.935 88.1789 317.206C87.6749 317.467 87.0775 317.598 86.3869 317.598ZM98.6161 309.786V317.5H97.0201V316.59C96.7681 316.907 96.4367 317.159 96.0261 317.346C95.6247 317.523 95.1954 317.612 94.7381 317.612C94.1314 317.612 93.5854 317.486 93.1001 317.234C92.6241 316.982 92.2461 316.609 91.9661 316.114C91.6954 315.619 91.5601 315.022 91.5601 314.322V309.786H93.1421V314.084C93.1421 314.775 93.3147 315.307 93.6601 315.68C94.0054 316.044 94.4767 316.226 95.0741 316.226C95.6714 316.226 96.1427 316.044 96.4881 315.68C96.8427 315.307 97.0201 314.775 97.0201 314.084V309.786H98.6161ZM102.318 310.906C102.551 310.514 102.859 310.211 103.242 309.996C103.634 309.772 104.096 309.66 104.628 309.66V311.312H104.222C103.597 311.312 103.121 311.471 102.794 311.788C102.477 312.105 102.318 312.656 102.318 313.44V317.5H100.722V309.786H102.318V310.906ZM109.077 316.072L111.261 309.786H112.955L110.015 317.5H108.111L105.185 309.786H106.893L109.077 316.072ZM121.231 313.454C121.231 313.743 121.213 314.005 121.175 314.238H115.281C115.328 314.854 115.557 315.349 115.967 315.722C116.378 316.095 116.882 316.282 117.479 316.282C118.338 316.282 118.945 315.923 119.299 315.204H121.021C120.788 315.913 120.363 316.497 119.747 316.954C119.141 317.402 118.385 317.626 117.479 317.626C116.742 317.626 116.079 317.463 115.491 317.136C114.913 316.8 114.455 316.333 114.119 315.736C113.793 315.129 113.629 314.429 113.629 313.636C113.629 312.843 113.788 312.147 114.105 311.55C114.432 310.943 114.885 310.477 115.463 310.15C116.051 309.823 116.723 309.66 117.479 309.66C118.207 309.66 118.856 309.819 119.425 310.136C119.995 310.453 120.438 310.901 120.755 311.48C121.073 312.049 121.231 312.707 121.231 313.454ZM119.565 312.95C119.556 312.362 119.346 311.891 118.935 311.536C118.525 311.181 118.016 311.004 117.409 311.004C116.859 311.004 116.387 311.181 115.995 311.536C115.603 311.881 115.37 312.353 115.295 312.95H119.565ZM129.746 309.786L125.014 321.126H123.362L124.93 317.374L121.892 309.786H123.67L125.84 315.666L128.094 309.786H129.746Z" fill="#808080"/>
<path d="M38.1523 362.002C35.26 361.959 32.6487 363.157 30.7969 365.09L28.8535 363.147C28.6585 362.952 28.3415 362.952 28.1465 363.147C28.0485 363.244 28 363.372 28 363.5V368C28 368.265 28.1054 368.52 28.2929 368.707C28.4804 368.895 28.7348 369 29 369H33.5C33.628 369 33.7555 368.951 33.8535 368.854C34.0485 368.659 34.0485 368.342 33.8535 368.147L32.2168 366.51C34.0281 364.601 36.7519 363.569 39.6914 364.176C42.7664 364.811 45.2318 367.3 45.8398 370.381C46.8498 375.499 42.941 380 38 380C33.881 380 30.4799 376.87 30.0469 372.865C29.9929 372.368 29.5625 372 29.0625 372C28.4625 372 27.9955 372.525 28.0625 373.121C28.6215 378.109 32.866 382 38 382C44.136 382 48.9993 376.444 47.8223 370.098C47.0773 366.075 43.8171 362.86 39.7871 362.156C39.2347 362.06 38.6888 362.01 38.1523 362.002ZM38 366C37.448 366 37 366.448 37 367V372C37 372.265 37.105 372.52 37.293 372.707L39.5859 375C39.9759 375.39 40.61 375.39 41 375C41.39 374.61 41.39 373.976 41 373.586L39 371.586V367C39 366.448 38.552 366 38 366Z" fill="#808080"/>
<path d="M69.298 366.77V376.5H67.702V369.836L64.734 376.5H63.628L60.646 369.836V376.5H59.05V366.77H60.772L64.188 374.4L67.59 366.77H69.298ZM78.3397 368.786L73.6077 380.126H71.9557L73.5237 376.374L70.4857 368.786H72.2637L74.4337 374.666L76.6877 368.786H78.3397ZM90.9509 366.77V376.5H89.3549V372.244H84.7769V376.5H83.1809V366.77H84.7769V370.942H89.3549V366.77H90.9509ZM93.864 367.764C93.5746 367.764 93.332 367.666 93.136 367.47C92.94 367.274 92.842 367.031 92.842 366.742C92.842 366.453 92.94 366.21 93.136 366.014C93.332 365.818 93.5746 365.72 93.864 365.72C94.144 365.72 94.382 365.818 94.578 366.014C94.774 366.21 94.872 366.453 94.872 366.742C94.872 367.031 94.774 367.274 94.578 367.47C94.382 367.666 94.144 367.764 93.864 367.764ZM94.648 368.786V376.5H93.052V368.786H94.648ZM99.5434 376.626C98.9367 376.626 98.3907 376.519 97.9054 376.304C97.4294 376.08 97.0514 375.781 96.7714 375.408C96.4914 375.025 96.342 374.601 96.3234 374.134H97.9754C98.0034 374.461 98.1574 374.736 98.4374 374.96C98.7267 375.175 99.086 375.282 99.5154 375.282C99.9634 375.282 100.309 375.198 100.551 375.03C100.803 374.853 100.929 374.629 100.929 374.358C100.929 374.069 100.789 373.854 100.509 373.714C100.239 373.574 99.8047 373.42 99.2074 373.252C98.6287 373.093 98.1574 372.939 97.7934 372.79C97.4294 372.641 97.112 372.412 96.8414 372.104C96.58 371.796 96.4494 371.39 96.4494 370.886C96.4494 370.475 96.5707 370.102 96.8134 369.766C97.056 369.421 97.4014 369.15 97.8494 368.954C98.3067 368.758 98.8294 368.66 99.4174 368.66C100.295 368.66 100.999 368.884 101.531 369.332C102.073 369.771 102.362 370.373 102.399 371.138H100.803C100.775 370.793 100.635 370.517 100.383 370.312C100.131 370.107 99.7907 370.004 99.3614 370.004C98.9414 370.004 98.6194 370.083 98.3954 370.242C98.1714 370.401 98.0594 370.611 98.0594 370.872C98.0594 371.077 98.134 371.25 98.2834 371.39C98.4327 371.53 98.6147 371.642 98.8294 371.726C99.044 371.801 99.3614 371.899 99.7814 372.02C100.341 372.169 100.799 372.323 101.153 372.482C101.517 372.631 101.83 372.855 102.091 373.154C102.353 373.453 102.488 373.849 102.497 374.344C102.497 374.783 102.376 375.175 102.133 375.52C101.891 375.865 101.545 376.136 101.097 376.332C100.659 376.528 100.141 376.626 99.5434 376.626ZM106.084 370.088V374.358C106.084 374.647 106.149 374.857 106.28 374.988C106.42 375.109 106.653 375.17 106.98 375.17H107.96V376.5H106.7C105.981 376.5 105.431 376.332 105.048 375.996C104.665 375.66 104.474 375.114 104.474 374.358V370.088H103.564V368.786H104.474V366.868H106.084V368.786H107.96V370.088H106.084ZM112.777 376.626C112.049 376.626 111.391 376.463 110.803 376.136C110.215 375.8 109.753 375.333 109.417 374.736C109.081 374.129 108.913 373.429 108.913 372.636C108.913 371.852 109.086 371.157 109.431 370.55C109.776 369.943 110.248 369.477 110.845 369.15C111.442 368.823 112.11 368.66 112.847 368.66C113.584 368.66 114.252 368.823 114.849 369.15C115.446 369.477 115.918 369.943 116.263 370.55C116.608 371.157 116.781 371.852 116.781 372.636C116.781 373.42 116.604 374.115 116.249 374.722C115.894 375.329 115.409 375.8 114.793 376.136C114.186 376.463 113.514 376.626 112.777 376.626ZM112.777 375.24C113.188 375.24 113.57 375.142 113.925 374.946C114.289 374.75 114.583 374.456 114.807 374.064C115.031 373.672 115.143 373.196 115.143 372.636C115.143 372.076 115.036 371.605 114.821 371.222C114.606 370.83 114.322 370.536 113.967 370.34C113.612 370.144 113.23 370.046 112.819 370.046C112.408 370.046 112.026 370.144 111.671 370.34C111.326 370.536 111.05 370.83 110.845 371.222C110.64 371.605 110.537 372.076 110.537 372.636C110.537 373.467 110.747 374.111 111.167 374.568C111.596 375.016 112.133 375.24 112.777 375.24ZM119.955 369.906C120.188 369.514 120.496 369.211 120.879 368.996C121.271 368.772 121.733 368.66 122.265 368.66V370.312H121.859C121.233 370.312 120.757 370.471 120.431 370.788C120.113 371.105 119.955 371.656 119.955 372.44V376.5H118.359V368.786H119.955V369.906ZM130.676 368.786L125.944 380.126H124.292L125.86 376.374L122.822 368.786H124.6L126.77 374.666L129.024 368.786H130.676Z" fill="#808080"/>
<path d="M14 534.595H286" stroke="#D2D5E1" stroke-miterlimit="10"/>
<g filter="url(#filter0_d_418_12272)">
<rect x="14" y="1284.43" width="272" height="147.57" rx="20" fill="white" shape-rendering="crispEdges"/>
<path d="M34.013 1316.13C33.2434 1316.13 32.5508 1316 31.9352 1315.74C31.3196 1315.46 30.8359 1315.08 30.4841 1314.58C30.1323 1314.09 29.9564 1313.51 29.9564 1312.85H31.9682C32.0122 1313.35 32.2046 1313.75 32.5454 1314.07C32.8971 1314.39 33.3863 1314.55 34.013 1314.55C34.6616 1314.55 35.1673 1314.4 35.53 1314.09C35.8928 1313.77 36.0742 1313.36 36.0742 1312.87C36.0742 1312.49 35.9588 1312.17 35.7279 1311.93C35.5081 1311.69 35.2277 1311.5 34.8869 1311.37C34.5571 1311.24 34.0954 1311.09 33.5018 1310.94C32.7542 1310.74 32.1441 1310.54 31.6714 1310.35C31.2097 1310.14 30.8139 1309.82 30.4841 1309.39C30.1543 1308.96 29.9894 1308.39 29.9894 1307.68C29.9894 1307.02 30.1543 1306.44 30.4841 1305.94C30.8139 1305.45 31.2756 1305.07 31.8693 1304.81C32.4629 1304.54 33.15 1304.41 33.9305 1304.41C35.0408 1304.41 35.9478 1304.69 36.6514 1305.25C37.3659 1305.8 37.7617 1306.56 37.8386 1307.53H35.7609C35.7279 1307.11 35.53 1306.75 35.1673 1306.46C34.8045 1306.16 34.3263 1306.01 33.7326 1306.01C33.194 1306.01 32.7542 1306.15 32.4134 1306.42C32.0726 1306.7 31.9022 1307.09 31.9022 1307.61C31.9022 1307.96 32.0067 1308.25 32.2156 1308.48C32.4354 1308.7 32.7103 1308.88 33.0401 1309.01C33.3699 1309.14 33.8206 1309.29 34.3922 1309.44C35.1508 1309.65 35.7664 1309.86 36.2391 1310.07C36.7228 1310.28 37.1296 1310.6 37.4594 1311.04C37.8002 1311.47 37.9706 1312.05 37.9706 1312.77C37.9706 1313.35 37.8112 1313.9 37.4924 1314.42C37.1845 1314.94 36.7283 1315.35 36.1237 1315.67C35.53 1315.98 34.8265 1316.13 34.013 1316.13ZM42.3819 1308.47V1313.5C42.3819 1313.84 42.4588 1314.08 42.6128 1314.24C42.7777 1314.38 43.0525 1314.45 43.4373 1314.45H44.5916V1316.02H43.1075C42.261 1316.02 41.6124 1315.82 41.1616 1315.43C40.7109 1315.03 40.4855 1314.39 40.4855 1313.5V1308.47H39.4137V1306.93H40.4855V1304.67H42.3819V1306.93H44.5916V1308.47H42.3819ZM50.2653 1316.17C49.4078 1316.17 48.6328 1315.98 47.9402 1315.59C47.2476 1315.2 46.7034 1314.65 46.3077 1313.94C45.9119 1313.23 45.714 1312.4 45.714 1311.47C45.714 1310.54 45.9174 1309.73 46.3242 1309.01C46.7309 1308.3 47.2861 1307.75 47.9897 1307.36C48.6932 1306.98 49.4792 1306.79 50.3477 1306.79C51.2162 1306.79 52.0022 1306.98 52.7058 1307.36C53.4094 1307.75 53.9645 1308.3 54.3713 1309.01C54.778 1309.73 54.9814 1310.54 54.9814 1311.47C54.9814 1312.39 54.7725 1313.21 54.3548 1313.93C53.937 1314.64 53.3654 1315.2 52.6398 1315.59C51.9253 1315.98 51.1337 1316.17 50.2653 1316.17ZM50.2653 1314.54C50.749 1314.54 51.1997 1314.42 51.6175 1314.19C52.0462 1313.96 52.3925 1313.61 52.6563 1313.15C52.9202 1312.69 53.0521 1312.13 53.0521 1311.47C53.0521 1310.81 52.9257 1310.25 52.6728 1309.8C52.42 1309.34 52.0847 1308.99 51.6669 1308.76C51.2492 1308.53 50.7984 1308.42 50.3147 1308.42C49.831 1308.42 49.3803 1308.53 48.9626 1308.76C48.5558 1308.99 48.2315 1309.34 47.9897 1309.8C47.7478 1310.25 47.6269 1310.81 47.6269 1311.47C47.6269 1312.45 47.8742 1313.21 48.3689 1313.74C48.8746 1314.27 49.5067 1314.54 50.2653 1314.54ZM58.7196 1308.25C58.9945 1307.79 59.3572 1307.43 59.808 1307.18C60.2697 1306.92 60.8138 1306.79 61.4405 1306.79V1308.73H60.9623C60.2257 1308.73 59.665 1308.92 59.2803 1309.29C58.9065 1309.67 58.7196 1310.31 58.7196 1311.24V1316.02H56.8398V1306.93H58.7196V1308.25ZM62.5418 1311.44C62.5418 1310.52 62.7287 1309.71 63.1025 1309.01C63.4872 1308.31 64.0039 1307.76 64.6525 1307.38C65.3121 1306.98 66.0377 1306.79 66.8292 1306.79C67.5438 1306.79 68.1649 1306.93 68.6926 1307.21C69.2313 1307.49 69.66 1307.83 69.9788 1308.25V1306.93H71.8752V1316.02H69.9788V1314.67C69.66 1315.1 69.2258 1315.45 68.6761 1315.74C68.1264 1316.03 67.4998 1316.17 66.7962 1316.17C66.0157 1316.17 65.3011 1315.97 64.6525 1315.57C64.0039 1315.17 63.4872 1314.61 63.1025 1313.89C62.7287 1313.17 62.5418 1312.35 62.5418 1311.44ZM69.9788 1311.47C69.9788 1310.84 69.8469 1310.3 69.5831 1309.84C69.3302 1309.37 68.9949 1309.02 68.5772 1308.78C68.1594 1308.54 67.7087 1308.42 67.225 1308.42C66.7413 1308.42 66.2905 1308.54 65.8728 1308.78C65.4551 1309.01 65.1143 1309.36 64.8504 1309.82C64.5976 1310.27 64.4712 1310.81 64.4712 1311.44C64.4712 1312.06 64.5976 1312.61 64.8504 1313.08C65.1143 1313.56 65.4551 1313.92 65.8728 1314.17C66.3015 1314.41 66.7523 1314.54 67.225 1314.54C67.7087 1314.54 68.1594 1314.41 68.5772 1314.17C68.9949 1313.93 69.3302 1313.58 69.5831 1313.12C69.8469 1312.64 69.9788 1312.09 69.9788 1311.47ZM78.0051 1306.79C78.7086 1306.79 79.3298 1306.93 79.8684 1307.21C80.4181 1307.49 80.8468 1307.83 81.1546 1308.25V1306.93H83.051V1316.17C83.051 1317 82.8751 1317.75 82.5233 1318.39C82.1715 1319.05 81.6603 1319.57 80.9897 1319.94C80.3301 1320.32 79.5386 1320.5 78.6152 1320.5C77.3839 1320.5 76.3616 1320.21 75.548 1319.63C74.7345 1319.06 74.2728 1318.28 74.1629 1317.29H76.0263C76.1692 1317.76 76.4715 1318.14 76.9332 1318.43C77.4059 1318.72 77.9666 1318.87 78.6152 1318.87C79.3737 1318.87 79.9839 1318.64 80.4456 1318.18C80.9183 1317.72 81.1546 1317.05 81.1546 1316.17V1314.65C80.8358 1315.08 80.4016 1315.44 79.8519 1315.74C79.3133 1316.03 78.6976 1316.17 78.0051 1316.17C77.2135 1316.17 76.488 1315.97 75.8284 1315.57C75.1798 1315.17 74.6631 1314.61 74.2783 1313.89C73.9045 1313.17 73.7177 1312.35 73.7177 1311.44C73.7177 1310.52 73.9045 1309.71 74.2783 1309.01C74.6631 1308.31 75.1798 1307.76 75.8284 1307.38C76.488 1306.98 77.2135 1306.79 78.0051 1306.79ZM81.1546 1311.47C81.1546 1310.84 81.0227 1310.3 80.7589 1309.84C80.506 1309.37 80.1707 1309.02 79.753 1308.78C79.3353 1308.54 78.8845 1308.42 78.4008 1308.42C77.9171 1308.42 77.4664 1308.54 77.0486 1308.78C76.6309 1309.01 76.2901 1309.36 76.0263 1309.82C75.7734 1310.27 75.647 1310.81 75.647 1311.44C75.647 1312.06 75.7734 1312.61 76.0263 1313.08C76.2901 1313.56 76.6309 1313.92 77.0486 1314.17C77.4774 1314.41 77.9281 1314.54 78.4008 1314.54C78.8845 1314.54 79.3353 1314.41 79.753 1314.17C80.1707 1313.93 80.506 1313.58 80.7589 1313.12C81.0227 1312.64 81.1546 1312.09 81.1546 1311.47ZM93.8476 1311.25C93.8476 1311.59 93.8256 1311.9 93.7816 1312.18H86.8393C86.8943 1312.9 87.1636 1313.49 87.6473 1313.93C88.131 1314.37 88.7247 1314.58 89.4282 1314.58C90.4396 1314.58 91.1542 1314.16 91.5719 1313.32H93.6002C93.3254 1314.15 92.8252 1314.84 92.0996 1315.38C91.3851 1315.9 90.4946 1316.17 89.4282 1316.17C88.5598 1316.17 87.7792 1315.98 87.0867 1315.59C86.4051 1315.2 85.8664 1314.65 85.4706 1313.94C85.0859 1313.23 84.8935 1312.4 84.8935 1311.47C84.8935 1310.53 85.0804 1309.71 85.4542 1309.01C85.8389 1308.3 86.3721 1307.75 87.0537 1307.36C87.7463 1306.98 88.5378 1306.79 89.4282 1306.79C90.2857 1306.79 91.0498 1306.97 91.7204 1307.35C92.391 1307.72 92.9131 1308.25 93.2869 1308.93C93.6607 1309.6 93.8476 1310.37 93.8476 1311.25ZM91.8853 1310.66C91.8743 1309.97 91.6269 1309.41 91.1432 1308.99C90.6595 1308.58 90.0604 1308.37 89.3458 1308.37C88.6972 1308.37 88.142 1308.58 87.6803 1308.99C87.2186 1309.4 86.9438 1309.96 86.8558 1310.66H91.8853Z" fill="#545C81"/>
<path d="M29.7421 1362.4V1360.69H33.172V1372.71H31.2756V1362.4H29.7421ZM36.7603 1372.83C36.4196 1372.83 36.1337 1372.71 35.9029 1372.48C35.672 1372.25 35.5566 1371.96 35.5566 1371.62C35.5566 1371.28 35.672 1371 35.9029 1370.76C36.1337 1370.53 36.4196 1370.42 36.7603 1370.42C37.0901 1370.42 37.3705 1370.53 37.6013 1370.76C37.8322 1371 37.9476 1371.28 37.9476 1371.62C37.9476 1371.96 37.8322 1372.25 37.6013 1372.48C37.3705 1372.71 37.0901 1372.83 36.7603 1372.83ZM40.7709 1370.15C41.8263 1369.24 42.6563 1368.49 43.2609 1367.91C43.8765 1367.32 44.3877 1366.7 44.7945 1366.06C45.2012 1365.43 45.4046 1364.79 45.4046 1364.15C45.4046 1363.49 45.2452 1362.98 44.9264 1362.6C44.6186 1362.23 44.1294 1362.04 43.4588 1362.04C42.8102 1362.04 42.3045 1362.25 41.9417 1362.67C41.5899 1363.07 41.403 1363.62 41.381 1364.32H39.5671C39.6001 1363.06 39.9739 1362.11 40.6884 1361.45C41.414 1360.78 42.332 1360.44 43.4423 1360.44C44.6406 1360.44 45.575 1360.77 46.2456 1361.43C46.9272 1362.09 47.268 1362.97 47.268 1364.07C47.268 1364.86 47.0646 1365.62 46.6578 1366.36C46.2621 1367.09 45.7839 1367.74 45.2232 1368.32C44.6735 1368.9 43.97 1369.56 43.1125 1370.32L42.3704 1370.98H47.5978V1372.55H39.5836V1371.18L40.7709 1370.15ZM62.0746 1364.55C61.7777 1363.98 61.3655 1363.55 60.8378 1363.26C60.3101 1362.96 59.7 1362.82 59.0074 1362.82C58.2489 1362.82 57.5728 1362.99 56.9791 1363.33C56.3855 1363.67 55.9183 1364.15 55.5775 1364.78C55.2477 1365.4 55.0828 1366.13 55.0828 1366.95C55.0828 1367.78 55.2477 1368.51 55.5775 1369.15C55.9183 1369.77 56.3855 1370.26 56.9791 1370.6C57.5728 1370.94 58.2489 1371.11 59.0074 1371.11C60.0298 1371.11 60.8598 1370.82 61.4974 1370.25C62.135 1369.68 62.5253 1368.91 62.6682 1367.93H58.3643V1366.43H64.68V1367.89C64.5591 1368.79 64.2402 1369.6 63.7236 1370.35C63.2179 1371.1 62.5528 1371.7 61.7283 1372.15C60.9148 1372.59 60.0078 1372.81 59.0074 1372.81C57.9301 1372.81 56.9462 1372.56 56.0557 1372.07C55.1652 1371.56 54.4562 1370.86 53.9285 1369.97C53.4118 1369.08 53.1535 1368.08 53.1535 1366.95C53.1535 1365.83 53.4118 1364.83 53.9285 1363.94C54.4562 1363.05 55.1652 1362.35 56.0557 1361.86C56.9572 1361.35 57.9411 1361.1 59.0074 1361.1C60.2277 1361.1 61.3105 1361.4 62.2559 1362.01C63.2124 1362.6 63.9049 1363.45 64.3337 1364.55H62.0746ZM72.6684 1366.82C73.284 1366.93 73.8062 1367.26 74.2349 1367.8C74.6636 1368.33 74.878 1368.94 74.878 1369.63C74.878 1370.21 74.7241 1370.74 74.4163 1371.21C74.1195 1371.67 73.6852 1372.04 73.1136 1372.31C72.5419 1372.58 71.8768 1372.71 71.1183 1372.71H66.5341V1361.25H70.9039C71.6845 1361.25 72.355 1361.38 72.9157 1361.65C73.4764 1361.91 73.8996 1362.27 74.1854 1362.72C74.4713 1363.16 74.6142 1363.65 74.6142 1364.2C74.6142 1364.86 74.4383 1365.41 74.0865 1365.85C73.7347 1366.29 73.262 1366.61 72.6684 1366.82ZM68.4139 1366.06H70.739C71.3547 1366.06 71.8329 1365.93 72.1737 1365.65C72.5254 1365.37 72.7013 1364.96 72.7013 1364.43C72.7013 1363.92 72.5254 1363.51 72.1737 1363.23C71.8329 1362.93 71.3547 1362.78 70.739 1362.78H68.4139V1366.06ZM70.9534 1371.18C71.591 1371.18 72.0912 1371.02 72.454 1370.71C72.8168 1370.41 72.9982 1369.98 72.9982 1369.43C72.9982 1368.87 72.8058 1368.42 72.421 1368.09C72.0362 1367.76 71.525 1367.6 70.8874 1367.6H68.4139V1371.18H70.9534ZM85.1455 1372.86C84.288 1372.86 83.513 1372.67 82.8204 1372.28C82.1278 1371.89 81.5836 1371.34 81.1879 1370.63C80.7921 1369.92 80.5942 1369.09 80.5942 1368.16C80.5942 1367.24 80.7976 1366.42 81.2044 1365.7C81.6111 1364.99 82.1663 1364.44 82.8699 1364.05C83.5734 1363.67 84.3595 1363.48 85.2279 1363.48C86.0964 1363.48 86.8824 1363.67 87.586 1364.05C88.2896 1364.44 88.8447 1364.99 89.2515 1365.7C89.6582 1366.42 89.8616 1367.24 89.8616 1368.16C89.8616 1369.08 89.6528 1369.9 89.235 1370.62C88.8173 1371.33 88.2456 1371.89 87.52 1372.28C86.8055 1372.67 86.014 1372.86 85.1455 1372.86ZM85.1455 1371.23C85.6292 1371.23 86.0799 1371.11 86.4977 1370.88C86.9264 1370.65 87.2727 1370.3 87.5365 1369.84C87.8004 1369.38 87.9323 1368.82 87.9323 1368.16C87.9323 1367.5 87.8059 1366.94 87.553 1366.49C87.3002 1366.03 86.9649 1365.69 86.5471 1365.45C86.1294 1365.22 85.6787 1365.11 85.195 1365.11C84.7112 1365.11 84.2605 1365.22 83.8428 1365.45C83.436 1365.69 83.1117 1366.03 82.8699 1366.49C82.628 1366.94 82.5071 1367.5 82.5071 1368.16C82.5071 1369.14 82.7544 1369.9 83.2491 1370.43C83.7548 1370.96 84.3869 1371.23 85.1455 1371.23ZM95.5292 1365.16H93.8472V1372.71H91.9508V1365.16H90.879V1363.62H91.9508V1362.98C91.9508 1361.94 92.2257 1361.18 92.7753 1360.71C93.336 1360.22 94.21 1359.98 95.3972 1359.98V1361.55C94.8256 1361.55 94.4243 1361.66 94.1935 1361.88C93.9626 1362.08 93.8472 1362.45 93.8472 1362.98V1363.62H95.5292V1365.16ZM101.198 1363.66C101.264 1362.63 101.655 1361.84 102.369 1361.27C103.095 1360.69 104.018 1360.41 105.139 1360.41C105.909 1360.41 106.574 1360.55 107.135 1360.82C107.695 1361.1 108.119 1361.47 108.405 1361.94C108.69 1362.41 108.833 1362.95 108.833 1363.54C108.833 1364.22 108.652 1364.81 108.289 1365.29C107.926 1365.77 107.492 1366.1 106.986 1366.26V1366.33C107.635 1366.53 108.141 1366.89 108.503 1367.42C108.866 1367.93 109.048 1368.6 109.048 1369.41C109.048 1370.06 108.899 1370.64 108.602 1371.14C108.306 1371.65 107.866 1372.05 107.283 1372.35C106.701 1372.63 106.002 1372.78 105.189 1372.78C104.002 1372.78 103.023 1372.47 102.254 1371.87C101.495 1371.25 101.088 1370.37 101.033 1369.23H102.847C102.891 1369.81 103.117 1370.29 103.523 1370.67C103.93 1371.03 104.48 1371.21 105.172 1371.21C105.843 1371.21 106.36 1371.03 106.723 1370.67C107.085 1370.29 107.267 1369.81 107.267 1369.23C107.267 1368.46 107.019 1367.92 106.525 1367.6C106.041 1367.27 105.293 1367.1 104.282 1367.1H103.853V1365.55H104.298C105.189 1365.54 105.865 1365.39 106.327 1365.11C106.799 1364.82 107.036 1364.37 107.036 1363.76C107.036 1363.23 106.865 1362.81 106.525 1362.5C106.184 1362.18 105.7 1362.02 105.074 1362.02C104.458 1362.02 103.98 1362.18 103.639 1362.5C103.298 1362.81 103.095 1363.2 103.029 1363.66H101.198ZM111.022 1366.54C111.022 1364.64 111.341 1363.16 111.979 1362.09C112.627 1361.01 113.738 1360.47 115.31 1360.47C116.882 1360.47 117.987 1361.01 118.624 1362.09C119.273 1363.16 119.597 1364.64 119.597 1366.54C119.597 1368.47 119.273 1369.97 118.624 1371.06C117.987 1372.14 116.882 1372.68 115.31 1372.68C113.738 1372.68 112.627 1372.14 111.979 1371.06C111.341 1369.97 111.022 1368.47 111.022 1366.54ZM117.75 1366.54C117.75 1365.65 117.69 1364.9 117.569 1364.28C117.459 1363.67 117.228 1363.17 116.876 1362.78C116.524 1362.39 116.002 1362.19 115.31 1362.19C114.617 1362.19 114.095 1362.39 113.743 1362.78C113.391 1363.17 113.155 1363.67 113.034 1364.28C112.924 1364.9 112.869 1365.65 112.869 1366.54C112.869 1367.47 112.924 1368.24 113.034 1368.87C113.144 1369.49 113.375 1370 113.727 1370.38C114.089 1370.77 114.617 1370.96 115.31 1370.96C116.002 1370.96 116.524 1370.77 116.876 1370.38C117.239 1370 117.475 1369.49 117.585 1368.87C117.695 1368.24 117.75 1367.47 117.75 1366.54ZM134.412 1364.55C134.115 1363.98 133.702 1363.55 133.175 1363.26C132.647 1362.96 132.037 1362.82 131.344 1362.82C130.586 1362.82 129.91 1362.99 129.316 1363.33C128.723 1363.67 128.255 1364.15 127.914 1364.78C127.585 1365.4 127.42 1366.13 127.42 1366.95C127.42 1367.78 127.585 1368.51 127.914 1369.15C128.255 1369.77 128.723 1370.26 129.316 1370.6C129.91 1370.94 130.586 1371.11 131.344 1371.11C132.367 1371.11 133.197 1370.82 133.834 1370.25C134.472 1369.68 134.862 1368.91 135.005 1367.93H130.701V1366.43H137.017V1367.89C136.896 1368.79 136.577 1369.6 136.061 1370.35C135.555 1371.1 134.89 1371.7 134.065 1372.15C133.252 1372.59 132.345 1372.81 131.344 1372.81C130.267 1372.81 129.283 1372.56 128.393 1372.07C127.502 1371.56 126.793 1370.86 126.265 1369.97C125.749 1369.08 125.49 1368.08 125.49 1366.95C125.49 1365.83 125.749 1364.83 126.265 1363.94C126.793 1363.05 127.502 1362.35 128.393 1361.86C129.294 1361.35 130.278 1361.1 131.344 1361.1C132.565 1361.1 133.648 1361.4 134.593 1362.01C135.549 1362.6 136.242 1363.45 136.671 1364.55H134.412ZM145.005 1366.82C145.621 1366.93 146.143 1367.26 146.572 1367.8C147.001 1368.33 147.215 1368.94 147.215 1369.63C147.215 1370.21 147.061 1370.74 146.753 1371.21C146.456 1371.67 146.022 1372.04 145.451 1372.31C144.879 1372.58 144.214 1372.71 143.455 1372.71H138.871V1361.25H143.241C144.021 1361.25 144.692 1361.38 145.253 1361.65C145.813 1361.91 146.237 1362.27 146.522 1362.72C146.808 1363.16 146.951 1363.65 146.951 1364.2C146.951 1364.86 146.775 1365.41 146.423 1365.85C146.072 1366.29 145.599 1366.61 145.005 1366.82ZM140.751 1366.06H143.076C143.692 1366.06 144.17 1365.93 144.511 1365.65C144.862 1365.37 145.038 1364.96 145.038 1364.43C145.038 1363.92 144.862 1363.51 144.511 1363.23C144.17 1362.93 143.692 1362.78 143.076 1362.78H140.751V1366.06ZM143.29 1371.18C143.928 1371.18 144.428 1371.02 144.791 1370.71C145.154 1370.41 145.335 1369.98 145.335 1369.43C145.335 1368.87 145.143 1368.42 144.758 1368.09C144.373 1367.76 143.862 1367.6 143.224 1367.6H140.751V1371.18H143.29ZM155.405 1361.25V1368.55C155.405 1369.42 155.63 1370.08 156.081 1370.52C156.543 1370.96 157.18 1371.18 157.994 1371.18C158.818 1371.18 159.456 1370.96 159.907 1370.52C160.368 1370.08 160.599 1369.42 160.599 1368.55V1361.25H162.479V1368.52C162.479 1369.46 162.276 1370.25 161.869 1370.9C161.462 1371.54 160.918 1372.03 160.236 1372.35C159.555 1372.67 158.802 1372.83 157.977 1372.83C157.153 1372.83 156.4 1372.67 155.718 1372.35C155.047 1372.03 154.514 1371.54 154.119 1370.9C153.723 1370.25 153.525 1369.46 153.525 1368.52V1361.25H155.405ZM168.225 1372.86C167.51 1372.86 166.867 1372.73 166.295 1372.48C165.735 1372.22 165.289 1371.86 164.96 1371.42C164.63 1370.97 164.454 1370.47 164.432 1369.92H166.378C166.411 1370.31 166.592 1370.63 166.922 1370.9C167.263 1371.15 167.686 1371.28 168.192 1371.28C168.719 1371.28 169.126 1371.18 169.412 1370.98C169.709 1370.77 169.857 1370.51 169.857 1370.19C169.857 1369.85 169.692 1369.59 169.362 1369.43C169.044 1369.26 168.532 1369.08 167.829 1368.88C167.147 1368.7 166.592 1368.52 166.163 1368.34C165.735 1368.16 165.361 1367.89 165.042 1367.53C164.734 1367.17 164.58 1366.69 164.58 1366.1C164.58 1365.61 164.723 1365.17 165.009 1364.78C165.295 1364.37 165.702 1364.05 166.229 1363.82C166.768 1363.59 167.384 1363.48 168.076 1363.48C169.11 1363.48 169.94 1363.74 170.566 1364.27C171.204 1364.78 171.545 1365.49 171.589 1366.39H169.709C169.676 1365.99 169.511 1365.66 169.214 1365.42C168.917 1365.18 168.516 1365.06 168.01 1365.06C167.515 1365.06 167.136 1365.15 166.872 1365.34C166.609 1365.53 166.477 1365.77 166.477 1366.08C166.477 1366.32 166.565 1366.53 166.74 1366.69C166.916 1366.86 167.131 1366.99 167.384 1367.09C167.636 1367.17 168.01 1367.29 168.505 1367.43C169.164 1367.61 169.703 1367.79 170.121 1367.98C170.55 1368.15 170.918 1368.42 171.226 1368.77C171.534 1369.12 171.693 1369.59 171.704 1370.17C171.704 1370.69 171.561 1371.15 171.275 1371.56C170.989 1371.96 170.583 1372.28 170.055 1372.51C169.538 1372.74 168.928 1372.86 168.225 1372.86ZM182.063 1367.94C182.063 1368.29 182.041 1368.59 181.997 1368.87H175.054C175.109 1369.59 175.379 1370.18 175.862 1370.62C176.346 1371.06 176.94 1371.28 177.643 1371.28C178.655 1371.28 179.369 1370.85 179.787 1370.01H181.815C181.54 1370.84 181.04 1371.53 180.315 1372.07C179.6 1372.59 178.71 1372.86 177.643 1372.86C176.775 1372.86 175.994 1372.67 175.302 1372.28C174.62 1371.89 174.081 1371.34 173.686 1370.63C173.301 1369.92 173.109 1369.09 173.109 1368.16C173.109 1367.22 173.295 1366.41 173.669 1365.7C174.054 1364.99 174.587 1364.44 175.269 1364.05C175.961 1363.67 176.753 1363.48 177.643 1363.48C178.501 1363.48 179.265 1363.66 179.935 1364.04C180.606 1364.41 181.128 1364.94 181.502 1365.62C181.876 1366.29 182.063 1367.06 182.063 1367.94ZM180.1 1367.35C180.089 1366.66 179.842 1366.1 179.358 1365.69C178.875 1365.27 178.275 1365.06 177.561 1365.06C176.912 1365.06 176.357 1365.27 175.895 1365.69C175.434 1366.09 175.159 1366.65 175.071 1367.35H180.1ZM183.286 1368.13C183.286 1367.21 183.473 1366.41 183.847 1365.7C184.231 1365 184.748 1364.45 185.397 1364.07C186.056 1363.67 186.787 1363.48 187.59 1363.48C188.184 1363.48 188.766 1363.61 189.338 1363.87C189.92 1364.12 190.382 1364.46 190.723 1364.89V1360.51H192.619V1372.71H190.723V1371.34C190.415 1371.78 189.986 1372.14 189.437 1372.43C188.898 1372.72 188.277 1372.86 187.573 1372.86C186.782 1372.86 186.056 1372.66 185.397 1372.26C184.748 1371.86 184.231 1371.3 183.847 1370.58C183.473 1369.86 183.286 1369.04 183.286 1368.13ZM190.723 1368.16C190.723 1367.53 190.591 1366.99 190.327 1366.53C190.074 1366.06 189.739 1365.71 189.321 1365.47C188.904 1365.23 188.453 1365.11 187.969 1365.11C187.485 1365.11 187.035 1365.23 186.617 1365.47C186.199 1365.7 185.858 1366.05 185.595 1366.51C185.342 1366.96 185.215 1367.5 185.215 1368.13C185.215 1368.75 185.342 1369.3 185.595 1369.77C185.858 1370.25 186.199 1370.61 186.617 1370.86C187.046 1371.1 187.496 1371.23 187.969 1371.23C188.453 1371.23 188.904 1371.1 189.321 1370.86C189.739 1370.62 190.074 1370.27 190.327 1369.81C190.591 1369.34 190.723 1368.79 190.723 1368.16Z" fill="#545C81"/>
<rect opacity="0.35" x="29" y="1333.43" width="242" height="12" rx="6" fill="#D2D5E1"/>
<rect x="29" y="1333.43" width="139.176" height="12" rx="6" fill="#25CCDE"/>
<path d="M46.8191 1407.15C47.2671 1407.23 47.6471 1407.46 47.9591 1407.85C48.2711 1408.25 48.4271 1408.69 48.4271 1409.19C48.4271 1409.61 48.3151 1409.99 48.0911 1410.34C47.8751 1410.67 47.5591 1410.94 47.1431 1411.14C46.7271 1411.33 46.2431 1411.43 45.6911 1411.43H42.3551V1403.09H45.5351C46.1031 1403.09 46.5911 1403.19 46.9991 1403.38C47.4071 1403.57 47.7151 1403.83 47.9231 1404.16C48.1311 1404.48 48.2351 1404.84 48.2351 1405.24C48.2351 1405.72 48.1071 1406.12 47.8511 1406.44C47.5951 1406.76 47.2511 1406.99 46.8191 1407.15ZM43.7231 1406.59H45.4151C45.8631 1406.59 46.2111 1406.49 46.4591 1406.29C46.7151 1406.09 46.8431 1405.79 46.8431 1405.41C46.8431 1405.03 46.7151 1404.74 46.4591 1404.53C46.2111 1404.31 45.8631 1404.21 45.4151 1404.21H43.7231V1406.59ZM45.5711 1410.31C46.0351 1410.31 46.3991 1410.2 46.6631 1409.98C46.9271 1409.75 47.0591 1409.44 47.0591 1409.04C47.0591 1408.63 46.9191 1408.31 46.6391 1408.07C46.3591 1407.83 45.9871 1407.71 45.5231 1407.71H43.7231V1410.31H45.5711ZM55.9017 1404.82V1411.43H54.5337V1410.65C54.3177 1410.92 54.0337 1411.14 53.6817 1411.3C53.3377 1411.45 52.9697 1411.53 52.5777 1411.53C52.0577 1411.53 51.5897 1411.42 51.1737 1411.2C50.7657 1410.99 50.4417 1410.67 50.2017 1410.24C49.9697 1409.82 49.8537 1409.31 49.8537 1408.71V1404.82H51.2097V1408.5C51.2097 1409.09 51.3577 1409.55 51.6537 1409.87C51.9497 1410.18 52.3537 1410.34 52.8657 1410.34C53.3777 1410.34 53.7817 1410.18 54.0777 1409.87C54.3817 1409.55 54.5337 1409.09 54.5337 1408.5V1404.82H55.9017ZM63.6586 1404.82L59.6026 1414.54H58.1866L59.5306 1411.32L56.9266 1404.82H58.4506L60.3106 1409.86L62.2426 1404.82H63.6586ZM70.5562 1411.51C69.9962 1411.51 69.4922 1411.42 69.0442 1411.23C68.5962 1411.03 68.2442 1410.75 67.9882 1410.39C67.7322 1410.03 67.6042 1409.61 67.6042 1409.13H69.0682C69.1002 1409.49 69.2402 1409.78 69.4882 1410.01C69.7442 1410.25 70.1002 1410.36 70.5562 1410.36C71.0282 1410.36 71.3962 1410.25 71.6602 1410.03C71.9242 1409.79 72.0562 1409.5 72.0562 1409.14C72.0562 1408.86 71.9722 1408.63 71.8042 1408.45C71.6442 1408.28 71.4402 1408.14 71.1922 1408.05C70.9522 1407.95 70.6162 1407.85 70.1842 1407.73C69.6402 1407.59 69.1962 1407.45 68.8522 1407.3C68.5162 1407.15 68.2282 1406.92 67.9882 1406.61C67.7482 1406.29 67.6282 1405.88 67.6282 1405.36C67.6282 1404.88 67.7482 1404.46 67.9882 1404.1C68.2282 1403.74 68.5642 1403.46 68.9962 1403.27C69.4282 1403.08 69.9282 1402.98 70.4962 1402.98C71.3042 1402.98 71.9642 1403.19 72.4762 1403.59C72.9962 1403.99 73.2842 1404.55 73.3402 1405.25H71.8282C71.8042 1404.95 71.6602 1404.69 71.3962 1404.47C71.1322 1404.25 70.7842 1404.15 70.3522 1404.15C69.9602 1404.15 69.6402 1404.25 69.3922 1404.45C69.1442 1404.65 69.0202 1404.93 69.0202 1405.31C69.0202 1405.57 69.0962 1405.78 69.2482 1405.95C69.4082 1406.11 69.6082 1406.23 69.8482 1406.33C70.0882 1406.43 70.4162 1406.53 70.8322 1406.64C71.3842 1406.79 71.8322 1406.95 72.1762 1407.1C72.5282 1407.25 72.8242 1407.49 73.0642 1407.81C73.3122 1408.12 73.4362 1408.54 73.4362 1409.07C73.4362 1409.49 73.3202 1409.89 73.0882 1410.27C72.8642 1410.64 72.5322 1410.95 72.0922 1411.18C71.6602 1411.4 71.1482 1411.51 70.5562 1411.51ZM76.6464 1405.93V1409.59C76.6464 1409.84 76.7024 1410.02 76.8144 1410.13C76.9344 1410.24 77.1344 1410.29 77.4144 1410.29H78.2544V1411.43H77.1744C76.5584 1411.43 76.0864 1411.29 75.7584 1411C75.4304 1410.71 75.2664 1410.24 75.2664 1409.59V1405.93H74.4864V1404.82H75.2664V1403.17H76.6464V1404.82H78.2544V1405.93H76.6464ZM82.3832 1411.54C81.7592 1411.54 81.1952 1411.4 80.6912 1411.12C80.1872 1410.83 79.7912 1410.43 79.5032 1409.92C79.2152 1409.4 79.0712 1408.8 79.0712 1408.12C79.0712 1407.45 79.2192 1406.85 79.5152 1406.33C79.8112 1405.81 80.2152 1405.41 80.7272 1405.13C81.2392 1404.85 81.8112 1404.71 82.4432 1404.71C83.0752 1404.71 83.6472 1404.85 84.1592 1405.13C84.6712 1405.41 85.0752 1405.81 85.3712 1406.33C85.6672 1406.85 85.8152 1407.45 85.8152 1408.12C85.8152 1408.79 85.6632 1409.39 85.3592 1409.91C85.0552 1410.43 84.6392 1410.83 84.1112 1411.12C83.5912 1411.4 83.0152 1411.54 82.3832 1411.54ZM82.3832 1410.35C82.7352 1410.35 83.0632 1410.27 83.3672 1410.1C83.6792 1409.93 83.9312 1409.68 84.1232 1409.34C84.3152 1409.01 84.4112 1408.6 84.4112 1408.12C84.4112 1407.64 84.3192 1407.23 84.1352 1406.91C83.9512 1406.57 83.7072 1406.32 83.4032 1406.15C83.0992 1405.98 82.7712 1405.9 82.4192 1405.9C82.0672 1405.9 81.7392 1405.98 81.4352 1406.15C81.1392 1406.32 80.9032 1406.57 80.7272 1406.91C80.5512 1407.23 80.4632 1407.64 80.4632 1408.12C80.4632 1408.83 80.6432 1409.38 81.0032 1409.77C81.3712 1410.16 81.8312 1410.35 82.3832 1410.35ZM88.5356 1405.78C88.7356 1405.44 88.9996 1405.18 89.3276 1405C89.6636 1404.81 90.0596 1404.71 90.5156 1404.71V1406.13H90.1676C89.6316 1406.13 89.2236 1406.26 88.9436 1406.53C88.6716 1406.81 88.5356 1407.28 88.5356 1407.95V1411.43H87.1676V1404.82H88.5356V1405.78ZM91.317 1408.09C91.317 1407.43 91.453 1406.84 91.725 1406.33C92.005 1405.82 92.381 1405.42 92.853 1405.14C93.333 1404.85 93.861 1404.71 94.437 1404.71C94.957 1404.71 95.409 1404.81 95.793 1405.02C96.185 1405.22 96.497 1405.47 96.729 1405.78V1404.82H98.109V1411.43H96.729V1410.45C96.497 1410.76 96.181 1411.02 95.781 1411.23C95.381 1411.43 94.925 1411.54 94.413 1411.54C93.845 1411.54 93.325 1411.39 92.853 1411.11C92.381 1410.81 92.005 1410.4 91.725 1409.88C91.453 1409.35 91.317 1408.76 91.317 1408.09ZM96.729 1408.12C96.729 1407.66 96.633 1407.27 96.441 1406.93C96.257 1406.59 96.013 1406.34 95.709 1406.16C95.405 1405.99 95.077 1405.9 94.725 1405.9C94.373 1405.9 94.045 1405.99 93.741 1406.16C93.437 1406.33 93.189 1406.58 92.997 1406.92C92.813 1407.25 92.721 1407.64 92.721 1408.09C92.721 1408.55 92.813 1408.95 92.997 1409.29C93.189 1409.64 93.437 1409.9 93.741 1410.09C94.053 1410.26 94.381 1410.35 94.725 1410.35C95.077 1410.35 95.405 1410.26 95.709 1410.09C96.013 1409.91 96.257 1409.65 96.441 1409.32C96.633 1408.97 96.729 1408.57 96.729 1408.12ZM102.57 1404.71C103.082 1404.71 103.534 1404.81 103.926 1405.02C104.326 1405.22 104.638 1405.47 104.862 1405.78V1404.82H106.242V1411.54C106.242 1412.15 106.114 1412.69 105.858 1413.16C105.602 1413.64 105.23 1414.01 104.742 1414.29C104.262 1414.56 103.686 1414.69 103.014 1414.69C102.118 1414.69 101.374 1414.48 100.782 1414.06C100.19 1413.64 99.8539 1413.07 99.7739 1412.35H101.13C101.234 1412.7 101.454 1412.97 101.79 1413.18C102.134 1413.4 102.542 1413.51 103.014 1413.51C103.566 1413.51 104.01 1413.34 104.346 1413C104.69 1412.67 104.862 1412.18 104.862 1411.54V1410.43C104.63 1410.75 104.314 1411.01 103.914 1411.23C103.522 1411.43 103.074 1411.54 102.57 1411.54C101.994 1411.54 101.466 1411.39 100.986 1411.11C100.514 1410.81 100.138 1410.4 99.8579 1409.88C99.5859 1409.35 99.4499 1408.76 99.4499 1408.09C99.4499 1407.43 99.5859 1406.84 99.8579 1406.33C100.138 1405.82 100.514 1405.42 100.986 1405.14C101.466 1404.85 101.994 1404.71 102.57 1404.71ZM104.862 1408.12C104.862 1407.66 104.766 1407.27 104.574 1406.93C104.39 1406.59 104.146 1406.34 103.842 1406.16C103.538 1405.99 103.21 1405.9 102.858 1405.9C102.506 1405.9 102.178 1405.99 101.874 1406.16C101.57 1406.33 101.322 1406.58 101.13 1406.92C100.946 1407.25 100.854 1407.64 100.854 1408.09C100.854 1408.55 100.946 1408.95 101.13 1409.29C101.322 1409.64 101.57 1409.9 101.874 1410.09C102.186 1410.26 102.514 1410.35 102.858 1410.35C103.21 1410.35 103.538 1410.26 103.842 1410.09C104.146 1409.91 104.39 1409.65 104.574 1409.32C104.766 1408.97 104.862 1408.57 104.862 1408.12ZM114.099 1407.96C114.099 1408.21 114.083 1408.43 114.051 1408.63H108.999C109.039 1409.16 109.235 1409.59 109.587 1409.91C109.939 1410.23 110.371 1410.39 110.883 1410.39C111.619 1410.39 112.139 1410.08 112.443 1409.46H113.919C113.719 1410.07 113.355 1410.57 112.827 1410.96C112.307 1411.35 111.659 1411.54 110.883 1411.54C110.251 1411.54 109.683 1411.4 109.179 1411.12C108.683 1410.83 108.291 1410.43 108.003 1409.92C107.723 1409.4 107.583 1408.8 107.583 1408.12C107.583 1407.44 107.719 1406.84 107.991 1406.33C108.271 1405.81 108.659 1405.41 109.155 1405.13C109.659 1404.85 110.235 1404.71 110.883 1404.71C111.507 1404.71 112.063 1404.85 112.551 1405.12C113.039 1405.39 113.419 1405.77 113.691 1406.27C113.963 1406.76 114.099 1407.32 114.099 1407.96ZM112.671 1407.53C112.663 1407.03 112.483 1406.62 112.131 1406.32C111.779 1406.01 111.343 1405.86 110.823 1405.86C110.351 1405.86 109.947 1406.01 109.611 1406.32C109.275 1406.61 109.075 1407.02 109.011 1407.53H112.671Z" fill="#545C81"/>
<rect x="29.5" y="1395.93" width="97" height="23" rx="11.5" stroke="#25CCDE"/>
</g>
<defs>
<filter id="filter0_d_418_12272" x="6" y="1280.43" width="288" height="163.57" filterUnits="userSpaceOnUse" color-interpolation-filters="sRGB">
<feFlood flood-opacity="0" result="BackgroundImageFix"/>
<feColorMatrix in="SourceAlpha" type="matrix" values="0 0 0 0 0 0 0 0 0 0 0 0 0 0 0 0 0 0 127 0" result="hardAlpha"/>
<feOffset dy="4"/>
<feGaussianBlur stdDeviation="4"/>
<feComposite in2="hardAlpha" operator="out"/>
<feColorMatrix type="matrix" values="0 0 0 0 0.427451 0 0 0 0 0.392157 0 0 0 0 1 0 0 0 0.2 0"/>
<feBlend mode="normal" in2="BackgroundImageFix" result="effect1_dropShadow_418_12272"/>
<feBlend mode="normal" in="SourceGraphic" in2="effect1_dropShadow_418_12272" result="shape"/>
</filter>
</defs>
</svg>
