<svg width="288" height="164" viewBox="0 0 288 164" fill="none" xmlns="http://www.w3.org/2000/svg">
<g filter="url(#filter0_d_3054_7788)">
<rect x="8" y="4.42969" width="272" height="147.57" rx="20" fill="white" shape-rendering="crispEdges"/>
<path d="M28.013 36.135C27.2434 36.135 26.5508 36.003 25.9352 35.7392C25.3196 35.4644 24.8359 35.0796 24.4841 34.5849C24.1323 34.0902 23.9564 33.5131 23.9564 32.8535H25.9682C26.0122 33.3482 26.2046 33.7549 26.5454 34.0737C26.8971 34.3925 27.3863 34.5519 28.013 34.5519C28.6616 34.5519 29.1673 34.398 29.53 34.0902C29.8928 33.7714 30.0742 33.3646 30.0742 32.8699C30.0742 32.4852 29.9588 32.1719 29.7279 31.93C29.5081 31.6882 29.2277 31.5013 28.8869 31.3694C28.5571 31.2374 28.0954 31.0945 27.5018 30.9406C26.7542 30.7427 26.1441 30.5449 25.6714 30.347C25.2097 30.1381 24.8139 29.8193 24.4841 29.3906C24.1543 28.9618 23.9894 28.3902 23.9894 27.6756C23.9894 27.016 24.1543 26.4388 24.4841 25.9441C24.8139 25.4494 25.2756 25.0702 25.8693 24.8063C26.4629 24.5425 27.15 24.4106 27.9305 24.4106C29.0408 24.4106 29.9478 24.6909 30.6514 25.2516C31.3659 25.8012 31.7617 26.5598 31.8386 27.5272H29.7609C29.7279 27.1094 29.53 26.7522 29.1673 26.4553C28.8045 26.1585 28.3263 26.0101 27.7326 26.0101C27.194 26.0101 26.7542 26.1475 26.4134 26.4224C26.0726 26.6972 25.9022 27.0929 25.9022 27.6096C25.9022 27.9614 26.0067 28.2527 26.2156 28.4836C26.4354 28.7035 26.7103 28.8794 27.0401 29.0113C27.3699 29.1432 27.8206 29.2861 28.3922 29.44C29.1508 29.6489 29.7664 29.8578 30.2391 30.0666C30.7228 30.2755 31.1296 30.5998 31.4594 31.0396C31.8002 31.4683 31.9706 32.0454 31.9706 32.771C31.9706 33.3536 31.8112 33.9033 31.4924 34.42C31.1845 34.9367 30.7283 35.3544 30.1237 35.6732C29.53 35.9811 28.8265 36.135 28.013 36.135ZM36.3819 28.4671V33.4966C36.3819 33.8374 36.4588 34.0847 36.6128 34.2386C36.7777 34.3815 37.0525 34.453 37.4373 34.453H38.5916V36.0195H37.1075C36.261 36.0195 35.6124 35.8217 35.1616 35.4259C34.7109 35.0301 34.4855 34.387 34.4855 33.4966V28.4671H33.4137V26.9335H34.4855V24.6744H36.3819V26.9335H38.5916V28.4671H36.3819ZM44.2653 36.1679C43.4078 36.1679 42.6328 35.9756 41.9402 35.5908C41.2476 35.195 40.7034 34.6454 40.3077 33.9418C39.9119 33.2272 39.714 32.4027 39.714 31.4683C39.714 30.5449 39.9174 29.7258 40.3242 29.0113C40.7309 28.2967 41.2861 27.747 41.9897 27.3623C42.6932 26.9775 43.4792 26.7851 44.3477 26.7851C45.2162 26.7851 46.0022 26.9775 46.7058 27.3623C47.4094 27.747 47.9645 28.2967 48.3713 29.0113C48.778 29.7258 48.9814 30.5449 48.9814 31.4683C48.9814 32.3917 48.7725 33.2107 48.3548 33.9253C47.937 34.6399 47.3654 35.195 46.6398 35.5908C45.9253 35.9756 45.1337 36.1679 44.2653 36.1679ZM44.2653 34.5354C44.749 34.5354 45.1997 34.42 45.6175 34.1891C46.0462 33.9583 46.3925 33.612 46.6563 33.1503C46.9202 32.6886 47.0521 32.1279 47.0521 31.4683C47.0521 30.8087 46.9257 30.2535 46.6728 29.8028C46.42 29.3411 46.0847 28.9948 45.6669 28.7639C45.2492 28.5331 44.7984 28.4176 44.3147 28.4176C43.831 28.4176 43.3803 28.5331 42.9626 28.7639C42.5558 28.9948 42.2315 29.3411 41.9897 29.8028C41.7478 30.2535 41.6269 30.8087 41.6269 31.4683C41.6269 32.4467 41.8742 33.2052 42.3689 33.7439C42.8746 34.2716 43.5067 34.5354 44.2653 34.5354ZM52.7196 28.2527C52.9945 27.791 53.3572 27.4337 53.808 27.1809C54.2697 26.9171 54.8138 26.7851 55.4405 26.7851V28.731H54.9623C54.2257 28.731 53.665 28.9178 53.2803 29.2916C52.9065 29.6654 52.7196 30.314 52.7196 31.2374V36.0195H50.8398V26.9335H52.7196V28.2527ZM56.5418 31.4353C56.5418 30.5229 56.7287 29.7149 57.1025 29.0113C57.4872 28.3077 58.0039 27.7635 58.6525 27.3788C59.3121 26.983 60.0377 26.7851 60.8292 26.7851C61.5438 26.7851 62.1649 26.928 62.6926 27.2139C63.2313 27.4887 63.66 27.835 63.9788 28.2527V26.9335H65.8752V36.0195H63.9788V34.6674C63.66 35.0961 63.2258 35.4534 62.6761 35.7392C62.1264 36.025 61.4998 36.1679 60.7962 36.1679C60.0157 36.1679 59.3011 35.9701 58.6525 35.5743C58.0039 35.1675 57.4872 34.6069 57.1025 33.8923C56.7287 33.1668 56.5418 32.3478 56.5418 31.4353ZM63.9788 31.4683C63.9788 30.8417 63.8469 30.2975 63.5831 29.8358C63.3302 29.3741 62.9949 29.0223 62.5772 28.7804C62.1594 28.5386 61.7087 28.4176 61.225 28.4176C60.7413 28.4176 60.2905 28.5386 59.8728 28.7804C59.4551 29.0113 59.1143 29.3576 58.8504 29.8193C58.5976 30.27 58.4712 30.8087 58.4712 31.4353C58.4712 32.0619 58.5976 32.6116 58.8504 33.0843C59.1143 33.557 59.4551 33.9198 59.8728 34.1727C60.3015 34.4145 60.7523 34.5354 61.225 34.5354C61.7087 34.5354 62.1594 34.4145 62.5772 34.1727C62.9949 33.9308 63.3302 33.579 63.5831 33.1173C63.8469 32.6446 63.9788 32.0949 63.9788 31.4683ZM72.0051 26.7851C72.7086 26.7851 73.3298 26.928 73.8684 27.2139C74.4181 27.4887 74.8468 27.835 75.1546 28.2527V26.9335H77.051V36.1679C77.051 37.0034 76.8751 37.7455 76.5233 38.3941C76.1715 39.0537 75.6603 39.5704 74.9897 39.9442C74.3301 40.3179 73.5386 40.5048 72.6152 40.5048C71.3839 40.5048 70.3616 40.2135 69.548 39.6308C68.7345 39.0592 68.2728 38.2787 68.1629 37.2893H70.0263C70.1692 37.762 70.4715 38.1412 70.9332 38.4271C71.4059 38.7239 71.9666 38.8723 72.6152 38.8723C73.3737 38.8723 73.9839 38.6414 74.4456 38.1797C74.9183 37.718 75.1546 37.0474 75.1546 36.1679V34.6509C74.8358 35.0796 74.4016 35.4424 73.8519 35.7392C73.3133 36.025 72.6976 36.1679 72.0051 36.1679C71.2135 36.1679 70.488 35.9701 69.8284 35.5743C69.1798 35.1675 68.6631 34.6069 68.2783 33.8923C67.9045 33.1668 67.7177 32.3478 67.7177 31.4353C67.7177 30.5229 67.9045 29.7149 68.2783 29.0113C68.6631 28.3077 69.1798 27.7635 69.8284 27.3788C70.488 26.983 71.2135 26.7851 72.0051 26.7851ZM75.1546 31.4683C75.1546 30.8417 75.0227 30.2975 74.7589 29.8358C74.506 29.3741 74.1707 29.0223 73.753 28.7804C73.3353 28.5386 72.8845 28.4176 72.4008 28.4176C71.9171 28.4176 71.4664 28.5386 71.0486 28.7804C70.6309 29.0113 70.2901 29.3576 70.0263 29.8193C69.7734 30.27 69.647 30.8087 69.647 31.4353C69.647 32.0619 69.7734 32.6116 70.0263 33.0843C70.2901 33.557 70.6309 33.9198 71.0486 34.1727C71.4774 34.4145 71.9281 34.5354 72.4008 34.5354C72.8845 34.5354 73.3353 34.4145 73.753 34.1727C74.1707 33.9308 74.506 33.579 74.7589 33.1173C75.0227 32.6446 75.1546 32.0949 75.1546 31.4683ZM87.8476 31.2539C87.8476 31.5947 87.8256 31.9025 87.7816 32.1774H80.8393C80.8943 32.9029 81.1636 33.4856 81.6473 33.9253C82.131 34.365 82.7247 34.5849 83.4282 34.5849C84.4396 34.5849 85.1542 34.1617 85.5719 33.3152H87.6002C87.3254 34.1507 86.8252 34.8377 86.0996 35.3764C85.3851 35.9041 84.4946 36.1679 83.4282 36.1679C82.5598 36.1679 81.7792 35.9756 81.0867 35.5908C80.4051 35.195 79.8664 34.6454 79.4706 33.9418C79.0859 33.2272 78.8935 32.4027 78.8935 31.4683C78.8935 30.5339 79.0804 29.7149 79.4542 29.0113C79.8389 28.2967 80.3721 27.747 81.0537 27.3623C81.7463 26.9775 82.5378 26.7851 83.4282 26.7851C84.2857 26.7851 85.0498 26.972 85.7204 27.3458C86.391 27.7196 86.9131 28.2472 87.2869 28.9288C87.6607 29.5994 87.8476 30.3745 87.8476 31.2539ZM85.8853 30.6603C85.8743 29.9677 85.6269 29.4125 85.1432 28.9948C84.6595 28.577 84.0604 28.3682 83.3458 28.3682C82.6972 28.3682 82.142 28.577 81.6803 28.9948C81.2186 29.4015 80.9438 29.9567 80.8558 30.6603H85.8853Z" fill="#545C81"/>
<path d="M23.7421 82.4037V80.6888H27.172V92.71H25.2756V82.4037H23.7421ZM30.7603 92.8254C30.4196 92.8254 30.1337 92.71 29.9029 92.4791C29.672 92.2482 29.5566 91.9624 29.5566 91.6216C29.5566 91.2808 29.672 90.995 29.9029 90.7641C30.1337 90.5333 30.4196 90.4179 30.7603 90.4179C31.0901 90.4179 31.3705 90.5333 31.6013 90.7641C31.8322 90.995 31.9476 91.2808 31.9476 91.6216C31.9476 91.9624 31.8322 92.2482 31.6013 92.4791C31.3705 92.71 31.0901 92.8254 30.7603 92.8254ZM34.7709 90.154C35.8263 89.2416 36.6563 88.494 37.2609 87.9114C37.8765 87.3177 38.3877 86.7021 38.7945 86.0645C39.2012 85.4269 39.4046 84.7893 39.4046 84.1517C39.4046 83.4921 39.2452 82.9754 38.9264 82.6016C38.6186 82.2278 38.1294 82.0409 37.4588 82.0409C36.8102 82.0409 36.3045 82.2498 35.9417 82.6676C35.5899 83.0743 35.403 83.624 35.381 84.3166H33.5671C33.6001 83.0633 33.9739 82.1069 34.6884 81.4473C35.414 80.7767 36.332 80.4414 37.4423 80.4414C38.6406 80.4414 39.575 80.7712 40.2456 81.4308C40.9272 82.0904 41.268 82.9699 41.268 84.0692C41.268 84.8607 41.0646 85.6248 40.6578 86.3613C40.2621 87.0869 39.7839 87.741 39.2232 88.3236C38.6735 88.8953 37.97 89.5604 37.1125 90.3189L36.3704 90.9785H41.5978V92.5451H33.5836V91.1764L34.7709 90.154ZM56.0746 84.5474C55.7777 83.9758 55.3655 83.547 54.8378 83.2612C54.3101 82.9644 53.7 82.816 53.0074 82.816C52.2489 82.816 51.5728 82.9864 50.9791 83.3272C50.3855 83.6679 49.9183 84.1517 49.5775 84.7783C49.2477 85.4049 49.0828 86.1305 49.0828 86.955C49.0828 87.7795 49.2477 88.5105 49.5775 89.1481C49.9183 89.7747 50.3855 90.2584 50.9791 90.5992C51.5728 90.94 52.2489 91.1104 53.0074 91.1104C54.0298 91.1104 54.8598 90.8246 55.4974 90.253C56.135 89.6813 56.5253 88.9063 56.6682 87.9279H52.3643V86.4273H58.68V87.8949C58.5591 88.7853 58.2402 89.6043 57.7236 90.3519C57.2179 91.0994 56.5528 91.6986 55.7283 92.1493C54.9148 92.589 54.0078 92.8089 53.0074 92.8089C51.9301 92.8089 50.9462 92.5616 50.0557 92.0669C49.1652 91.5612 48.4562 90.8631 47.9285 89.9726C47.4118 89.0822 47.1535 88.0763 47.1535 86.955C47.1535 85.8336 47.4118 84.8277 47.9285 83.9373C48.4562 83.0468 49.1652 82.3542 50.0557 81.8595C50.9572 81.3538 51.9411 81.101 53.0074 81.101C54.2277 81.101 55.3105 81.4033 56.2559 82.008C57.2124 82.6016 57.9049 83.4481 58.3337 84.5474H56.0746ZM66.6684 86.823C67.284 86.933 67.8062 87.2573 68.2349 87.7959C68.6636 88.3346 68.878 88.9447 68.878 89.6263C68.878 90.209 68.7241 90.7367 68.4163 91.2094C68.1195 91.6711 67.6852 92.0394 67.1136 92.3142C66.5419 92.578 65.8768 92.71 65.1183 92.71H60.5341V81.2494H64.9039C65.6845 81.2494 66.355 81.3813 66.9157 81.6452C67.4764 81.909 67.8996 82.2663 68.1854 82.717C68.4713 83.1568 68.6142 83.6515 68.6142 84.2011C68.6142 84.8607 68.4383 85.4104 68.0865 85.8501C67.7347 86.2899 67.262 86.6142 66.6684 86.823ZM62.4139 86.0645H64.739C65.3547 86.0645 65.8329 85.9271 66.1737 85.6522C66.5254 85.3664 66.7013 84.9597 66.7013 84.432C66.7013 83.9153 66.5254 83.514 66.1737 83.2282C65.8329 82.9314 65.3547 82.783 64.739 82.783H62.4139V86.0645ZM64.9534 91.1764C65.591 91.1764 66.0912 91.0225 66.454 90.7147C66.8168 90.4069 66.9982 89.9781 66.9982 89.4285C66.9982 88.8678 66.8058 88.4226 66.421 88.0928C66.0362 87.763 65.525 87.5981 64.8874 87.5981H62.4139V91.1764H64.9534ZM79.1455 92.8584C78.288 92.8584 77.513 92.666 76.8204 92.2812C76.1278 91.8855 75.5836 91.3358 75.1879 90.6322C74.7921 89.9177 74.5942 89.0932 74.5942 88.1587C74.5942 87.2353 74.7976 86.4163 75.2044 85.7017C75.6111 84.9871 76.1663 84.4375 76.8699 84.0527C77.5734 83.6679 78.3595 83.4756 79.2279 83.4756C80.0964 83.4756 80.8824 83.6679 81.586 84.0527C82.2896 84.4375 82.8447 84.9871 83.2515 85.7017C83.6582 86.4163 83.8616 87.2353 83.8616 88.1587C83.8616 89.0822 83.6528 89.9012 83.235 90.6157C82.8173 91.3303 82.2456 91.8855 81.52 92.2812C80.8055 92.666 80.014 92.8584 79.1455 92.8584ZM79.1455 91.2259C79.6292 91.2259 80.0799 91.1104 80.4977 90.8796C80.9264 90.6487 81.2727 90.3024 81.5365 89.8407C81.8004 89.379 81.9323 88.8183 81.9323 88.1587C81.9323 87.4991 81.8059 86.944 81.553 86.4932C81.3002 86.0315 80.9649 85.6852 80.5471 85.4544C80.1294 85.2235 79.6787 85.1081 79.195 85.1081C78.7112 85.1081 78.2605 85.2235 77.8428 85.4544C77.436 85.6852 77.1117 86.0315 76.8699 86.4932C76.628 86.944 76.5071 87.4991 76.5071 88.1587C76.5071 89.1371 76.7544 89.8957 77.2491 90.4343C77.7548 90.962 78.3869 91.2259 79.1455 91.2259ZM89.5292 85.1575H87.8472V92.71H85.9508V85.1575H84.879V83.624H85.9508V82.9809C85.9508 81.9365 86.2257 81.178 86.7753 80.7052C87.336 80.2215 88.21 79.9797 89.3972 79.9797V81.5462C88.8256 81.5462 88.4243 81.6562 88.1935 81.876C87.9626 82.0849 87.8472 82.4532 87.8472 82.9809V83.624H89.5292V85.1575ZM95.1984 83.657C95.2643 82.6346 95.6546 81.8376 96.3692 81.2659C97.0947 80.6942 98.0182 80.4084 99.1395 80.4084C99.909 80.4084 100.574 80.5458 101.135 80.8207C101.695 81.0955 102.119 81.4693 102.405 81.942C102.69 82.4147 102.833 82.9479 102.833 83.5415C102.833 84.2231 102.652 84.8058 102.289 85.2895C101.926 85.7732 101.492 86.0975 100.986 86.2624V86.3283C101.635 86.5262 102.141 86.889 102.503 87.4167C102.866 87.9334 103.048 88.5985 103.048 89.412C103.048 90.0606 102.899 90.6377 102.602 91.1434C102.306 91.6491 101.866 92.0504 101.283 92.3472C100.701 92.633 100.002 92.7759 99.189 92.7759C98.0017 92.7759 97.0233 92.4736 96.2537 91.869C95.4952 91.2533 95.0884 90.3739 95.0335 89.2306H96.8474C96.8913 89.8132 97.1167 90.2914 97.5235 90.6652C97.9302 91.028 98.4799 91.2094 99.1725 91.2094C99.8431 91.2094 100.36 91.028 100.723 90.6652C101.085 90.2914 101.267 89.8132 101.267 89.2306C101.267 88.461 101.019 87.9169 100.525 87.5981C100.041 87.2683 99.2934 87.1034 98.282 87.1034H97.8533V85.5533H98.2985C99.189 85.5423 99.865 85.3939 100.327 85.1081C100.799 84.8222 101.036 84.3715 101.036 83.7559C101.036 83.2282 100.865 82.8105 100.525 82.5027C100.184 82.1838 99.7001 82.0244 99.0735 82.0244C98.4579 82.0244 97.9797 82.1838 97.6389 82.5027C97.2981 82.8105 97.0947 83.1952 97.0288 83.657H95.1984ZM105.022 86.5427C105.022 84.6409 105.341 83.1568 105.979 82.0904C106.627 81.0131 107.738 80.4744 109.31 80.4744C110.882 80.4744 111.987 81.0131 112.624 82.0904C113.273 83.1568 113.597 84.6409 113.597 86.5427C113.597 88.4665 113.273 89.9726 112.624 91.061C111.987 92.1383 110.882 92.677 109.31 92.677C107.738 92.677 106.627 92.1383 105.979 91.061C105.341 89.9726 105.022 88.4665 105.022 86.5427ZM111.75 86.5427C111.75 85.6522 111.69 84.8992 111.569 84.2836C111.459 83.6679 111.228 83.1677 110.876 82.783C110.524 82.3872 110.002 82.1893 109.31 82.1893C108.617 82.1893 108.095 82.3872 107.743 82.783C107.391 83.1677 107.155 83.6679 107.034 84.2836C106.924 84.8992 106.869 85.6522 106.869 86.5427C106.869 87.4661 106.924 88.2412 107.034 88.8678C107.144 89.4944 107.375 90.0001 107.727 90.3849C108.089 90.7696 108.617 90.962 109.31 90.962C110.002 90.962 110.524 90.7696 110.876 90.3849C111.239 90.0001 111.475 89.4944 111.585 88.8678C111.695 88.2412 111.75 87.4661 111.75 86.5427ZM128.412 84.5474C128.115 83.9758 127.702 83.547 127.175 83.2612C126.647 82.9644 126.037 82.816 125.344 82.816C124.586 82.816 123.91 82.9864 123.316 83.3272C122.723 83.6679 122.255 84.1517 121.914 84.7783C121.585 85.4049 121.42 86.1305 121.42 86.955C121.42 87.7795 121.585 88.5105 121.914 89.1481C122.255 89.7747 122.723 90.2584 123.316 90.5992C123.91 90.94 124.586 91.1104 125.344 91.1104C126.367 91.1104 127.197 90.8246 127.834 90.253C128.472 89.6813 128.862 88.9063 129.005 87.9279H124.701V86.4273H131.017V87.8949C130.896 88.7853 130.577 89.6043 130.061 90.3519C129.555 91.0994 128.89 91.6986 128.065 92.1493C127.252 92.589 126.345 92.8089 125.344 92.8089C124.267 92.8089 123.283 92.5616 122.393 92.0669C121.502 91.5612 120.793 90.8631 120.265 89.9726C119.749 89.0822 119.49 88.0763 119.49 86.955C119.49 85.8336 119.749 84.8277 120.265 83.9373C120.793 83.0468 121.502 82.3542 122.393 81.8595C123.294 81.3538 124.278 81.101 125.344 81.101C126.565 81.101 127.648 81.4033 128.593 82.008C129.549 82.6016 130.242 83.4481 130.671 84.5474H128.412ZM139.005 86.823C139.621 86.933 140.143 87.2573 140.572 87.7959C141.001 88.3346 141.215 88.9447 141.215 89.6263C141.215 90.209 141.061 90.7367 140.753 91.2094C140.456 91.6711 140.022 92.0394 139.451 92.3142C138.879 92.578 138.214 92.71 137.455 92.71H132.871V81.2494H137.241C138.021 81.2494 138.692 81.3813 139.253 81.6452C139.813 81.909 140.237 82.2663 140.522 82.717C140.808 83.1568 140.951 83.6515 140.951 84.2011C140.951 84.8607 140.775 85.4104 140.423 85.8501C140.072 86.2899 139.599 86.6142 139.005 86.823ZM134.751 86.0645H137.076C137.692 86.0645 138.17 85.9271 138.511 85.6522C138.862 85.3664 139.038 84.9597 139.038 84.432C139.038 83.9153 138.862 83.514 138.511 83.2282C138.17 82.9314 137.692 82.783 137.076 82.783H134.751V86.0645ZM137.29 91.1764C137.928 91.1764 138.428 91.0225 138.791 90.7147C139.154 90.4069 139.335 89.9781 139.335 89.4285C139.335 88.8678 139.143 88.4226 138.758 88.0928C138.373 87.763 137.862 87.5981 137.224 87.5981H134.751V91.1764H137.29ZM149.405 81.2494V88.5545C149.405 89.423 149.63 90.0771 150.081 90.5168C150.543 90.9565 151.18 91.1764 151.994 91.1764C152.818 91.1764 153.456 90.9565 153.907 90.5168C154.368 90.0771 154.599 89.423 154.599 88.5545V81.2494H156.479V88.5215C156.479 89.4559 156.276 90.2475 155.869 90.8961C155.462 91.5447 154.918 92.0284 154.236 92.3472C153.555 92.666 152.802 92.8254 151.977 92.8254C151.153 92.8254 150.4 92.666 149.718 92.3472C149.047 92.0284 148.514 91.5447 148.119 90.8961C147.723 90.2475 147.525 89.4559 147.525 88.5215V81.2494H149.405ZM162.225 92.8584C161.51 92.8584 160.867 92.7319 160.295 92.4791C159.735 92.2153 159.289 91.8635 158.96 91.4237C158.63 90.973 158.454 90.4728 158.432 89.9232H160.378C160.411 90.3079 160.592 90.6322 160.922 90.8961C161.263 91.1489 161.686 91.2753 162.192 91.2753C162.719 91.2753 163.126 91.1764 163.412 90.9785C163.709 90.7696 163.857 90.5058 163.857 90.187C163.857 89.8462 163.692 89.5934 163.362 89.4285C163.044 89.2636 162.532 89.0822 161.829 88.8843C161.147 88.6974 160.592 88.516 160.163 88.3401C159.735 88.1642 159.361 87.8949 159.042 87.5321C158.734 87.1693 158.58 86.6911 158.58 86.0975C158.58 85.6138 158.723 85.174 159.009 84.7783C159.295 84.3715 159.702 84.0527 160.229 83.8219C160.768 83.591 161.384 83.4756 162.076 83.4756C163.11 83.4756 163.94 83.7394 164.566 84.2671C165.204 84.7838 165.545 85.4928 165.589 86.3943H163.709C163.676 85.9875 163.511 85.6632 163.214 85.4214C162.917 85.1795 162.516 85.0586 162.01 85.0586C161.515 85.0586 161.136 85.152 160.872 85.3389C160.609 85.5258 160.477 85.7732 160.477 86.081C160.477 86.3228 160.565 86.5262 160.74 86.6911C160.916 86.856 161.131 86.9879 161.384 87.0869C161.636 87.1748 162.01 87.2902 162.505 87.4332C163.164 87.6091 163.703 87.7904 164.121 87.9773C164.55 88.1532 164.918 88.4171 165.226 88.7689C165.534 89.1206 165.693 89.5879 165.704 90.1705C165.704 90.6872 165.561 91.1489 165.275 91.5557C164.989 91.9624 164.583 92.2812 164.055 92.5121C163.538 92.7429 162.928 92.8584 162.225 92.8584ZM176.063 87.9444C176.063 88.2851 176.041 88.593 175.997 88.8678H169.054C169.109 89.5934 169.379 90.176 169.862 90.6157C170.346 91.0555 170.94 91.2753 171.643 91.2753C172.655 91.2753 173.369 90.8521 173.787 90.0056H175.815C175.54 90.8411 175.04 91.5282 174.315 92.0669C173.6 92.5945 172.71 92.8584 171.643 92.8584C170.775 92.8584 169.994 92.666 169.302 92.2812C168.62 91.8855 168.081 91.3358 167.686 90.6322C167.301 89.9177 167.109 89.0932 167.109 88.1587C167.109 87.2243 167.295 86.4053 167.669 85.7017C168.054 84.9871 168.587 84.4375 169.269 84.0527C169.961 83.6679 170.753 83.4756 171.643 83.4756C172.501 83.4756 173.265 83.6624 173.935 84.0362C174.606 84.41 175.128 84.9377 175.502 85.6193C175.876 86.2899 176.063 87.0649 176.063 87.9444ZM174.1 87.3507C174.089 86.6581 173.842 86.103 173.358 85.6852C172.875 85.2675 172.275 85.0586 171.561 85.0586C170.912 85.0586 170.357 85.2675 169.895 85.6852C169.434 86.092 169.159 86.6471 169.071 87.3507H174.1ZM177.286 88.1257C177.286 87.2133 177.473 86.4053 177.847 85.7017C178.231 84.9981 178.748 84.454 179.397 84.0692C180.056 83.6734 180.787 83.4756 181.59 83.4756C182.184 83.4756 182.766 83.6075 183.338 83.8713C183.92 84.1242 184.382 84.465 184.723 84.8937V80.5074H186.619V92.71H184.723V91.3413C184.415 91.781 183.986 92.1438 183.437 92.4296C182.898 92.7155 182.277 92.8584 181.573 92.8584C180.782 92.8584 180.056 92.6605 179.397 92.2647C178.748 91.858 178.231 91.2973 177.847 90.5828C177.473 89.8572 177.286 89.0382 177.286 88.1257ZM184.723 88.1587C184.723 87.5321 184.591 86.9879 184.327 86.5262C184.074 86.0645 183.739 85.7127 183.321 85.4709C182.904 85.229 182.453 85.1081 181.969 85.1081C181.485 85.1081 181.035 85.229 180.617 85.4709C180.199 85.7017 179.858 86.048 179.595 86.5097C179.342 86.9604 179.215 87.4991 179.215 88.1257C179.215 88.7524 179.342 89.302 179.595 89.7747C179.858 90.2475 180.199 90.6102 180.617 90.8631C181.046 91.1049 181.496 91.2259 181.969 91.2259C182.453 91.2259 182.904 91.1049 183.321 90.8631C183.739 90.6212 184.074 90.2694 184.327 89.8077C184.591 89.335 184.723 88.7853 184.723 88.1587Z" fill="#545C81"/>
<rect opacity="0.35" x="23" y="53.4297" width="242" height="12" rx="6" fill="#D2D5E1"/>
<rect x="23" y="53.4297" width="139.176" height="12" rx="6" fill="#25CCDE"/>
<path d="M40.8191 127.146C41.2671 127.226 41.6471 127.462 41.9591 127.854C42.2711 128.246 42.4271 128.69 42.4271 129.186C42.4271 129.61 42.3151 129.994 42.0911 130.338C41.8751 130.674 41.5591 130.942 41.1431 131.142C40.7271 131.334 40.2431 131.43 39.6911 131.43H36.3551V123.09H39.5351C40.1031 123.09 40.5911 123.186 40.9991 123.378C41.4071 123.57 41.7151 123.83 41.9231 124.158C42.1311 124.478 42.2351 124.838 42.2351 125.238C42.2351 125.718 42.1071 126.118 41.8511 126.438C41.5951 126.758 41.2511 126.994 40.8191 127.146ZM37.7231 126.594H39.4151C39.8631 126.594 40.2111 126.494 40.4591 126.294C40.7151 126.086 40.8431 125.79 40.8431 125.406C40.8431 125.03 40.7151 124.738 40.4591 124.53C40.2111 124.314 39.8631 124.206 39.4151 124.206H37.7231V126.594ZM39.5711 130.314C40.0351 130.314 40.3991 130.202 40.6631 129.978C40.9271 129.754 41.0591 129.442 41.0591 129.042C41.0591 128.634 40.9191 128.31 40.6391 128.07C40.3591 127.83 39.9871 127.71 39.5231 127.71H37.7231V130.314H39.5711ZM49.9017 124.818V131.43H48.5337V130.65C48.3177 130.922 48.0337 131.138 47.6817 131.298C47.3377 131.45 46.9697 131.526 46.5777 131.526C46.0577 131.526 45.5897 131.418 45.1737 131.202C44.7657 130.986 44.4417 130.666 44.2017 130.242C43.9697 129.818 43.8537 129.306 43.8537 128.706V124.818H45.2097V128.502C45.2097 129.094 45.3577 129.55 45.6537 129.87C45.9497 130.182 46.3537 130.338 46.8657 130.338C47.3777 130.338 47.7817 130.182 48.0777 129.87C48.3817 129.55 48.5337 129.094 48.5337 128.502V124.818H49.9017ZM57.6586 124.818L53.6026 134.538H52.1866L53.5306 131.322L50.9266 124.818H52.4506L54.3106 129.858L56.2426 124.818H57.6586ZM64.5562 131.514C63.9962 131.514 63.4922 131.418 63.0442 131.226C62.5962 131.026 62.2442 130.746 61.9882 130.386C61.7322 130.026 61.6042 129.606 61.6042 129.126H63.0682C63.1002 129.486 63.2402 129.782 63.4882 130.014C63.7442 130.246 64.1002 130.362 64.5562 130.362C65.0282 130.362 65.3962 130.25 65.6602 130.026C65.9242 129.794 66.0562 129.498 66.0562 129.138C66.0562 128.858 65.9722 128.63 65.8042 128.454C65.6442 128.278 65.4402 128.142 65.1922 128.046C64.9522 127.95 64.6162 127.846 64.1842 127.734C63.6402 127.59 63.1962 127.446 62.8522 127.302C62.5162 127.15 62.2282 126.918 61.9882 126.606C61.7482 126.294 61.6282 125.878 61.6282 125.358C61.6282 124.878 61.7482 124.458 61.9882 124.098C62.2282 123.738 62.5642 123.462 62.9962 123.27C63.4282 123.078 63.9282 122.982 64.4962 122.982C65.3042 122.982 65.9642 123.186 66.4762 123.594C66.9962 123.994 67.2842 124.546 67.3402 125.25H65.8282C65.8042 124.946 65.6602 124.686 65.3962 124.47C65.1322 124.254 64.7842 124.146 64.3522 124.146C63.9602 124.146 63.6402 124.246 63.3922 124.446C63.1442 124.646 63.0202 124.934 63.0202 125.31C63.0202 125.566 63.0962 125.778 63.2482 125.946C63.4082 126.106 63.6082 126.234 63.8482 126.33C64.0882 126.426 64.4162 126.53 64.8322 126.642C65.3842 126.794 65.8322 126.946 66.1762 127.098C66.5282 127.25 66.8242 127.486 67.0642 127.806C67.3122 128.118 67.4362 128.538 67.4362 129.066C67.4362 129.49 67.3202 129.89 67.0882 130.266C66.8642 130.642 66.5322 130.946 66.0922 131.178C65.6602 131.402 65.1482 131.514 64.5562 131.514ZM70.6464 125.934V129.594C70.6464 129.842 70.7024 130.022 70.8144 130.134C70.9344 130.238 71.1344 130.29 71.4144 130.29H72.2544V131.43H71.1744C70.5584 131.43 70.0864 131.286 69.7584 130.998C69.4304 130.71 69.2664 130.242 69.2664 129.594V125.934H68.4864V124.818H69.2664V123.174H70.6464V124.818H72.2544V125.934H70.6464ZM76.3832 131.538C75.7592 131.538 75.1952 131.398 74.6912 131.118C74.1872 130.83 73.7912 130.43 73.5032 129.918C73.2152 129.398 73.0712 128.798 73.0712 128.118C73.0712 127.446 73.2192 126.85 73.5152 126.33C73.8112 125.81 74.2152 125.41 74.7272 125.13C75.2392 124.85 75.8112 124.71 76.4432 124.71C77.0752 124.71 77.6472 124.85 78.1592 125.13C78.6712 125.41 79.0752 125.81 79.3712 126.33C79.6672 126.85 79.8152 127.446 79.8152 128.118C79.8152 128.79 79.6632 129.386 79.3592 129.906C79.0552 130.426 78.6392 130.83 78.1112 131.118C77.5912 131.398 77.0152 131.538 76.3832 131.538ZM76.3832 130.35C76.7352 130.35 77.0632 130.266 77.3672 130.098C77.6792 129.93 77.9312 129.678 78.1232 129.342C78.3152 129.006 78.4112 128.598 78.4112 128.118C78.4112 127.638 78.3192 127.234 78.1352 126.906C77.9512 126.57 77.7072 126.318 77.4032 126.15C77.0992 125.982 76.7712 125.898 76.4192 125.898C76.0672 125.898 75.7392 125.982 75.4352 126.15C75.1392 126.318 74.9032 126.57 74.7272 126.906C74.5512 127.234 74.4632 127.638 74.4632 128.118C74.4632 128.83 74.6432 129.382 75.0032 129.774C75.3712 130.158 75.8312 130.35 76.3832 130.35ZM82.5356 125.778C82.7356 125.442 82.9996 125.182 83.3276 124.998C83.6636 124.806 84.0596 124.71 84.5156 124.71V126.126H84.1676C83.6316 126.126 83.2236 126.262 82.9436 126.534C82.6716 126.806 82.5356 127.278 82.5356 127.95V131.43H81.1676V124.818H82.5356V125.778ZM85.317 128.094C85.317 127.43 85.453 126.842 85.725 126.33C86.005 125.818 86.381 125.422 86.853 125.142C87.333 124.854 87.861 124.71 88.437 124.71C88.957 124.71 89.409 124.814 89.793 125.022C90.185 125.222 90.497 125.474 90.729 125.778V124.818H92.109V131.43H90.729V130.446C90.497 130.758 90.181 131.018 89.781 131.226C89.381 131.434 88.925 131.538 88.413 131.538C87.845 131.538 87.325 131.394 86.853 131.106C86.381 130.81 86.005 130.402 85.725 129.882C85.453 129.354 85.317 128.758 85.317 128.094ZM90.729 128.118C90.729 127.662 90.633 127.266 90.441 126.93C90.257 126.594 90.013 126.338 89.709 126.162C89.405 125.986 89.077 125.898 88.725 125.898C88.373 125.898 88.045 125.986 87.741 126.162C87.437 126.33 87.189 126.582 86.997 126.918C86.813 127.246 86.721 127.638 86.721 128.094C86.721 128.55 86.813 128.95 86.997 129.294C87.189 129.638 87.437 129.902 87.741 130.086C88.053 130.262 88.381 130.35 88.725 130.35C89.077 130.35 89.405 130.262 89.709 130.086C90.013 129.91 90.257 129.654 90.441 129.318C90.633 128.974 90.729 128.574 90.729 128.118ZM96.5699 124.71C97.0819 124.71 97.5339 124.814 97.9259 125.022C98.3259 125.222 98.6379 125.474 98.8619 125.778V124.818H100.242V131.538C100.242 132.146 100.114 132.686 99.8579 133.158C99.6019 133.638 99.2299 134.014 98.7419 134.286C98.2619 134.558 97.6859 134.694 97.0139 134.694C96.1179 134.694 95.3739 134.482 94.7819 134.058C94.1899 133.642 93.8539 133.074 93.7739 132.354H95.1299C95.2339 132.698 95.4539 132.974 95.7899 133.182C96.1339 133.398 96.5419 133.506 97.0139 133.506C97.5659 133.506 98.0099 133.338 98.3459 133.002C98.6899 132.666 98.8619 132.178 98.8619 131.538V130.434C98.6299 130.746 98.3139 131.01 97.9139 131.226C97.5219 131.434 97.0739 131.538 96.5699 131.538C95.9939 131.538 95.4659 131.394 94.9859 131.106C94.5139 130.81 94.1379 130.402 93.8579 129.882C93.5859 129.354 93.4499 128.758 93.4499 128.094C93.4499 127.43 93.5859 126.842 93.8579 126.33C94.1379 125.818 94.5139 125.422 94.9859 125.142C95.4659 124.854 95.9939 124.71 96.5699 124.71ZM98.8619 128.118C98.8619 127.662 98.7659 127.266 98.5739 126.93C98.3899 126.594 98.1459 126.338 97.8419 126.162C97.5379 125.986 97.2099 125.898 96.8579 125.898C96.5059 125.898 96.1779 125.986 95.8739 126.162C95.5699 126.33 95.3219 126.582 95.1299 126.918C94.9459 127.246 94.8539 127.638 94.8539 128.094C94.8539 128.55 94.9459 128.95 95.1299 129.294C95.3219 129.638 95.5699 129.902 95.8739 130.086C96.1859 130.262 96.5139 130.35 96.8579 130.35C97.2099 130.35 97.5379 130.262 97.8419 130.086C98.1459 129.91 98.3899 129.654 98.5739 129.318C98.7659 128.974 98.8619 128.574 98.8619 128.118ZM108.099 127.962C108.099 128.21 108.083 128.434 108.051 128.634H102.999C103.039 129.162 103.235 129.586 103.587 129.906C103.939 130.226 104.371 130.386 104.883 130.386C105.619 130.386 106.139 130.078 106.443 129.462H107.919C107.719 130.07 107.355 130.57 106.827 130.962C106.307 131.346 105.659 131.538 104.883 131.538C104.251 131.538 103.683 131.398 103.179 131.118C102.683 130.83 102.291 130.43 102.003 129.918C101.723 129.398 101.583 128.798 101.583 128.118C101.583 127.438 101.719 126.842 101.991 126.33C102.271 125.81 102.659 125.41 103.155 125.13C103.659 124.85 104.235 124.71 104.883 124.71C105.507 124.71 106.063 124.846 106.551 125.118C107.039 125.39 107.419 125.774 107.691 126.27C107.963 126.758 108.099 127.322 108.099 127.962ZM106.671 127.53C106.663 127.026 106.483 126.622 106.131 126.318C105.779 126.014 105.343 125.862 104.823 125.862C104.351 125.862 103.947 126.014 103.611 126.318C103.275 126.614 103.075 127.018 103.011 127.53H106.671Z" fill="#545C81"/>
<rect x="23.5" y="115.93" width="97" height="23" rx="11.5" stroke="#25CCDE"/>
</g>
<defs>
<filter id="filter0_d_3054_7788" x="0" y="0.429688" width="288" height="163.57" filterUnits="userSpaceOnUse" color-interpolation-filters="sRGB">
<feFlood flood-opacity="0" result="BackgroundImageFix"/>
<feColorMatrix in="SourceAlpha" type="matrix" values="0 0 0 0 0 0 0 0 0 0 0 0 0 0 0 0 0 0 127 0" result="hardAlpha"/>
<feOffset dy="4"/>
<feGaussianBlur stdDeviation="4"/>
<feComposite in2="hardAlpha" operator="out"/>
<feColorMatrix type="matrix" values="0 0 0 0 0.427451 0 0 0 0 0.392157 0 0 0 0 1 0 0 0 0.2 0"/>
<feBlend mode="normal" in2="BackgroundImageFix" result="effect1_dropShadow_3054_7788"/>
<feBlend mode="normal" in="SourceGraphic" in2="effect1_dropShadow_3054_7788" result="shape"/>
</filter>
</defs>
</svg>
