<svg width="300" height="312" viewBox="0 0 300 312" fill="none" xmlns="http://www.w3.org/2000/svg">
<rect width="300" height="312" rx="20" fill="white"/>
<path d="M12 92.7863L50.1436 56.4091L63.2374 75.261L79.6667 80.1573L128.747 46.7614L158.389 66.0844L194.019 12L209.69 66.5795L225.243 75.261L243.766 56.4091L258.927 69.7738L288 80.1573" stroke="#6D64FF" stroke-width="1.5" stroke-linecap="round" stroke-linejoin="round"/>
<path fill-rule="evenodd" clip-rule="evenodd" d="M12 92.6537L50.1436 56.3363L63.2374 75.1572L79.6667 80.0455L130.268 46.8194L158.389 65.9956L194.019 12L209.69 66.49L225.243 75.1572L243.766 56.3363L258.927 69.679L288 80.0455V104.327H12L12 92.6537Z" fill="url(#paint0_linear_418_12294)"/>
<path d="M134.542 129.327V124.167H144.182V153.327H138.422V129.327H134.542ZM149.714 138.367C149.714 133.754 150.54 130.14 152.194 127.527C153.874 124.914 156.647 123.607 160.514 123.607C164.38 123.607 167.14 124.914 168.794 127.527C170.474 130.14 171.314 133.754 171.314 138.367C171.314 143.007 170.474 146.647 168.794 149.287C167.14 151.927 164.38 153.247 160.514 153.247C156.647 153.247 153.874 151.927 152.194 149.287C150.54 146.647 149.714 143.007 149.714 138.367ZM165.794 138.367C165.794 136.394 165.66 134.74 165.394 133.407C165.154 132.047 164.647 130.94 163.874 130.087C163.127 129.234 162.007 128.807 160.514 128.807C159.02 128.807 157.887 129.234 157.114 130.087C156.367 130.94 155.86 132.047 155.594 133.407C155.354 134.74 155.234 136.394 155.234 138.367C155.234 140.394 155.354 142.1 155.594 143.487C155.834 144.847 156.34 145.954 157.114 146.807C157.887 147.634 159.02 148.047 160.514 148.047C162.007 148.047 163.14 147.634 163.914 146.807C164.687 145.954 165.194 144.847 165.434 143.487C165.674 142.1 165.794 140.394 165.794 138.367ZM175.333 147.647V143.247L188.413 124.527H194.933V142.767H198.453V147.647H194.933V153.327H189.333V147.647H175.333ZM189.693 130.527L181.493 142.767H189.693V130.527Z" fill="#545C81"/>
<path d="M100.42 182.367L95.3 196.327H91.9L86.78 182.367H89.78L93.62 193.467L97.44 182.367H100.42ZM107.019 196.507C105.952 196.507 104.992 196.274 104.139 195.807C103.285 195.327 102.612 194.654 102.119 193.787C101.639 192.92 101.399 191.92 101.399 190.787C101.399 189.654 101.645 188.654 102.139 187.787C102.645 186.92 103.332 186.254 104.199 185.787C105.065 185.307 106.032 185.067 107.099 185.067C108.165 185.067 109.132 185.307 109.999 185.787C110.865 186.254 111.545 186.92 112.039 187.787C112.545 188.654 112.799 189.654 112.799 190.787C112.799 191.92 112.539 192.92 112.019 193.787C111.512 194.654 110.819 195.327 109.939 195.807C109.072 196.274 108.099 196.507 107.019 196.507ZM107.019 194.067C107.525 194.067 107.999 193.947 108.439 193.707C108.892 193.454 109.252 193.08 109.519 192.587C109.785 192.094 109.919 191.494 109.919 190.787C109.919 189.734 109.639 188.927 109.079 188.367C108.532 187.794 107.859 187.507 107.059 187.507C106.259 187.507 105.585 187.794 105.039 188.367C104.505 188.927 104.239 189.734 104.239 190.787C104.239 191.84 104.499 192.654 105.019 193.227C105.552 193.787 106.219 194.067 107.019 194.067ZM118.113 187.547V192.907C118.113 193.28 118.199 193.554 118.373 193.727C118.559 193.887 118.866 193.967 119.293 193.967H120.593V196.327H118.833C116.473 196.327 115.293 195.18 115.293 192.887V187.547H113.973V185.247H115.293V182.507H118.113V185.247H120.593V187.547H118.113ZM132.907 190.547C132.907 190.947 132.88 191.307 132.827 191.627H124.727C124.793 192.427 125.073 193.054 125.567 193.507C126.06 193.96 126.667 194.187 127.387 194.187C128.427 194.187 129.167 193.74 129.607 192.847H132.627C132.307 193.914 131.693 194.794 130.787 195.487C129.88 196.167 128.767 196.507 127.447 196.507C126.38 196.507 125.42 196.274 124.567 195.807C123.727 195.327 123.067 194.654 122.587 193.787C122.12 192.92 121.887 191.92 121.887 190.787C121.887 189.64 122.12 188.634 122.587 187.767C123.053 186.9 123.707 186.234 124.547 185.767C125.387 185.3 126.353 185.067 127.447 185.067C128.5 185.067 129.44 185.294 130.267 185.747C131.107 186.2 131.753 186.847 132.207 187.687C132.673 188.514 132.907 189.467 132.907 190.547ZM130.007 189.747C129.993 189.027 129.733 188.454 129.227 188.027C128.72 187.587 128.1 187.367 127.367 187.367C126.673 187.367 126.087 187.58 125.607 188.007C125.14 188.42 124.853 189 124.747 189.747H130.007ZM139.19 196.507C138.284 196.507 137.47 196.347 136.75 196.027C136.03 195.694 135.457 195.247 135.03 194.687C134.617 194.127 134.39 193.507 134.35 192.827H137.17C137.224 193.254 137.43 193.607 137.79 193.887C138.164 194.167 138.624 194.307 139.17 194.307C139.704 194.307 140.117 194.2 140.41 193.987C140.717 193.774 140.87 193.5 140.87 193.167C140.87 192.807 140.684 192.54 140.31 192.367C139.95 192.18 139.37 191.98 138.57 191.767C137.744 191.567 137.064 191.36 136.53 191.147C136.01 190.934 135.557 190.607 135.17 190.167C134.797 189.727 134.61 189.134 134.61 188.387C134.61 187.774 134.784 187.214 135.13 186.707C135.49 186.2 135.997 185.8 136.65 185.507C137.317 185.214 138.097 185.067 138.99 185.067C140.31 185.067 141.364 185.4 142.15 186.067C142.937 186.72 143.37 187.607 143.45 188.727H140.77C140.73 188.287 140.544 187.94 140.21 187.687C139.89 187.42 139.457 187.287 138.91 187.287C138.404 187.287 138.01 187.38 137.73 187.567C137.464 187.754 137.33 188.014 137.33 188.347C137.33 188.72 137.517 189.007 137.89 189.207C138.264 189.394 138.844 189.587 139.63 189.787C140.43 189.987 141.09 190.194 141.61 190.407C142.13 190.62 142.577 190.954 142.95 191.407C143.337 191.847 143.537 192.434 143.55 193.167C143.55 193.807 143.37 194.38 143.01 194.887C142.664 195.394 142.157 195.794 141.49 196.087C140.837 196.367 140.07 196.507 139.19 196.507ZM149.934 189.327C149.934 187.954 150.241 186.727 150.854 185.647C151.481 184.554 152.328 183.707 153.394 183.107C154.474 182.494 155.681 182.187 157.014 182.187C158.574 182.187 159.941 182.587 161.114 183.387C162.288 184.187 163.108 185.294 163.574 186.707H160.354C160.034 186.04 159.581 185.54 158.994 185.207C158.421 184.874 157.754 184.707 156.994 184.707C156.181 184.707 155.454 184.9 154.814 185.287C154.188 185.66 153.694 186.194 153.334 186.887C152.988 187.58 152.814 188.394 152.814 189.327C152.814 190.247 152.988 191.06 153.334 191.767C153.694 192.46 154.188 193 154.814 193.387C155.454 193.76 156.181 193.947 156.994 193.947C157.754 193.947 158.421 193.78 158.994 193.447C159.581 193.1 160.034 192.594 160.354 191.927H163.574C163.108 193.354 162.288 194.467 161.114 195.267C159.954 196.054 158.588 196.447 157.014 196.447C155.681 196.447 154.474 196.147 153.394 195.547C152.328 194.934 151.481 194.087 150.854 193.007C150.241 191.927 149.934 190.7 149.934 189.327ZM170.886 196.507C169.819 196.507 168.859 196.274 168.006 195.807C167.153 195.327 166.479 194.654 165.986 193.787C165.506 192.92 165.266 191.92 165.266 190.787C165.266 189.654 165.513 188.654 166.006 187.787C166.513 186.92 167.199 186.254 168.066 185.787C168.933 185.307 169.899 185.067 170.966 185.067C172.033 185.067 172.999 185.307 173.866 185.787C174.733 186.254 175.413 186.92 175.906 187.787C176.413 188.654 176.666 189.654 176.666 190.787C176.666 191.92 176.406 192.92 175.886 193.787C175.379 194.654 174.686 195.327 173.806 195.807C172.939 196.274 171.966 196.507 170.886 196.507ZM170.886 194.067C171.393 194.067 171.866 193.947 172.306 193.707C172.759 193.454 173.119 193.08 173.386 192.587C173.653 192.094 173.786 191.494 173.786 190.787C173.786 189.734 173.506 188.927 172.946 188.367C172.399 187.794 171.726 187.507 170.926 187.507C170.126 187.507 169.453 187.794 168.906 188.367C168.373 188.927 168.106 189.734 168.106 190.787C168.106 191.84 168.366 192.654 168.886 193.227C169.419 193.787 170.086 194.067 170.886 194.067ZM181.52 181.527V196.327H178.72V181.527H181.52ZM187.086 181.527V196.327H184.286V181.527H187.086ZM200.153 190.547C200.153 190.947 200.126 191.307 200.073 191.627H191.973C192.039 192.427 192.319 193.054 192.813 193.507C193.306 193.96 193.913 194.187 194.633 194.187C195.673 194.187 196.413 193.74 196.853 192.847H199.873C199.553 193.914 198.939 194.794 198.033 195.487C197.126 196.167 196.013 196.507 194.693 196.507C193.626 196.507 192.666 196.274 191.813 195.807C190.973 195.327 190.313 194.654 189.833 193.787C189.366 192.92 189.133 191.92 189.133 190.787C189.133 189.64 189.366 188.634 189.833 187.767C190.299 186.9 190.953 186.234 191.793 185.767C192.633 185.3 193.599 185.067 194.693 185.067C195.746 185.067 196.686 185.294 197.513 185.747C198.353 186.2 198.999 186.847 199.453 187.687C199.919 188.514 200.153 189.467 200.153 190.547ZM197.253 189.747C197.239 189.027 196.979 188.454 196.473 188.027C195.966 187.587 195.346 187.367 194.613 187.367C193.919 187.367 193.333 187.58 192.853 188.007C192.386 188.42 192.099 189 191.993 189.747H197.253ZM201.476 190.787C201.476 189.64 201.71 188.64 202.176 187.787C202.643 186.92 203.29 186.254 204.116 185.787C204.943 185.307 205.89 185.067 206.956 185.067C208.33 185.067 209.463 185.414 210.356 186.107C211.263 186.787 211.87 187.747 212.176 188.987H209.156C208.996 188.507 208.723 188.134 208.336 187.867C207.963 187.587 207.496 187.447 206.936 187.447C206.136 187.447 205.503 187.74 205.036 188.327C204.57 188.9 204.336 189.72 204.336 190.787C204.336 191.84 204.57 192.66 205.036 193.247C205.503 193.82 206.136 194.107 206.936 194.107C208.07 194.107 208.81 193.6 209.156 192.587H212.176C211.87 193.787 211.263 194.74 210.356 195.447C209.45 196.154 208.316 196.507 206.956 196.507C205.89 196.507 204.943 196.274 204.116 195.807C203.29 195.327 202.643 194.66 202.176 193.807C201.71 192.94 201.476 191.934 201.476 190.787ZM217.488 187.547V192.907C217.488 193.28 217.574 193.554 217.748 193.727C217.934 193.887 218.241 193.967 218.668 193.967H219.968V196.327H218.208C215.848 196.327 214.668 195.18 214.668 192.887V187.547H213.348V185.247H214.668V182.507H217.488V185.247H219.968V187.547H217.488ZM232.282 190.547C232.282 190.947 232.255 191.307 232.202 191.627H224.102C224.168 192.427 224.448 193.054 224.942 193.507C225.435 193.96 226.042 194.187 226.762 194.187C227.802 194.187 228.542 193.74 228.982 192.847H232.002C231.682 193.914 231.068 194.794 230.162 195.487C229.255 196.167 228.142 196.507 226.822 196.507C225.755 196.507 224.795 196.274 223.942 195.807C223.102 195.327 222.442 194.654 221.962 193.787C221.495 192.92 221.262 191.92 221.262 190.787C221.262 189.64 221.495 188.634 221.962 187.767C222.428 186.9 223.082 186.234 223.922 185.767C224.762 185.3 225.728 185.067 226.822 185.067C227.875 185.067 228.815 185.294 229.642 185.747C230.482 186.2 231.128 186.847 231.582 187.687C232.048 188.514 232.282 189.467 232.282 190.547ZM229.382 189.747C229.368 189.027 229.108 188.454 228.602 188.027C228.095 187.587 227.475 187.367 226.742 187.367C226.048 187.367 225.462 187.58 224.982 188.007C224.515 188.42 224.228 189 224.122 189.747H229.382ZM233.605 190.747C233.605 189.627 233.825 188.634 234.265 187.767C234.719 186.9 235.332 186.234 236.105 185.767C236.879 185.3 237.739 185.067 238.685 185.067C239.405 185.067 240.092 185.227 240.745 185.547C241.399 185.854 241.919 186.267 242.305 186.787V181.527H245.145V196.327H242.305V194.687C241.959 195.234 241.472 195.674 240.845 196.007C240.219 196.34 239.492 196.507 238.665 196.507C237.732 196.507 236.879 196.267 236.105 195.787C235.332 195.307 234.719 194.634 234.265 193.767C233.825 192.887 233.605 191.88 233.605 190.747ZM242.325 190.787C242.325 190.107 242.192 189.527 241.925 189.047C241.659 188.554 241.299 188.18 240.845 187.927C240.392 187.66 239.905 187.527 239.385 187.527C238.865 187.527 238.385 187.654 237.945 187.907C237.505 188.16 237.145 188.534 236.865 189.027C236.599 189.507 236.465 190.08 236.465 190.747C236.465 191.414 236.599 192 236.865 192.507C237.145 193 237.505 193.38 237.945 193.647C238.399 193.914 238.879 194.047 239.385 194.047C239.905 194.047 240.392 193.92 240.845 193.667C241.299 193.4 241.659 193.027 241.925 192.547C242.192 192.054 242.325 191.467 242.325 190.787Z" fill="#545C81"/>
<path d="M94.6931 220.076H91.9241V222.884H90.8191V220.076H88.0631V219.075H90.8191V216.254H91.9241V219.075H94.6931V220.076ZM96.4692 223.378C97.5698 222.494 98.4322 221.77 99.0562 221.207C99.6802 220.635 100.204 220.041 100.629 219.426C101.062 218.802 101.279 218.191 101.279 217.593C101.279 217.03 101.14 216.588 100.863 216.267C100.594 215.938 100.157 215.773 99.5502 215.773C98.9608 215.773 98.5015 215.959 98.1722 216.332C97.8515 216.696 97.6782 217.186 97.6522 217.801H96.5082C96.5428 216.83 96.8375 216.081 97.3922 215.552C97.9468 215.023 98.6618 214.759 99.5372 214.759C100.43 214.759 101.136 215.006 101.656 215.5C102.185 215.994 102.449 216.674 102.449 217.541C102.449 218.26 102.232 218.962 101.799 219.647C101.374 220.323 100.889 220.921 100.343 221.441C99.7972 221.952 99.0995 222.55 98.2502 223.235H102.722V224.223H96.4692V223.378ZM110.572 215.266C111.56 215.266 112.413 215.452 113.133 215.825C113.861 216.189 114.415 216.713 114.797 217.398C115.187 218.083 115.382 218.889 115.382 219.816C115.382 220.743 115.187 221.549 114.797 222.234C114.415 222.91 113.861 223.43 113.133 223.794C112.413 224.149 111.56 224.327 110.572 224.327H107.751V215.266H110.572ZM110.572 223.352C111.742 223.352 112.634 223.044 113.25 222.429C113.865 221.805 114.173 220.934 114.173 219.816C114.173 218.689 113.861 217.81 113.237 217.177C112.621 216.544 111.733 216.228 110.572 216.228H108.934V223.352H110.572ZM116.5 220.739C116.5 220.011 116.647 219.374 116.942 218.828C117.237 218.273 117.64 217.844 118.151 217.541C118.671 217.238 119.247 217.086 119.88 217.086C120.504 217.086 121.046 217.22 121.505 217.489C121.964 217.758 122.307 218.096 122.532 218.503V217.203H123.728V224.327H122.532V223.001C122.298 223.417 121.947 223.764 121.479 224.041C121.02 224.31 120.482 224.444 119.867 224.444C119.234 224.444 118.662 224.288 118.151 223.976C117.64 223.664 117.237 223.226 116.942 222.663C116.647 222.1 116.5 221.458 116.5 220.739ZM122.532 220.752C122.532 220.215 122.424 219.747 122.207 219.348C121.99 218.949 121.696 218.646 121.323 218.438C120.959 218.221 120.556 218.113 120.114 218.113C119.672 218.113 119.269 218.217 118.905 218.425C118.541 218.633 118.251 218.936 118.034 219.335C117.817 219.734 117.709 220.202 117.709 220.739C117.709 221.285 117.817 221.762 118.034 222.169C118.251 222.568 118.541 222.875 118.905 223.092C119.269 223.3 119.672 223.404 120.114 223.404C120.556 223.404 120.959 223.3 121.323 223.092C121.696 222.875 121.99 222.568 122.207 222.169C122.424 221.762 122.532 221.289 122.532 220.752ZM127.17 218.178V222.377C127.17 222.724 127.244 222.971 127.391 223.118C127.538 223.257 127.794 223.326 128.158 223.326H129.029V224.327H127.963C127.304 224.327 126.81 224.175 126.481 223.872C126.152 223.569 125.987 223.07 125.987 222.377V218.178H125.064V217.203H125.987V215.409H127.17V217.203H129.029V218.178H127.17ZM130.02 220.739C130.02 220.011 130.168 219.374 130.462 218.828C130.757 218.273 131.16 217.844 131.671 217.541C132.191 217.238 132.768 217.086 133.4 217.086C134.024 217.086 134.566 217.22 135.025 217.489C135.485 217.758 135.827 218.096 136.052 218.503V217.203H137.248V224.327H136.052V223.001C135.818 223.417 135.467 223.764 134.999 224.041C134.54 224.31 134.003 224.444 133.387 224.444C132.755 224.444 132.183 224.288 131.671 223.976C131.16 223.664 130.757 223.226 130.462 222.663C130.168 222.1 130.02 221.458 130.02 220.739ZM136.052 220.752C136.052 220.215 135.944 219.747 135.727 219.348C135.511 218.949 135.216 218.646 134.843 218.438C134.479 218.221 134.076 218.113 133.634 218.113C133.192 218.113 132.789 218.217 132.425 218.425C132.061 218.633 131.771 218.936 131.554 219.335C131.338 219.734 131.229 220.202 131.229 220.739C131.229 221.285 131.338 221.762 131.554 222.169C131.771 222.568 132.061 222.875 132.425 223.092C132.789 223.3 133.192 223.404 133.634 223.404C134.076 223.404 134.479 223.3 134.843 223.092C135.216 222.875 135.511 222.568 135.727 222.169C135.944 221.762 136.052 221.289 136.052 220.752ZM145.612 218.178H144.117V224.327H142.934V218.178H142.011V217.203H142.934V216.696C142.934 215.899 143.138 215.318 143.545 214.954C143.961 214.581 144.624 214.395 145.534 214.395V215.383C145.014 215.383 144.646 215.487 144.429 215.695C144.221 215.894 144.117 216.228 144.117 216.696V217.203H145.612V218.178ZM148.175 218.36C148.383 217.953 148.677 217.636 149.059 217.411C149.449 217.186 149.921 217.073 150.476 217.073V218.295H150.164C148.838 218.295 148.175 219.014 148.175 220.453V224.327H146.992V217.203H148.175V218.36ZM154.948 224.444C154.281 224.444 153.674 224.292 153.128 223.989C152.591 223.686 152.166 223.257 151.854 222.702C151.551 222.139 151.399 221.489 151.399 220.752C151.399 220.024 151.555 219.383 151.867 218.828C152.188 218.265 152.621 217.836 153.167 217.541C153.713 217.238 154.324 217.086 155 217.086C155.676 217.086 156.287 217.238 156.833 217.541C157.379 217.836 157.808 218.26 158.12 218.815C158.441 219.37 158.601 220.015 158.601 220.752C158.601 221.489 158.437 222.139 158.107 222.702C157.787 223.257 157.349 223.686 156.794 223.989C156.24 224.292 155.624 224.444 154.948 224.444ZM154.948 223.404C155.373 223.404 155.772 223.304 156.144 223.105C156.517 222.906 156.816 222.607 157.041 222.208C157.275 221.809 157.392 221.324 157.392 220.752C157.392 220.18 157.28 219.695 157.054 219.296C156.829 218.897 156.534 218.603 156.17 218.412C155.806 218.213 155.412 218.113 154.987 218.113C154.554 218.113 154.155 218.213 153.791 218.412C153.436 218.603 153.15 218.897 152.933 219.296C152.717 219.695 152.608 220.18 152.608 220.752C152.608 221.333 152.712 221.822 152.92 222.221C153.137 222.62 153.423 222.919 153.778 223.118C154.134 223.309 154.524 223.404 154.948 223.404ZM168.724 217.073C169.278 217.073 169.772 217.19 170.206 217.424C170.639 217.649 170.981 217.992 171.233 218.451C171.484 218.91 171.61 219.469 171.61 220.128V224.327H170.44V220.297C170.44 219.586 170.262 219.045 169.907 218.672C169.56 218.291 169.088 218.1 168.49 218.1C167.874 218.1 167.385 218.299 167.021 218.698C166.657 219.088 166.475 219.656 166.475 220.401V224.327H165.305V220.297C165.305 219.586 165.127 219.045 164.772 218.672C164.425 218.291 163.953 218.1 163.355 218.1C162.739 218.1 162.25 218.299 161.886 218.698C161.522 219.088 161.34 219.656 161.34 220.401V224.327H160.157V217.203H161.34V218.23C161.574 217.857 161.886 217.571 162.276 217.372C162.674 217.173 163.112 217.073 163.589 217.073C164.187 217.073 164.715 217.207 165.175 217.476C165.634 217.745 165.976 218.139 166.202 218.659C166.401 218.156 166.73 217.766 167.19 217.489C167.649 217.212 168.16 217.073 168.724 217.073ZM178.199 214.707V224.327H177.016V214.707H178.199ZM179.773 220.739C179.773 220.011 179.921 219.374 180.215 218.828C180.51 218.273 180.913 217.844 181.424 217.541C181.944 217.238 182.521 217.086 183.153 217.086C183.777 217.086 184.319 217.22 184.778 217.489C185.238 217.758 185.58 218.096 185.805 218.503V217.203H187.001V224.327H185.805V223.001C185.571 223.417 185.22 223.764 184.752 224.041C184.293 224.31 183.756 224.444 183.14 224.444C182.508 224.444 181.936 224.288 181.424 223.976C180.913 223.664 180.51 223.226 180.215 222.663C179.921 222.1 179.773 221.458 179.773 220.739ZM185.805 220.752C185.805 220.215 185.697 219.747 185.48 219.348C185.264 218.949 184.969 218.646 184.596 218.438C184.232 218.221 183.829 218.113 183.387 218.113C182.945 218.113 182.542 218.217 182.178 218.425C181.814 218.633 181.524 218.936 181.307 219.335C181.091 219.734 180.982 220.202 180.982 220.739C180.982 221.285 181.091 221.762 181.307 222.169C181.524 222.568 181.814 222.875 182.178 223.092C182.542 223.3 182.945 223.404 183.387 223.404C183.829 223.404 184.232 223.3 184.596 223.092C184.969 222.875 185.264 222.568 185.48 222.169C185.697 221.762 185.805 221.289 185.805 220.752ZM191.523 224.444C190.977 224.444 190.487 224.353 190.054 224.171C189.62 223.98 189.278 223.72 189.027 223.391C188.775 223.053 188.637 222.667 188.611 222.234H189.833C189.867 222.589 190.032 222.88 190.327 223.105C190.63 223.33 191.024 223.443 191.51 223.443C191.96 223.443 192.316 223.343 192.576 223.144C192.836 222.945 192.966 222.693 192.966 222.39C192.966 222.078 192.827 221.848 192.55 221.701C192.272 221.545 191.843 221.393 191.263 221.246C190.734 221.107 190.301 220.969 189.963 220.83C189.633 220.683 189.347 220.47 189.105 220.193C188.871 219.907 188.754 219.534 188.754 219.075C188.754 218.711 188.862 218.377 189.079 218.074C189.295 217.771 189.603 217.532 190.002 217.359C190.4 217.177 190.855 217.086 191.367 217.086C192.155 217.086 192.792 217.285 193.278 217.684C193.763 218.083 194.023 218.629 194.058 219.322H192.875C192.849 218.949 192.697 218.65 192.42 218.425C192.151 218.2 191.787 218.087 191.328 218.087C190.903 218.087 190.565 218.178 190.314 218.36C190.062 218.542 189.937 218.78 189.937 219.075C189.937 219.309 190.01 219.504 190.158 219.66C190.314 219.807 190.504 219.929 190.73 220.024C190.964 220.111 191.284 220.21 191.692 220.323C192.203 220.462 192.619 220.6 192.94 220.739C193.26 220.869 193.533 221.068 193.759 221.337C193.993 221.606 194.114 221.957 194.123 222.39C194.123 222.78 194.014 223.131 193.798 223.443C193.581 223.755 193.273 224.002 192.875 224.184C192.485 224.357 192.034 224.444 191.523 224.444ZM197.236 218.178V222.377C197.236 222.724 197.309 222.971 197.457 223.118C197.604 223.257 197.86 223.326 198.224 223.326H199.095V224.327H198.029C197.37 224.327 196.876 224.175 196.547 223.872C196.217 223.569 196.053 223.07 196.053 222.377V218.178H195.13V217.203H196.053V215.409H197.236V217.203H199.095V218.178H197.236ZM212.561 217.073C213.115 217.073 213.609 217.19 214.043 217.424C214.476 217.649 214.818 217.992 215.07 218.451C215.321 218.91 215.447 219.469 215.447 220.128V224.327H214.277V220.297C214.277 219.586 214.099 219.045 213.744 218.672C213.397 218.291 212.925 218.1 212.327 218.1C211.711 218.1 211.222 218.299 210.858 218.698C210.494 219.088 210.312 219.656 210.312 220.401V224.327H209.142V220.297C209.142 219.586 208.964 219.045 208.609 218.672C208.262 218.291 207.79 218.1 207.192 218.1C206.576 218.1 206.087 218.299 205.723 218.698C205.359 219.088 205.177 219.656 205.177 220.401V224.327H203.994V217.203H205.177V218.23C205.411 217.857 205.723 217.571 206.113 217.372C206.511 217.173 206.949 217.073 207.426 217.073C208.024 217.073 208.552 217.207 209.012 217.476C209.471 217.745 209.813 218.139 210.039 218.659C210.238 218.156 210.567 217.766 211.027 217.489C211.486 217.212 211.997 217.073 212.561 217.073ZM220.494 224.444C219.827 224.444 219.22 224.292 218.674 223.989C218.137 223.686 217.712 223.257 217.4 222.702C217.097 222.139 216.945 221.489 216.945 220.752C216.945 220.024 217.101 219.383 217.413 218.828C217.734 218.265 218.167 217.836 218.713 217.541C219.259 217.238 219.87 217.086 220.546 217.086C221.222 217.086 221.833 217.238 222.379 217.541C222.925 217.836 223.354 218.26 223.666 218.815C223.987 219.37 224.147 220.015 224.147 220.752C224.147 221.489 223.983 222.139 223.653 222.702C223.333 223.257 222.895 223.686 222.34 223.989C221.786 224.292 221.17 224.444 220.494 224.444ZM220.494 223.404C220.919 223.404 221.318 223.304 221.69 223.105C222.063 222.906 222.362 222.607 222.587 222.208C222.821 221.809 222.938 221.324 222.938 220.752C222.938 220.18 222.826 219.695 222.6 219.296C222.375 218.897 222.08 218.603 221.716 218.412C221.352 218.213 220.958 218.113 220.533 218.113C220.1 218.113 219.701 218.213 219.337 218.412C218.982 218.603 218.696 218.897 218.479 219.296C218.263 219.695 218.154 220.18 218.154 220.752C218.154 221.333 218.258 221.822 218.466 222.221C218.683 222.62 218.969 222.919 219.324 223.118C219.68 223.309 220.07 223.404 220.494 223.404ZM229.174 217.073C230.04 217.073 230.742 217.337 231.28 217.866C231.817 218.386 232.086 219.14 232.086 220.128V224.327H230.916V220.297C230.916 219.586 230.738 219.045 230.383 218.672C230.027 218.291 229.542 218.1 228.927 218.1C228.303 218.1 227.804 218.295 227.432 218.685C227.068 219.075 226.886 219.643 226.886 220.388V224.327H225.703V217.203H226.886V218.217C227.12 217.853 227.436 217.571 227.835 217.372C228.242 217.173 228.688 217.073 229.174 217.073ZM235.461 218.178V222.377C235.461 222.724 235.535 222.971 235.682 223.118C235.829 223.257 236.085 223.326 236.449 223.326H237.32V224.327H236.254C235.595 224.327 235.101 224.175 234.772 223.872C234.443 223.569 234.278 223.07 234.278 222.377V218.178H233.355V217.203H234.278V215.409H235.461V217.203H237.32V218.178H235.461ZM242.289 217.073C242.827 217.073 243.312 217.19 243.745 217.424C244.179 217.649 244.517 217.992 244.759 218.451C245.011 218.91 245.136 219.469 245.136 220.128V224.327H243.966V220.297C243.966 219.586 243.789 219.045 243.433 218.672C243.078 218.291 242.593 218.1 241.977 218.1C241.353 218.1 240.855 218.295 240.482 218.685C240.118 219.075 239.936 219.643 239.936 220.388V224.327H238.753V214.707H239.936V218.217C240.17 217.853 240.491 217.571 240.898 217.372C241.314 217.173 241.778 217.073 242.289 217.073Z" fill="#6D64FF"/>
<path d="M196.757 293.084C195.981 293.084 195.265 292.904 194.609 292.544C193.961 292.176 193.445 291.668 193.061 291.02C192.685 290.364 192.497 289.628 192.497 288.812C192.497 287.996 192.685 287.264 193.061 286.616C193.445 285.968 193.961 285.464 194.609 285.104C195.265 284.736 195.981 284.552 196.757 284.552C197.541 284.552 198.257 284.736 198.905 285.104C199.561 285.464 200.077 285.968 200.453 286.616C200.829 287.264 201.017 287.996 201.017 288.812C201.017 289.628 200.829 290.364 200.453 291.02C200.077 291.668 199.561 292.176 198.905 292.544C198.257 292.904 197.541 293.084 196.757 293.084ZM196.757 291.896C197.309 291.896 197.801 291.772 198.233 291.524C198.665 291.268 199.001 290.908 199.241 290.444C199.489 289.972 199.613 289.428 199.613 288.812C199.613 288.196 199.489 287.656 199.241 287.192C199.001 286.728 198.665 286.372 198.233 286.124C197.801 285.876 197.309 285.752 196.757 285.752C196.205 285.752 195.713 285.876 195.281 286.124C194.849 286.372 194.509 286.728 194.261 287.192C194.021 287.656 193.901 288.196 193.901 288.812C193.901 289.428 194.021 289.972 194.261 290.444C194.509 290.908 194.849 291.268 195.281 291.524C195.713 291.772 196.205 291.896 196.757 291.896ZM203.731 287.36C203.963 287.056 204.279 286.8 204.679 286.592C205.079 286.384 205.531 286.28 206.035 286.28C206.611 286.28 207.135 286.424 207.607 286.712C208.087 286.992 208.463 287.388 208.735 287.9C209.007 288.412 209.143 289 209.143 289.664C209.143 290.328 209.007 290.924 208.735 291.452C208.463 291.972 208.087 292.38 207.607 292.676C207.135 292.964 206.611 293.108 206.035 293.108C205.531 293.108 205.083 293.008 204.691 292.808C204.299 292.6 203.979 292.344 203.731 292.04V296.144H202.363V286.388H203.731V287.36ZM207.751 289.664C207.751 289.208 207.655 288.816 207.463 288.488C207.279 288.152 207.031 287.9 206.719 287.732C206.415 287.556 206.087 287.468 205.735 287.468C205.391 287.468 205.063 287.556 204.751 287.732C204.447 287.908 204.199 288.164 204.007 288.5C203.823 288.836 203.731 289.232 203.731 289.688C203.731 290.144 203.823 290.544 204.007 290.888C204.199 291.224 204.447 291.48 204.751 291.656C205.063 291.832 205.391 291.92 205.735 291.92C206.087 291.92 206.415 291.832 206.719 291.656C207.031 291.472 207.279 291.208 207.463 290.864C207.655 290.52 207.751 290.12 207.751 289.664ZM216.556 289.532C216.556 289.78 216.54 290.004 216.508 290.204H211.456C211.496 290.732 211.692 291.156 212.044 291.476C212.396 291.796 212.828 291.956 213.34 291.956C214.076 291.956 214.596 291.648 214.9 291.032H216.376C216.176 291.64 215.812 292.14 215.284 292.532C214.764 292.916 214.116 293.108 213.34 293.108C212.708 293.108 212.14 292.968 211.636 292.688C211.14 292.4 210.748 292 210.46 291.488C210.18 290.968 210.04 290.368 210.04 289.688C210.04 289.008 210.176 288.412 210.448 287.9C210.728 287.38 211.116 286.98 211.612 286.7C212.116 286.42 212.692 286.28 213.34 286.28C213.964 286.28 214.52 286.416 215.008 286.688C215.496 286.96 215.876 287.344 216.148 287.84C216.42 288.328 216.556 288.892 216.556 289.532ZM215.128 289.1C215.12 288.596 214.94 288.192 214.588 287.888C214.236 287.584 213.8 287.432 213.28 287.432C212.808 287.432 212.404 287.584 212.068 287.888C211.732 288.184 211.532 288.588 211.468 289.1H215.128ZM221.238 286.28C221.758 286.28 222.222 286.388 222.63 286.604C223.046 286.82 223.37 287.14 223.602 287.564C223.834 287.988 223.95 288.5 223.95 289.1V293H222.594V289.304C222.594 288.712 222.446 288.26 222.15 287.948C221.854 287.628 221.45 287.468 220.938 287.468C220.426 287.468 220.018 287.628 219.714 287.948C219.418 288.26 219.27 288.712 219.27 289.304V293H217.902V286.388H219.27V287.144C219.494 286.872 219.778 286.66 220.122 286.508C220.474 286.356 220.846 286.28 221.238 286.28ZM234.644 287.144C234.644 287.568 234.544 287.968 234.344 288.344C234.144 288.72 233.824 289.028 233.384 289.268C232.944 289.5 232.38 289.616 231.692 289.616H230.18V293H228.812V284.66H231.692C232.332 284.66 232.872 284.772 233.312 284.996C233.76 285.212 234.092 285.508 234.308 285.884C234.532 286.26 234.644 286.68 234.644 287.144ZM231.692 288.5C232.212 288.5 232.6 288.384 232.856 288.152C233.112 287.912 233.24 287.576 233.24 287.144C233.24 286.232 232.724 285.776 231.692 285.776H230.18V288.5H231.692ZM237.317 287.348C237.517 287.012 237.781 286.752 238.109 286.568C238.445 286.376 238.841 286.28 239.297 286.28V287.696H238.949C238.413 287.696 238.005 287.832 237.725 288.104C237.453 288.376 237.317 288.848 237.317 289.52V293H235.949V286.388H237.317V287.348ZM243.422 293.108C242.798 293.108 242.234 292.968 241.73 292.688C241.226 292.4 240.83 292 240.542 291.488C240.254 290.968 240.11 290.368 240.11 289.688C240.11 289.016 240.258 288.42 240.554 287.9C240.85 287.38 241.254 286.98 241.766 286.7C242.278 286.42 242.85 286.28 243.482 286.28C244.114 286.28 244.686 286.42 245.198 286.7C245.71 286.98 246.114 287.38 246.41 287.9C246.706 288.42 246.854 289.016 246.854 289.688C246.854 290.36 246.702 290.956 246.398 291.476C246.094 291.996 245.678 292.4 245.15 292.688C244.63 292.968 244.054 293.108 243.422 293.108ZM243.422 291.92C243.774 291.92 244.102 291.836 244.406 291.668C244.718 291.5 244.97 291.248 245.162 290.912C245.354 290.576 245.45 290.168 245.45 289.688C245.45 289.208 245.358 288.804 245.174 288.476C244.99 288.14 244.746 287.888 244.442 287.72C244.138 287.552 243.81 287.468 243.458 287.468C243.106 287.468 242.778 287.552 242.474 287.72C242.178 287.888 241.942 288.14 241.766 288.476C241.59 288.804 241.502 289.208 241.502 289.688C241.502 290.4 241.682 290.952 242.042 291.344C242.41 291.728 242.87 291.92 243.422 291.92ZM248.903 285.512C248.655 285.512 248.447 285.428 248.279 285.26C248.111 285.092 248.027 284.884 248.027 284.636C248.027 284.388 248.111 284.18 248.279 284.012C248.447 283.844 248.655 283.76 248.903 283.76C249.143 283.76 249.347 283.844 249.515 284.012C249.683 284.18 249.767 284.388 249.767 284.636C249.767 284.884 249.683 285.092 249.515 285.26C249.347 285.428 249.143 285.512 248.903 285.512ZM249.575 294.296C249.575 294.944 249.411 295.412 249.083 295.7C248.763 295.996 248.295 296.144 247.679 296.144H246.971V294.992H247.439C247.719 294.992 247.915 294.936 248.027 294.824C248.147 294.72 248.207 294.544 248.207 294.296V286.388H249.575V294.296ZM257.431 289.532C257.431 289.78 257.415 290.004 257.383 290.204H252.331C252.371 290.732 252.567 291.156 252.919 291.476C253.271 291.796 253.703 291.956 254.215 291.956C254.951 291.956 255.471 291.648 255.775 291.032H257.251C257.051 291.64 256.687 292.14 256.159 292.532C255.639 292.916 254.991 293.108 254.215 293.108C253.583 293.108 253.015 292.968 252.511 292.688C252.015 292.4 251.623 292 251.335 291.488C251.055 290.968 250.915 290.368 250.915 289.688C250.915 289.008 251.051 288.412 251.323 287.9C251.603 287.38 251.991 286.98 252.487 286.7C252.991 286.42 253.567 286.28 254.215 286.28C254.839 286.28 255.395 286.416 255.883 286.688C256.371 286.96 256.751 287.344 257.023 287.84C257.295 288.328 257.431 288.892 257.431 289.532ZM256.003 289.1C255.995 288.596 255.815 288.192 255.463 287.888C255.111 287.584 254.675 287.432 254.155 287.432C253.683 287.432 253.279 287.584 252.943 287.888C252.607 288.184 252.407 288.588 252.343 289.1H256.003ZM258.321 289.688C258.321 289.008 258.457 288.412 258.729 287.9C259.009 287.38 259.393 286.98 259.881 286.7C260.369 286.42 260.929 286.28 261.561 286.28C262.361 286.28 263.021 286.472 263.541 286.856C264.069 287.232 264.425 287.772 264.609 288.476H263.133C263.013 288.148 262.821 287.892 262.557 287.708C262.293 287.524 261.961 287.432 261.561 287.432C261.001 287.432 260.553 287.632 260.217 288.032C259.889 288.424 259.725 288.976 259.725 289.688C259.725 290.4 259.889 290.956 260.217 291.356C260.553 291.756 261.001 291.956 261.561 291.956C262.353 291.956 262.877 291.608 263.133 290.912H264.609C264.417 291.584 264.057 292.12 263.529 292.52C263.001 292.912 262.345 293.108 261.561 293.108C260.929 293.108 260.369 292.968 259.881 292.688C259.393 292.4 259.009 292 258.729 291.488C258.457 290.968 258.321 290.368 258.321 289.688ZM267.568 287.504V291.164C267.568 291.412 267.624 291.592 267.736 291.704C267.856 291.808 268.056 291.86 268.336 291.86H269.176V293H268.096C267.48 293 267.008 292.856 266.68 292.568C266.352 292.28 266.188 291.812 266.188 291.164V287.504H265.408V286.388H266.188V284.744H267.568V286.388H269.176V287.504H267.568ZM272.837 293.108C272.317 293.108 271.849 293.016 271.433 292.832C271.025 292.64 270.701 292.384 270.461 292.064C270.221 291.736 270.093 291.372 270.077 290.972H271.493C271.517 291.252 271.649 291.488 271.889 291.68C272.137 291.864 272.445 291.956 272.813 291.956C273.197 291.956 273.493 291.884 273.701 291.74C273.917 291.588 274.025 291.396 274.025 291.164C274.025 290.916 273.905 290.732 273.665 290.612C273.433 290.492 273.061 290.36 272.549 290.216C272.053 290.08 271.649 289.948 271.337 289.82C271.025 289.692 270.753 289.496 270.521 289.232C270.297 288.968 270.185 288.62 270.185 288.188C270.185 287.836 270.289 287.516 270.497 287.228C270.705 286.932 271.001 286.7 271.385 286.532C271.777 286.364 272.225 286.28 272.729 286.28C273.481 286.28 274.085 286.472 274.541 286.856C275.005 287.232 275.253 287.748 275.285 288.404H273.917C273.893 288.108 273.773 287.872 273.557 287.696C273.341 287.52 273.049 287.432 272.681 287.432C272.321 287.432 272.045 287.5 271.853 287.636C271.661 287.772 271.565 287.952 271.565 288.176C271.565 288.352 271.629 288.5 271.757 288.62C271.885 288.74 272.041 288.836 272.225 288.908C272.409 288.972 272.681 289.056 273.041 289.16C273.521 289.288 273.913 289.42 274.217 289.556C274.529 289.684 274.797 289.876 275.021 290.132C275.245 290.388 275.361 290.728 275.369 291.152C275.369 291.528 275.265 291.864 275.057 292.16C274.849 292.456 274.553 292.688 274.169 292.856C273.793 293.024 273.349 293.108 272.837 293.108Z" fill="#545C81"/>
<rect x="180.5" y="276.5" width="107" height="23" rx="11.5" stroke="#25CCDE"/>
<defs>
<linearGradient id="paint0_linear_418_12294" x1="622.642" y1="99.8108" x2="622.642" y2="-216.404" gradientUnits="userSpaceOnUse">
<stop stop-color="#369AFE" stop-opacity="0.01"/>
<stop offset="1" stop-color="#6D64FF"/>
</linearGradient>
</defs>
</svg>
