<svg width="300" height="312" viewBox="0 0 300 312" fill="none" xmlns="http://www.w3.org/2000/svg">
<rect width="300" height="312" rx="20" fill="white"/>
<path d="M12 92.7863L50.1436 56.4091L63.2374 75.261L79.6667 80.1573L128.747 46.7614L158.389 66.0844L194.019 12L209.69 66.5795L225.243 75.261L243.766 56.4091L258.927 69.7738L288 80.1573" stroke="#5BCD88" stroke-width="1.5" stroke-linecap="round" stroke-linejoin="round"/>
<path fill-rule="evenodd" clip-rule="evenodd" d="M12 92.6537L50.1436 56.3363L63.2374 75.1572L79.6667 80.0455L130.268 46.8194L158.389 65.9956L194.019 12L209.69 66.49L225.243 75.1572L243.766 56.3363L258.927 69.679L288 80.0455V104.327H12L12 92.6537Z" fill="url(#paint0_linear_418_12295)"/>
<path d="M141.517 126.447C141.251 125.327 140.784 124.487 140.117 123.927C139.477 123.367 138.544 123.087 137.317 123.087C135.477 123.087 134.117 123.834 133.237 125.327C132.384 126.794 131.944 129.194 131.917 132.527C132.557 131.46 133.491 130.634 134.717 130.047C135.944 129.434 137.277 129.127 138.717 129.127C140.451 129.127 141.984 129.5 143.317 130.247C144.651 130.994 145.691 132.087 146.437 133.527C147.184 134.94 147.557 136.647 147.557 138.647C147.557 140.54 147.171 142.234 146.397 143.727C145.651 145.194 144.544 146.34 143.077 147.167C141.611 147.994 139.864 148.407 137.837 148.407C135.064 148.407 132.877 147.794 131.277 146.567C129.704 145.34 128.597 143.634 127.957 141.447C127.344 139.234 127.037 136.514 127.037 133.287C127.037 128.407 127.877 124.727 129.557 122.247C131.237 119.74 133.891 118.487 137.517 118.487C140.317 118.487 142.491 119.247 144.037 120.767C145.584 122.287 146.477 124.18 146.717 126.447H141.517ZM137.437 133.727C136.024 133.727 134.837 134.14 133.877 134.967C132.917 135.794 132.437 136.994 132.437 138.567C132.437 140.14 132.877 141.38 133.757 142.287C134.664 143.194 135.931 143.647 137.557 143.647C138.997 143.647 140.131 143.207 140.957 142.327C141.811 141.447 142.237 140.26 142.237 138.767C142.237 137.22 141.824 135.994 140.997 135.087C140.197 134.18 139.011 133.727 137.437 133.727ZM151.983 133.367C151.983 128.754 152.81 125.14 154.463 122.527C156.143 119.914 158.917 118.607 162.783 118.607C166.65 118.607 169.41 119.914 171.063 122.527C172.743 125.14 173.583 128.754 173.583 133.367C173.583 138.007 172.743 141.647 171.063 144.287C169.41 146.927 166.65 148.247 162.783 148.247C158.917 148.247 156.143 146.927 154.463 144.287C152.81 141.647 151.983 138.007 151.983 133.367ZM168.063 133.367C168.063 131.394 167.93 129.74 167.663 128.407C167.423 127.047 166.917 125.94 166.143 125.087C165.397 124.234 164.277 123.807 162.783 123.807C161.29 123.807 160.157 124.234 159.383 125.087C158.637 125.94 158.13 127.047 157.863 128.407C157.623 129.74 157.503 131.394 157.503 133.367C157.503 135.394 157.623 137.1 157.863 138.487C158.103 139.847 158.61 140.954 159.383 141.807C160.157 142.634 161.29 143.047 162.783 143.047C164.277 143.047 165.41 142.634 166.183 141.807C166.957 140.954 167.463 139.847 167.703 138.487C167.943 137.1 168.063 135.394 168.063 133.367Z" fill="#545C81"/>
<path d="M80.6448 172.367C82.1114 172.367 83.3981 172.654 84.5048 173.227C85.6248 173.8 86.4848 174.62 87.0848 175.687C87.6981 176.74 88.0048 177.967 88.0048 179.367C88.0048 180.767 87.6981 181.994 87.0848 183.047C86.4848 184.087 85.6248 184.894 84.5048 185.467C83.3981 186.04 82.1114 186.327 80.6448 186.327H75.7648V172.367H80.6448ZM80.5448 183.947C82.0114 183.947 83.1448 183.547 83.9448 182.747C84.7448 181.947 85.1448 180.82 85.1448 179.367C85.1448 177.914 84.7448 176.78 83.9448 175.967C83.1448 175.14 82.0114 174.727 80.5448 174.727H78.5648V183.947H80.5448ZM89.3807 180.747C89.3807 179.627 89.6007 178.634 90.0407 177.767C90.494 176.9 91.1007 176.234 91.8607 175.767C92.634 175.3 93.494 175.067 94.4407 175.067C95.2674 175.067 95.9874 175.234 96.6007 175.567C97.2274 175.9 97.7274 176.32 98.1007 176.827V175.247H100.921V186.327H98.1007V184.707C97.7407 185.227 97.2407 185.66 96.6007 186.007C95.974 186.34 95.2474 186.507 94.4207 186.507C93.4874 186.507 92.634 186.267 91.8607 185.787C91.1007 185.307 90.494 184.634 90.0407 183.767C89.6007 182.887 89.3807 181.88 89.3807 180.747ZM98.1007 180.787C98.1007 180.107 97.9674 179.527 97.7007 179.047C97.434 178.554 97.074 178.18 96.6207 177.927C96.1674 177.66 95.6807 177.527 95.1607 177.527C94.6407 177.527 94.1607 177.654 93.7207 177.907C93.2807 178.16 92.9207 178.534 92.6407 179.027C92.374 179.507 92.2407 180.08 92.2407 180.747C92.2407 181.414 92.374 182 92.6407 182.507C92.9207 183 93.2807 183.38 93.7207 183.647C94.174 183.914 94.654 184.047 95.1607 184.047C95.6807 184.047 96.1674 183.92 96.6207 183.667C97.074 183.4 97.434 183.027 97.7007 182.547C97.9674 182.054 98.1007 181.467 98.1007 180.787ZM106.915 177.547V182.907C106.915 183.28 107.002 183.554 107.175 183.727C107.362 183.887 107.669 183.967 108.095 183.967H109.395V186.327H107.635C105.275 186.327 104.095 185.18 104.095 182.887V177.547H102.775V175.247H104.095V172.507H106.915V175.247H109.395V177.547H106.915ZM110.689 180.747C110.689 179.627 110.909 178.634 111.349 177.767C111.803 176.9 112.409 176.234 113.169 175.767C113.943 175.3 114.803 175.067 115.749 175.067C116.576 175.067 117.296 175.234 117.909 175.567C118.536 175.9 119.036 176.32 119.409 176.827V175.247H122.229V186.327H119.409V184.707C119.049 185.227 118.549 185.66 117.909 186.007C117.283 186.34 116.556 186.507 115.729 186.507C114.796 186.507 113.943 186.267 113.169 185.787C112.409 185.307 111.803 184.634 111.349 183.767C110.909 182.887 110.689 181.88 110.689 180.747ZM119.409 180.787C119.409 180.107 119.276 179.527 119.009 179.047C118.743 178.554 118.383 178.18 117.929 177.927C117.476 177.66 116.989 177.527 116.469 177.527C115.949 177.527 115.469 177.654 115.029 177.907C114.589 178.16 114.229 178.534 113.949 179.027C113.683 179.507 113.549 180.08 113.549 180.747C113.549 181.414 113.683 182 113.949 182.507C114.229 183 114.589 183.38 115.029 183.647C115.483 183.914 115.963 184.047 116.469 184.047C116.989 184.047 117.476 183.92 117.929 183.667C118.383 183.4 118.743 183.027 119.009 182.547C119.276 182.054 119.409 181.467 119.409 180.787ZM129.05 179.327C129.05 177.954 129.356 176.727 129.97 175.647C130.596 174.554 131.443 173.707 132.51 173.107C133.59 172.494 134.796 172.187 136.13 172.187C137.69 172.187 139.056 172.587 140.23 173.387C141.403 174.187 142.223 175.294 142.69 176.707H139.47C139.15 176.04 138.696 175.54 138.11 175.207C137.536 174.874 136.87 174.707 136.11 174.707C135.296 174.707 134.57 174.9 133.93 175.287C133.303 175.66 132.81 176.194 132.45 176.887C132.103 177.58 131.93 178.394 131.93 179.327C131.93 180.247 132.103 181.06 132.45 181.767C132.81 182.46 133.303 183 133.93 183.387C134.57 183.76 135.296 183.947 136.11 183.947C136.87 183.947 137.536 183.78 138.11 183.447C138.696 183.1 139.15 182.594 139.47 181.927H142.69C142.223 183.354 141.403 184.467 140.23 185.267C139.07 186.054 137.703 186.447 136.13 186.447C134.796 186.447 133.59 186.147 132.51 185.547C131.443 184.934 130.596 184.087 129.97 183.007C129.356 181.927 129.05 180.7 129.05 179.327ZM150.001 186.507C148.935 186.507 147.975 186.274 147.121 185.807C146.268 185.327 145.595 184.654 145.101 183.787C144.621 182.92 144.381 181.92 144.381 180.787C144.381 179.654 144.628 178.654 145.121 177.787C145.628 176.92 146.315 176.254 147.181 175.787C148.048 175.307 149.015 175.067 150.081 175.067C151.148 175.067 152.115 175.307 152.981 175.787C153.848 176.254 154.528 176.92 155.021 177.787C155.528 178.654 155.781 179.654 155.781 180.787C155.781 181.92 155.521 182.92 155.001 183.787C154.495 184.654 153.801 185.327 152.921 185.807C152.055 186.274 151.081 186.507 150.001 186.507ZM150.001 184.067C150.508 184.067 150.981 183.947 151.421 183.707C151.875 183.454 152.235 183.08 152.501 182.587C152.768 182.094 152.901 181.494 152.901 180.787C152.901 179.734 152.621 178.927 152.061 178.367C151.515 177.794 150.841 177.507 150.041 177.507C149.241 177.507 148.568 177.794 148.021 178.367C147.488 178.927 147.221 179.734 147.221 180.787C147.221 181.84 147.481 182.654 148.001 183.227C148.535 183.787 149.201 184.067 150.001 184.067ZM160.635 171.527V186.327H157.835V171.527H160.635ZM166.201 171.527V186.327H163.401V171.527H166.201ZM179.268 180.547C179.268 180.947 179.241 181.307 179.188 181.627H171.088C171.155 182.427 171.435 183.054 171.928 183.507C172.421 183.96 173.028 184.187 173.748 184.187C174.788 184.187 175.528 183.74 175.968 182.847H178.988C178.668 183.914 178.055 184.794 177.148 185.487C176.241 186.167 175.128 186.507 173.808 186.507C172.741 186.507 171.781 186.274 170.928 185.807C170.088 185.327 169.428 184.654 168.948 183.787C168.481 182.92 168.248 181.92 168.248 180.787C168.248 179.64 168.481 178.634 168.948 177.767C169.415 176.9 170.068 176.234 170.908 175.767C171.748 175.3 172.715 175.067 173.808 175.067C174.861 175.067 175.801 175.294 176.628 175.747C177.468 176.2 178.115 176.847 178.568 177.687C179.035 178.514 179.268 179.467 179.268 180.547ZM176.368 179.747C176.355 179.027 176.095 178.454 175.588 178.027C175.081 177.587 174.461 177.367 173.728 177.367C173.035 177.367 172.448 177.58 171.968 178.007C171.501 178.42 171.215 179 171.108 179.747H176.368ZM180.592 180.787C180.592 179.64 180.825 178.64 181.292 177.787C181.758 176.92 182.405 176.254 183.232 175.787C184.058 175.307 185.005 175.067 186.072 175.067C187.445 175.067 188.578 175.414 189.472 176.107C190.378 176.787 190.985 177.747 191.292 178.987H188.272C188.112 178.507 187.838 178.134 187.452 177.867C187.078 177.587 186.612 177.447 186.052 177.447C185.252 177.447 184.618 177.74 184.152 178.327C183.685 178.9 183.452 179.72 183.452 180.787C183.452 181.84 183.685 182.66 184.152 183.247C184.618 183.82 185.252 184.107 186.052 184.107C187.185 184.107 187.925 183.6 188.272 182.587H191.292C190.985 183.787 190.378 184.74 189.472 185.447C188.565 186.154 187.432 186.507 186.072 186.507C185.005 186.507 184.058 186.274 183.232 185.807C182.405 185.327 181.758 184.66 181.292 183.807C180.825 182.94 180.592 181.934 180.592 180.787ZM196.603 177.547V182.907C196.603 183.28 196.69 183.554 196.863 183.727C197.05 183.887 197.356 183.967 197.783 183.967H199.083V186.327H197.323C194.963 186.327 193.783 185.18 193.783 182.887V177.547H192.463V175.247H193.783V172.507H196.603V175.247H199.083V177.547H196.603ZM211.397 180.547C211.397 180.947 211.37 181.307 211.317 181.627H203.217C203.283 182.427 203.563 183.054 204.057 183.507C204.55 183.96 205.157 184.187 205.877 184.187C206.917 184.187 207.657 183.74 208.097 182.847H211.117C210.797 183.914 210.183 184.794 209.277 185.487C208.37 186.167 207.257 186.507 205.937 186.507C204.87 186.507 203.91 186.274 203.057 185.807C202.217 185.327 201.557 184.654 201.077 183.787C200.61 182.92 200.377 181.92 200.377 180.787C200.377 179.64 200.61 178.634 201.077 177.767C201.543 176.9 202.197 176.234 203.037 175.767C203.877 175.3 204.843 175.067 205.937 175.067C206.99 175.067 207.93 175.294 208.757 175.747C209.597 176.2 210.243 176.847 210.697 177.687C211.163 178.514 211.397 179.467 211.397 180.547ZM208.497 179.747C208.483 179.027 208.223 178.454 207.717 178.027C207.21 177.587 206.59 177.367 205.857 177.367C205.163 177.367 204.577 177.58 204.097 178.007C203.63 178.42 203.343 179 203.237 179.747H208.497ZM212.721 180.747C212.721 179.627 212.941 178.634 213.381 177.767C213.834 176.9 214.447 176.234 215.221 175.767C215.994 175.3 216.854 175.067 217.801 175.067C218.521 175.067 219.207 175.227 219.861 175.547C220.514 175.854 221.034 176.267 221.421 176.787V171.527H224.261V186.327H221.421V184.687C221.074 185.234 220.587 185.674 219.961 186.007C219.334 186.34 218.607 186.507 217.781 186.507C216.847 186.507 215.994 186.267 215.221 185.787C214.447 185.307 213.834 184.634 213.381 183.767C212.941 182.887 212.721 181.88 212.721 180.747ZM221.441 180.787C221.441 180.107 221.307 179.527 221.041 179.047C220.774 178.554 220.414 178.18 219.961 177.927C219.507 177.66 219.021 177.527 218.501 177.527C217.981 177.527 217.501 177.654 217.061 177.907C216.621 178.16 216.261 178.534 215.981 179.027C215.714 179.507 215.581 180.08 215.581 180.747C215.581 181.414 215.714 182 215.981 182.507C216.261 183 216.621 183.38 217.061 183.647C217.514 183.914 217.994 184.047 218.501 184.047C219.021 184.047 219.507 183.92 219.961 183.667C220.414 183.4 220.774 183.027 221.041 182.547C221.307 182.054 221.441 181.467 221.441 180.787Z" fill="#545C81"/>
<path d="M78.1931 205.076H75.4241V207.884H74.3191V205.076H71.5631V204.075H74.3191V201.254H75.4241V204.075H78.1931V205.076ZM79.9692 208.378C81.0698 207.494 81.9322 206.77 82.5562 206.207C83.1802 205.635 83.7045 205.041 84.1292 204.426C84.5625 203.802 84.7792 203.191 84.7792 202.593C84.7792 202.03 84.6405 201.588 84.3632 201.267C84.0945 200.938 83.6568 200.773 83.0502 200.773C82.4608 200.773 82.0015 200.959 81.6722 201.332C81.3515 201.696 81.1782 202.186 81.1522 202.801H80.0082C80.0428 201.83 80.3375 201.081 80.8922 200.552C81.4468 200.023 82.1618 199.759 83.0372 199.759C83.9298 199.759 84.6362 200.006 85.1562 200.5C85.6848 200.994 85.9492 201.674 85.9492 202.541C85.9492 203.26 85.7325 203.962 85.2992 204.647C84.8745 205.323 84.3892 205.921 83.8432 206.441C83.2972 206.952 82.5995 207.55 81.7502 208.235H86.2222V209.223H79.9692V208.378ZM94.0715 200.266C95.0595 200.266 95.9132 200.452 96.6325 200.825C97.3605 201.189 97.9152 201.713 98.2965 202.398C98.6865 203.083 98.8815 203.889 98.8815 204.816C98.8815 205.743 98.6865 206.549 98.2965 207.234C97.9152 207.91 97.3605 208.43 96.6325 208.794C95.9132 209.149 95.0595 209.327 94.0715 209.327H91.2505V200.266H94.0715ZM94.0715 208.352C95.2415 208.352 96.1342 208.044 96.7495 207.429C97.3648 206.805 97.6725 205.934 97.6725 204.816C97.6725 203.689 97.3605 202.81 96.7365 202.177C96.1212 201.544 95.2328 201.228 94.0715 201.228H92.4335V208.352H94.0715ZM99.9999 205.739C99.9999 205.011 100.147 204.374 100.442 203.828C100.737 203.273 101.14 202.844 101.651 202.541C102.171 202.238 102.747 202.086 103.38 202.086C104.004 202.086 104.546 202.22 105.005 202.489C105.464 202.758 105.807 203.096 106.032 203.503V202.203H107.228V209.327H106.032V208.001C105.798 208.417 105.447 208.764 104.979 209.041C104.52 209.31 103.982 209.444 103.367 209.444C102.734 209.444 102.162 209.288 101.651 208.976C101.14 208.664 100.737 208.226 100.442 207.663C100.147 207.1 99.9999 206.458 99.9999 205.739ZM106.032 205.752C106.032 205.215 105.924 204.747 105.707 204.348C105.49 203.949 105.196 203.646 104.823 203.438C104.459 203.221 104.056 203.113 103.614 203.113C103.172 203.113 102.769 203.217 102.405 203.425C102.041 203.633 101.751 203.936 101.534 204.335C101.317 204.734 101.209 205.202 101.209 205.739C101.209 206.285 101.317 206.762 101.534 207.169C101.751 207.568 102.041 207.875 102.405 208.092C102.769 208.3 103.172 208.404 103.614 208.404C104.056 208.404 104.459 208.3 104.823 208.092C105.196 207.875 105.49 207.568 105.707 207.169C105.924 206.762 106.032 206.289 106.032 205.752ZM110.67 203.178V207.377C110.67 207.724 110.744 207.971 110.891 208.118C111.038 208.257 111.294 208.326 111.658 208.326H112.529V209.327H111.463C110.804 209.327 110.31 209.175 109.981 208.872C109.652 208.569 109.487 208.07 109.487 207.377V203.178H108.564V202.203H109.487V200.409H110.67V202.203H112.529V203.178H110.67ZM113.52 205.739C113.52 205.011 113.668 204.374 113.962 203.828C114.257 203.273 114.66 202.844 115.171 202.541C115.691 202.238 116.268 202.086 116.9 202.086C117.524 202.086 118.066 202.22 118.525 202.489C118.985 202.758 119.327 203.096 119.552 203.503V202.203H120.748V209.327H119.552V208.001C119.318 208.417 118.967 208.764 118.499 209.041C118.04 209.31 117.503 209.444 116.887 209.444C116.255 209.444 115.683 209.288 115.171 208.976C114.66 208.664 114.257 208.226 113.962 207.663C113.668 207.1 113.52 206.458 113.52 205.739ZM119.552 205.752C119.552 205.215 119.444 204.747 119.227 204.348C119.011 203.949 118.716 203.646 118.343 203.438C117.979 203.221 117.576 203.113 117.134 203.113C116.692 203.113 116.289 203.217 115.925 203.425C115.561 203.633 115.271 203.936 115.054 204.335C114.838 204.734 114.729 205.202 114.729 205.739C114.729 206.285 114.838 206.762 115.054 207.169C115.271 207.568 115.561 207.875 115.925 208.092C116.289 208.3 116.692 208.404 117.134 208.404C117.576 208.404 117.979 208.3 118.343 208.092C118.716 207.875 119.011 207.568 119.227 207.169C119.444 206.762 119.552 206.289 119.552 205.752ZM129.112 203.178H127.617V209.327H126.434V203.178H125.511V202.203H126.434V201.696C126.434 200.899 126.638 200.318 127.045 199.954C127.461 199.581 128.124 199.395 129.034 199.395V200.383C128.514 200.383 128.146 200.487 127.929 200.695C127.721 200.894 127.617 201.228 127.617 201.696V202.203H129.112V203.178ZM131.675 203.36C131.883 202.953 132.177 202.636 132.559 202.411C132.949 202.186 133.421 202.073 133.976 202.073V203.295H133.664C132.338 203.295 131.675 204.014 131.675 205.453V209.327H130.492V202.203H131.675V203.36ZM138.448 209.444C137.781 209.444 137.174 209.292 136.628 208.989C136.091 208.686 135.666 208.257 135.354 207.702C135.051 207.139 134.899 206.489 134.899 205.752C134.899 205.024 135.055 204.383 135.367 203.828C135.688 203.265 136.121 202.836 136.667 202.541C137.213 202.238 137.824 202.086 138.5 202.086C139.176 202.086 139.787 202.238 140.333 202.541C140.879 202.836 141.308 203.26 141.62 203.815C141.941 204.37 142.101 205.015 142.101 205.752C142.101 206.489 141.937 207.139 141.607 207.702C141.287 208.257 140.849 208.686 140.294 208.989C139.74 209.292 139.124 209.444 138.448 209.444ZM138.448 208.404C138.873 208.404 139.272 208.304 139.644 208.105C140.017 207.906 140.316 207.607 140.541 207.208C140.775 206.809 140.892 206.324 140.892 205.752C140.892 205.18 140.78 204.695 140.554 204.296C140.329 203.897 140.034 203.603 139.67 203.412C139.306 203.213 138.912 203.113 138.487 203.113C138.054 203.113 137.655 203.213 137.291 203.412C136.936 203.603 136.65 203.897 136.433 204.296C136.217 204.695 136.108 205.18 136.108 205.752C136.108 206.333 136.212 206.822 136.42 207.221C136.637 207.62 136.923 207.919 137.278 208.118C137.634 208.309 138.024 208.404 138.448 208.404ZM152.224 202.073C152.778 202.073 153.272 202.19 153.706 202.424C154.139 202.649 154.481 202.992 154.733 203.451C154.984 203.91 155.11 204.469 155.11 205.128V209.327H153.94V205.297C153.94 204.586 153.762 204.045 153.407 203.672C153.06 203.291 152.588 203.1 151.99 203.1C151.374 203.1 150.885 203.299 150.521 203.698C150.157 204.088 149.975 204.656 149.975 205.401V209.327H148.805V205.297C148.805 204.586 148.627 204.045 148.272 203.672C147.925 203.291 147.453 203.1 146.855 203.1C146.239 203.1 145.75 203.299 145.386 203.698C145.022 204.088 144.84 204.656 144.84 205.401V209.327H143.657V202.203H144.84V203.23C145.074 202.857 145.386 202.571 145.776 202.372C146.174 202.173 146.612 202.073 147.089 202.073C147.687 202.073 148.215 202.207 148.675 202.476C149.134 202.745 149.476 203.139 149.702 203.659C149.901 203.156 150.23 202.766 150.69 202.489C151.149 202.212 151.66 202.073 152.224 202.073ZM161.699 199.707V209.327H160.516V199.707H161.699ZM163.273 205.739C163.273 205.011 163.421 204.374 163.715 203.828C164.01 203.273 164.413 202.844 164.924 202.541C165.444 202.238 166.021 202.086 166.653 202.086C167.277 202.086 167.819 202.22 168.278 202.489C168.738 202.758 169.08 203.096 169.305 203.503V202.203H170.501V209.327H169.305V208.001C169.071 208.417 168.72 208.764 168.252 209.041C167.793 209.31 167.256 209.444 166.64 209.444C166.008 209.444 165.436 209.288 164.924 208.976C164.413 208.664 164.01 208.226 163.715 207.663C163.421 207.1 163.273 206.458 163.273 205.739ZM169.305 205.752C169.305 205.215 169.197 204.747 168.98 204.348C168.764 203.949 168.469 203.646 168.096 203.438C167.732 203.221 167.329 203.113 166.887 203.113C166.445 203.113 166.042 203.217 165.678 203.425C165.314 203.633 165.024 203.936 164.807 204.335C164.591 204.734 164.482 205.202 164.482 205.739C164.482 206.285 164.591 206.762 164.807 207.169C165.024 207.568 165.314 207.875 165.678 208.092C166.042 208.3 166.445 208.404 166.887 208.404C167.329 208.404 167.732 208.3 168.096 208.092C168.469 207.875 168.764 207.568 168.98 207.169C169.197 206.762 169.305 206.289 169.305 205.752ZM175.023 209.444C174.477 209.444 173.987 209.353 173.554 209.171C173.12 208.98 172.778 208.72 172.527 208.391C172.275 208.053 172.137 207.667 172.111 207.234H173.333C173.367 207.589 173.532 207.88 173.827 208.105C174.13 208.33 174.524 208.443 175.01 208.443C175.46 208.443 175.816 208.343 176.076 208.144C176.336 207.945 176.466 207.693 176.466 207.39C176.466 207.078 176.327 206.848 176.05 206.701C175.772 206.545 175.343 206.393 174.763 206.246C174.234 206.107 173.801 205.969 173.463 205.83C173.133 205.683 172.847 205.47 172.605 205.193C172.371 204.907 172.254 204.534 172.254 204.075C172.254 203.711 172.362 203.377 172.579 203.074C172.795 202.771 173.103 202.532 173.502 202.359C173.9 202.177 174.355 202.086 174.867 202.086C175.655 202.086 176.292 202.285 176.778 202.684C177.263 203.083 177.523 203.629 177.558 204.322H176.375C176.349 203.949 176.197 203.65 175.92 203.425C175.651 203.2 175.287 203.087 174.828 203.087C174.403 203.087 174.065 203.178 173.814 203.36C173.562 203.542 173.437 203.78 173.437 204.075C173.437 204.309 173.51 204.504 173.658 204.66C173.814 204.807 174.004 204.929 174.23 205.024C174.464 205.111 174.784 205.21 175.192 205.323C175.703 205.462 176.119 205.6 176.44 205.739C176.76 205.869 177.033 206.068 177.259 206.337C177.493 206.606 177.614 206.957 177.623 207.39C177.623 207.78 177.514 208.131 177.298 208.443C177.081 208.755 176.773 209.002 176.375 209.184C175.985 209.357 175.534 209.444 175.023 209.444ZM180.736 203.178V207.377C180.736 207.724 180.809 207.971 180.957 208.118C181.104 208.257 181.36 208.326 181.724 208.326H182.595V209.327H181.529C180.87 209.327 180.376 209.175 180.047 208.872C179.717 208.569 179.553 208.07 179.553 207.377V203.178H178.63V202.203H179.553V200.409H180.736V202.203H182.595V203.178H180.736ZM196.061 202.073C196.615 202.073 197.109 202.19 197.543 202.424C197.976 202.649 198.318 202.992 198.57 203.451C198.821 203.91 198.947 204.469 198.947 205.128V209.327H197.777V205.297C197.777 204.586 197.599 204.045 197.244 203.672C196.897 203.291 196.425 203.1 195.827 203.1C195.211 203.1 194.722 203.299 194.358 203.698C193.994 204.088 193.812 204.656 193.812 205.401V209.327H192.642V205.297C192.642 204.586 192.464 204.045 192.109 203.672C191.762 203.291 191.29 203.1 190.692 203.1C190.076 203.1 189.587 203.299 189.223 203.698C188.859 204.088 188.677 204.656 188.677 205.401V209.327H187.494V202.203H188.677V203.23C188.911 202.857 189.223 202.571 189.613 202.372C190.011 202.173 190.449 202.073 190.926 202.073C191.524 202.073 192.052 202.207 192.512 202.476C192.971 202.745 193.313 203.139 193.539 203.659C193.738 203.156 194.067 202.766 194.527 202.489C194.986 202.212 195.497 202.073 196.061 202.073ZM203.994 209.444C203.327 209.444 202.72 209.292 202.174 208.989C201.637 208.686 201.212 208.257 200.9 207.702C200.597 207.139 200.445 206.489 200.445 205.752C200.445 205.024 200.601 204.383 200.913 203.828C201.234 203.265 201.667 202.836 202.213 202.541C202.759 202.238 203.37 202.086 204.046 202.086C204.722 202.086 205.333 202.238 205.879 202.541C206.425 202.836 206.854 203.26 207.166 203.815C207.487 204.37 207.647 205.015 207.647 205.752C207.647 206.489 207.483 207.139 207.153 207.702C206.833 208.257 206.395 208.686 205.84 208.989C205.286 209.292 204.67 209.444 203.994 209.444ZM203.994 208.404C204.419 208.404 204.818 208.304 205.19 208.105C205.563 207.906 205.862 207.607 206.087 207.208C206.321 206.809 206.438 206.324 206.438 205.752C206.438 205.18 206.326 204.695 206.1 204.296C205.875 203.897 205.58 203.603 205.216 203.412C204.852 203.213 204.458 203.113 204.033 203.113C203.6 203.113 203.201 203.213 202.837 203.412C202.482 203.603 202.196 203.897 201.979 204.296C201.763 204.695 201.654 205.18 201.654 205.752C201.654 206.333 201.758 206.822 201.966 207.221C202.183 207.62 202.469 207.919 202.824 208.118C203.18 208.309 203.57 208.404 203.994 208.404ZM212.674 202.073C213.54 202.073 214.242 202.337 214.78 202.866C215.317 203.386 215.586 204.14 215.586 205.128V209.327H214.416V205.297C214.416 204.586 214.238 204.045 213.883 203.672C213.527 203.291 213.042 203.1 212.427 203.1C211.803 203.1 211.304 203.295 210.932 203.685C210.568 204.075 210.386 204.643 210.386 205.388V209.327H209.203V202.203H210.386V203.217C210.62 202.853 210.936 202.571 211.335 202.372C211.742 202.173 212.188 202.073 212.674 202.073ZM218.961 203.178V207.377C218.961 207.724 219.035 207.971 219.182 208.118C219.329 208.257 219.585 208.326 219.949 208.326H220.82V209.327H219.754C219.095 209.327 218.601 209.175 218.272 208.872C217.943 208.569 217.778 208.07 217.778 207.377V203.178H216.855V202.203H217.778V200.409H218.961V202.203H220.82V203.178H218.961ZM225.789 202.073C226.327 202.073 226.812 202.19 227.245 202.424C227.679 202.649 228.017 202.992 228.259 203.451C228.511 203.91 228.636 204.469 228.636 205.128V209.327H227.466V205.297C227.466 204.586 227.289 204.045 226.933 203.672C226.578 203.291 226.093 203.1 225.477 203.1C224.853 203.1 224.355 203.295 223.982 203.685C223.618 204.075 223.436 204.643 223.436 205.388V209.327H222.253V199.707H223.436V203.217C223.67 202.853 223.991 202.571 224.398 202.372C224.814 202.173 225.278 202.073 225.789 202.073Z" fill="#5BCD88"/>
<path d="M196.757 293.084C195.981 293.084 195.265 292.904 194.609 292.544C193.961 292.176 193.445 291.668 193.061 291.02C192.685 290.364 192.497 289.628 192.497 288.812C192.497 287.996 192.685 287.264 193.061 286.616C193.445 285.968 193.961 285.464 194.609 285.104C195.265 284.736 195.981 284.552 196.757 284.552C197.541 284.552 198.257 284.736 198.905 285.104C199.561 285.464 200.077 285.968 200.453 286.616C200.829 287.264 201.017 287.996 201.017 288.812C201.017 289.628 200.829 290.364 200.453 291.02C200.077 291.668 199.561 292.176 198.905 292.544C198.257 292.904 197.541 293.084 196.757 293.084ZM196.757 291.896C197.309 291.896 197.801 291.772 198.233 291.524C198.665 291.268 199.001 290.908 199.241 290.444C199.489 289.972 199.613 289.428 199.613 288.812C199.613 288.196 199.489 287.656 199.241 287.192C199.001 286.728 198.665 286.372 198.233 286.124C197.801 285.876 197.309 285.752 196.757 285.752C196.205 285.752 195.713 285.876 195.281 286.124C194.849 286.372 194.509 286.728 194.261 287.192C194.021 287.656 193.901 288.196 193.901 288.812C193.901 289.428 194.021 289.972 194.261 290.444C194.509 290.908 194.849 291.268 195.281 291.524C195.713 291.772 196.205 291.896 196.757 291.896ZM203.731 287.36C203.963 287.056 204.279 286.8 204.679 286.592C205.079 286.384 205.531 286.28 206.035 286.28C206.611 286.28 207.135 286.424 207.607 286.712C208.087 286.992 208.463 287.388 208.735 287.9C209.007 288.412 209.143 289 209.143 289.664C209.143 290.328 209.007 290.924 208.735 291.452C208.463 291.972 208.087 292.38 207.607 292.676C207.135 292.964 206.611 293.108 206.035 293.108C205.531 293.108 205.083 293.008 204.691 292.808C204.299 292.6 203.979 292.344 203.731 292.04V296.144H202.363V286.388H203.731V287.36ZM207.751 289.664C207.751 289.208 207.655 288.816 207.463 288.488C207.279 288.152 207.031 287.9 206.719 287.732C206.415 287.556 206.087 287.468 205.735 287.468C205.391 287.468 205.063 287.556 204.751 287.732C204.447 287.908 204.199 288.164 204.007 288.5C203.823 288.836 203.731 289.232 203.731 289.688C203.731 290.144 203.823 290.544 204.007 290.888C204.199 291.224 204.447 291.48 204.751 291.656C205.063 291.832 205.391 291.92 205.735 291.92C206.087 291.92 206.415 291.832 206.719 291.656C207.031 291.472 207.279 291.208 207.463 290.864C207.655 290.52 207.751 290.12 207.751 289.664ZM216.556 289.532C216.556 289.78 216.54 290.004 216.508 290.204H211.456C211.496 290.732 211.692 291.156 212.044 291.476C212.396 291.796 212.828 291.956 213.34 291.956C214.076 291.956 214.596 291.648 214.9 291.032H216.376C216.176 291.64 215.812 292.14 215.284 292.532C214.764 292.916 214.116 293.108 213.34 293.108C212.708 293.108 212.14 292.968 211.636 292.688C211.14 292.4 210.748 292 210.46 291.488C210.18 290.968 210.04 290.368 210.04 289.688C210.04 289.008 210.176 288.412 210.448 287.9C210.728 287.38 211.116 286.98 211.612 286.7C212.116 286.42 212.692 286.28 213.34 286.28C213.964 286.28 214.52 286.416 215.008 286.688C215.496 286.96 215.876 287.344 216.148 287.84C216.42 288.328 216.556 288.892 216.556 289.532ZM215.128 289.1C215.12 288.596 214.94 288.192 214.588 287.888C214.236 287.584 213.8 287.432 213.28 287.432C212.808 287.432 212.404 287.584 212.068 287.888C211.732 288.184 211.532 288.588 211.468 289.1H215.128ZM221.238 286.28C221.758 286.28 222.222 286.388 222.63 286.604C223.046 286.82 223.37 287.14 223.602 287.564C223.834 287.988 223.95 288.5 223.95 289.1V293H222.594V289.304C222.594 288.712 222.446 288.26 222.15 287.948C221.854 287.628 221.45 287.468 220.938 287.468C220.426 287.468 220.018 287.628 219.714 287.948C219.418 288.26 219.27 288.712 219.27 289.304V293H217.902V286.388H219.27V287.144C219.494 286.872 219.778 286.66 220.122 286.508C220.474 286.356 220.846 286.28 221.238 286.28ZM234.644 287.144C234.644 287.568 234.544 287.968 234.344 288.344C234.144 288.72 233.824 289.028 233.384 289.268C232.944 289.5 232.38 289.616 231.692 289.616H230.18V293H228.812V284.66H231.692C232.332 284.66 232.872 284.772 233.312 284.996C233.76 285.212 234.092 285.508 234.308 285.884C234.532 286.26 234.644 286.68 234.644 287.144ZM231.692 288.5C232.212 288.5 232.6 288.384 232.856 288.152C233.112 287.912 233.24 287.576 233.24 287.144C233.24 286.232 232.724 285.776 231.692 285.776H230.18V288.5H231.692ZM237.317 287.348C237.517 287.012 237.781 286.752 238.109 286.568C238.445 286.376 238.841 286.28 239.297 286.28V287.696H238.949C238.413 287.696 238.005 287.832 237.725 288.104C237.453 288.376 237.317 288.848 237.317 289.52V293H235.949V286.388H237.317V287.348ZM243.422 293.108C242.798 293.108 242.234 292.968 241.73 292.688C241.226 292.4 240.83 292 240.542 291.488C240.254 290.968 240.11 290.368 240.11 289.688C240.11 289.016 240.258 288.42 240.554 287.9C240.85 287.38 241.254 286.98 241.766 286.7C242.278 286.42 242.85 286.28 243.482 286.28C244.114 286.28 244.686 286.42 245.198 286.7C245.71 286.98 246.114 287.38 246.41 287.9C246.706 288.42 246.854 289.016 246.854 289.688C246.854 290.36 246.702 290.956 246.398 291.476C246.094 291.996 245.678 292.4 245.15 292.688C244.63 292.968 244.054 293.108 243.422 293.108ZM243.422 291.92C243.774 291.92 244.102 291.836 244.406 291.668C244.718 291.5 244.97 291.248 245.162 290.912C245.354 290.576 245.45 290.168 245.45 289.688C245.45 289.208 245.358 288.804 245.174 288.476C244.99 288.14 244.746 287.888 244.442 287.72C244.138 287.552 243.81 287.468 243.458 287.468C243.106 287.468 242.778 287.552 242.474 287.72C242.178 287.888 241.942 288.14 241.766 288.476C241.59 288.804 241.502 289.208 241.502 289.688C241.502 290.4 241.682 290.952 242.042 291.344C242.41 291.728 242.87 291.92 243.422 291.92ZM248.903 285.512C248.655 285.512 248.447 285.428 248.279 285.26C248.111 285.092 248.027 284.884 248.027 284.636C248.027 284.388 248.111 284.18 248.279 284.012C248.447 283.844 248.655 283.76 248.903 283.76C249.143 283.76 249.347 283.844 249.515 284.012C249.683 284.18 249.767 284.388 249.767 284.636C249.767 284.884 249.683 285.092 249.515 285.26C249.347 285.428 249.143 285.512 248.903 285.512ZM249.575 294.296C249.575 294.944 249.411 295.412 249.083 295.7C248.763 295.996 248.295 296.144 247.679 296.144H246.971V294.992H247.439C247.719 294.992 247.915 294.936 248.027 294.824C248.147 294.72 248.207 294.544 248.207 294.296V286.388H249.575V294.296ZM257.431 289.532C257.431 289.78 257.415 290.004 257.383 290.204H252.331C252.371 290.732 252.567 291.156 252.919 291.476C253.271 291.796 253.703 291.956 254.215 291.956C254.951 291.956 255.471 291.648 255.775 291.032H257.251C257.051 291.64 256.687 292.14 256.159 292.532C255.639 292.916 254.991 293.108 254.215 293.108C253.583 293.108 253.015 292.968 252.511 292.688C252.015 292.4 251.623 292 251.335 291.488C251.055 290.968 250.915 290.368 250.915 289.688C250.915 289.008 251.051 288.412 251.323 287.9C251.603 287.38 251.991 286.98 252.487 286.7C252.991 286.42 253.567 286.28 254.215 286.28C254.839 286.28 255.395 286.416 255.883 286.688C256.371 286.96 256.751 287.344 257.023 287.84C257.295 288.328 257.431 288.892 257.431 289.532ZM256.003 289.1C255.995 288.596 255.815 288.192 255.463 287.888C255.111 287.584 254.675 287.432 254.155 287.432C253.683 287.432 253.279 287.584 252.943 287.888C252.607 288.184 252.407 288.588 252.343 289.1H256.003ZM258.321 289.688C258.321 289.008 258.457 288.412 258.729 287.9C259.009 287.38 259.393 286.98 259.881 286.7C260.369 286.42 260.929 286.28 261.561 286.28C262.361 286.28 263.021 286.472 263.541 286.856C264.069 287.232 264.425 287.772 264.609 288.476H263.133C263.013 288.148 262.821 287.892 262.557 287.708C262.293 287.524 261.961 287.432 261.561 287.432C261.001 287.432 260.553 287.632 260.217 288.032C259.889 288.424 259.725 288.976 259.725 289.688C259.725 290.4 259.889 290.956 260.217 291.356C260.553 291.756 261.001 291.956 261.561 291.956C262.353 291.956 262.877 291.608 263.133 290.912H264.609C264.417 291.584 264.057 292.12 263.529 292.52C263.001 292.912 262.345 293.108 261.561 293.108C260.929 293.108 260.369 292.968 259.881 292.688C259.393 292.4 259.009 292 258.729 291.488C258.457 290.968 258.321 290.368 258.321 289.688ZM267.568 287.504V291.164C267.568 291.412 267.624 291.592 267.736 291.704C267.856 291.808 268.056 291.86 268.336 291.86H269.176V293H268.096C267.48 293 267.008 292.856 266.68 292.568C266.352 292.28 266.188 291.812 266.188 291.164V287.504H265.408V286.388H266.188V284.744H267.568V286.388H269.176V287.504H267.568ZM272.837 293.108C272.317 293.108 271.849 293.016 271.433 292.832C271.025 292.64 270.701 292.384 270.461 292.064C270.221 291.736 270.093 291.372 270.077 290.972H271.493C271.517 291.252 271.649 291.488 271.889 291.68C272.137 291.864 272.445 291.956 272.813 291.956C273.197 291.956 273.493 291.884 273.701 291.74C273.917 291.588 274.025 291.396 274.025 291.164C274.025 290.916 273.905 290.732 273.665 290.612C273.433 290.492 273.061 290.36 272.549 290.216C272.053 290.08 271.649 289.948 271.337 289.82C271.025 289.692 270.753 289.496 270.521 289.232C270.297 288.968 270.185 288.62 270.185 288.188C270.185 287.836 270.289 287.516 270.497 287.228C270.705 286.932 271.001 286.7 271.385 286.532C271.777 286.364 272.225 286.28 272.729 286.28C273.481 286.28 274.085 286.472 274.541 286.856C275.005 287.232 275.253 287.748 275.285 288.404H273.917C273.893 288.108 273.773 287.872 273.557 287.696C273.341 287.52 273.049 287.432 272.681 287.432C272.321 287.432 272.045 287.5 271.853 287.636C271.661 287.772 271.565 287.952 271.565 288.176C271.565 288.352 271.629 288.5 271.757 288.62C271.885 288.74 272.041 288.836 272.225 288.908C272.409 288.972 272.681 289.056 273.041 289.16C273.521 289.288 273.913 289.42 274.217 289.556C274.529 289.684 274.797 289.876 275.021 290.132C275.245 290.388 275.361 290.728 275.369 291.152C275.369 291.528 275.265 291.864 275.057 292.16C274.849 292.456 274.553 292.688 274.169 292.856C273.793 293.024 273.349 293.108 272.837 293.108Z" fill="#545C81"/>
<rect x="180.5" y="276.5" width="107" height="23" rx="11.5" stroke="#25CCDE"/>
<defs>
<linearGradient id="paint0_linear_418_12295" x1="622.642" y1="99.8108" x2="622.642" y2="-216.404" gradientUnits="userSpaceOnUse">
<stop stop-color="#5BCD88" stop-opacity="0"/>
<stop offset="1" stop-color="#5BCD88"/>
</linearGradient>
</defs>
</svg>
