<svg width="23" height="23" viewBox="0 0 23 23" fill="none" xmlns="http://www.w3.org/2000/svg">
<path d="M0.5 11.6128C0.5 17.688 5.42487 22.6128 11.5 22.6128C17.5751 22.6128 22.5 17.688 22.5 11.6128C22.5 5.53769 17.5751 0.612793 11.5 0.612793C5.42487 0.612793 0.5 5.53769 0.5 11.6128Z" fill="#25CCDE"/>
<path d="M10.3063 16.0006C9.96955 16.0006 9.6328 15.8679 9.3675 15.6128L5.62262 11.8679C5.10221 11.3474 5.10221 10.5108 5.62262 10.0006C6.14303 9.49035 6.97975 9.48015 7.48995 10.0006L10.2961 12.8067L15.5002 7.61277C16.0206 7.09236 16.8573 7.09236 17.3675 7.61277C17.8777 8.13318 17.8879 8.96993 17.3675 9.48014L11.2349 15.6128C10.9798 15.8679 10.643 16.0006 10.2961 16.0006H10.3063Z" fill="white"/>
</svg>
