<svg width="20" height="18" viewBox="0 0 20 18" fill="none" xmlns="http://www.w3.org/2000/svg">
<path d="M19 2H6V1C6 0.448 5.552 0 5 0H3C1.343 0 0 1.343 0 3V15C0 16.657 1.343 18 3 18H19C19.552 18 20 17.552 20 17V3C20 2.448 19.552 2 19 2ZM4 13H3C2.649 13 2.312 13.061 2 13.171V3C2 2.449 2.448 2 3 2H4V13ZM17 10.614C17 10.914 16.64 11.066 16.425 10.857L15.479 9.936L12.707 12.708L12.699 12.7C12.283 13.07 11.65 13.065 11.252 12.667L10 11.414L8.992 12.422C8.601 12.812 7.968 12.812 7.578 12.422C7.187 12.031 7.187 11.398 7.578 11.008L9.251 9.335C9.665 8.922 10.335 8.922 10.748 9.335L12 10.586L14.053 8.533L13.11 7.576C12.899 7.362 13.05 7 13.351 7H16.48C16.767 7 17 7.233 17 7.52V10.614Z" fill="#808080"/>
</svg>
