<svg width="20" height="20" viewBox="0 0 20 20" fill="none" xmlns="http://www.w3.org/2000/svg">
<path d="M10.1523 0.00211135C7.25997 -0.0411694 4.64866 1.15654 2.79688 3.09L0.853516 1.14664C0.658516 0.951643 0.341484 0.951643 0.146484 1.14664C0.0484844 1.24364 0 1.37216 0 1.50016V6.00016C0 6.26537 0.105357 6.51973 0.292893 6.70726C0.48043 6.8948 0.734784 7.00016 1 7.00016H5.5C5.628 7.00016 5.75552 6.95067 5.85352 6.85367C6.04852 6.65867 6.04852 6.34164 5.85352 6.14664L4.2168 4.50992C6.02806 2.60134 8.75188 1.56922 11.6914 2.17594C14.7664 2.81094 17.2318 5.30002 17.8398 8.38102C18.8498 13.499 14.941 18.0002 10 18.0002C5.881 18.0002 2.47988 14.8704 2.04688 10.8654C1.99287 10.3684 1.5625 10.0002 1.0625 10.0002C0.4625 10.0002 -0.0045 10.5253 0.0625 11.1213C0.6215 16.1093 4.866 20.0002 10 20.0002C16.136 20.0002 20.9993 14.4438 19.8223 8.09781C19.0773 4.07481 15.8171 0.860408 11.7871 0.156408C11.2347 0.0600332 10.6888 0.0101387 10.1523 0.00211135ZM10 4.00016C9.448 4.00016 9 4.44816 9 5.00016V10.0002C9 10.2652 9.10497 10.5202 9.29297 10.7072L11.5859 13.0002C11.9759 13.3902 12.61 13.3902 13 13.0002C13.39 12.6102 13.39 11.9761 13 11.5861L11 9.5861V5.00016C11 4.44816 10.552 4.00016 10 4.00016Z" fill="#808080"/>
</svg>
