<svg width="18" height="20" viewBox="0 0 18 20" fill="none" xmlns="http://www.w3.org/2000/svg">
<path d="M16 2H11.816C11.403 0.837 10.304 0 9 0C7.696 0 6.597 0.837 6.184 2H2C0.895 2 0 2.895 0 4V18C0 19.105 0.895 20 2 20H16C17.105 20 18 19.105 18 18V4C18 2.895 17.105 2 16 2ZM8 16H4C3.448 16 3 15.552 3 15C3 14.448 3.448 14 4 14H8C8.552 14 9 14.448 9 15C9 15.552 8.552 16 8 16ZM8 10H4C3.448 10 3 9.552 3 9C3 8.448 3.448 8 4 8H8C8.552 8 9 8.448 9 9C9 9.552 8.552 10 8 10ZM9 4C8.448 4 8 3.552 8 3C8 2.448 8.448 2 9 2C9.552 2 10 2.448 10 3C10 3.552 9.552 4 9 4ZM13.707 15.707C13.52 15.895 13.265 16 13 16H12C11.448 16 11 15.552 11 15C11 14.448 11.448 14 12 14H12.586L13.879 12.707C14.27 12.316 14.903 12.316 15.293 12.707C15.684 13.098 15.684 13.731 15.293 14.121L13.707 15.707ZM13 10H12C11.448 10 11 9.552 11 9C11 8.448 11.448 8 12 8H12.586L13.879 6.707C14.27 6.316 14.903 6.316 15.293 6.707C15.684 7.098 15.684 7.731 15.293 8.121L13.707 9.707C13.52 9.895 13.265 10 13 10Z" fill="#808080"/>
</svg>
